# Blender v2.78 (sub 0) OBJ File: 'snowman_2.blend'
# www.blender.org
mtllib snowman_2.mtl
o Cylinder_Cylinder.002
v 0.779534 0.000564 0.606885
v 0.980505 0.096171 0.217242
v 0.779534 0.000564 0.606885
v 0.910963 0.070974 0.191051
v 0.779534 0.000564 0.606885
v 0.968359 0.019520 0.205668
v 0.927442 0.063423 0.420333
v 0.946476 0.086518 0.316878
v 0.876935 0.061321 0.290687
v 0.857901 0.038225 0.394141
v 0.934331 0.009867 0.305304
v 0.915297 -0.013228 0.408759
vn -0.3331 0.9426 -0.0224
vn -0.6010 -0.7494 -0.2779
vn 0.3219 0.0913 -0.9424
vn 0.9341 -0.1933 0.3003
vn 0.0000 0.0000 1.0000
vn 0.7993 -0.2116 0.5624
vn 0.9745 -0.1756 0.1401
vn -0.5768 -0.7411 -0.3437
vn -0.3523 0.9352 0.0358
vn -0.3818 0.9145 0.1339
usemtl Material.002
s off
f 8//1 2//1 4//1 9//1
f 9//2 4//2 6//2 11//2
f 4//3 2//3 6//3
f 11//4 6//4 2//4 8//4
f 1//5 3//5 5//5
f 5//6 12//6 7//6 1//6
f 12//7 11//7 8//7 7//7
f 3//8 10//8 12//8 5//8
f 10//2 9//2 11//2 12//2
f 1//9 7//9 10//9 3//9
f 7//10 8//10 9//10 10//10
o Cube
v -0.392504 0.010784 0.380159
v -0.378576 0.596788 0.277002
v -0.386352 0.010784 -0.373623
v -0.279859 0.695977 -0.272441
v 0.260771 0.000566 0.345198
v 0.285534 0.695977 0.292446
v 0.342597 0.010784 -0.342597
v 0.249213 0.691904 -0.263881
v 0.113329 0.013909 -0.503143
v -0.114199 0.010784 -0.453828
v -0.089902 0.707351 -0.346608
v 0.114199 0.695977 -0.342597
v -0.142814 0.017858 0.380510
v 0.114199 0.010784 0.373672
v 0.116581 0.692712 0.345349
v -0.114199 0.649673 0.342597
v -0.379784 0.010784 -0.114199
v -0.427671 0.010784 0.114199
v -0.342597 0.695977 0.114199
v -0.342597 0.695977 -0.114199
v 0.393717 0.010784 0.114199
v 0.395936 0.010784 -0.114199
v 0.342597 0.695977 -0.114199
v 0.351844 0.684267 0.124190
v 0.135691 0.804163 -0.110325
v 0.114199 0.864692 0.114199
v -0.114199 0.832556 -0.114199
v -0.097649 0.856751 0.111194
v -0.114199 0.010784 -0.114199
v -0.114199 0.010784 0.114199
v 0.114199 0.010784 -0.114199
v 0.114199 0.010784 0.114199
v -0.381216 0.239181 0.417098
v -0.408331 0.467579 0.342597
v -0.342597 0.467579 -0.342597
v -0.342597 0.239181 -0.373998
v 0.342597 0.467579 -0.342597
v 0.394265 0.228919 -0.334595
v 0.373033 0.452866 0.351805
v 0.278904 0.239181 0.342597
v 0.114199 0.467579 0.452576
v 0.092864 0.235538 0.463403
v -0.123814 0.474017 0.412130
v -0.114199 0.239181 0.468236
v -0.114199 0.467579 -0.410650
v -0.105089 0.252014 -0.499203
v 0.130579 0.469691 -0.416016
v 0.114199 0.239181 -0.506406
v 0.392570 0.467579 -0.114199
v 0.494604 0.239181 -0.114199
v 0.455852 0.467579 0.114199
v 0.484584 0.239181 0.114199
v -0.431695 0.467579 0.114199
v -0.452670 0.239181 0.114199
v -0.421619 0.467579 -0.114199
v -0.442791 0.239181 -0.114199
v -0.142814 0.017858 0.380510
vn -0.8878 0.3255 -0.3255
vn 0.4870 0.3012 -0.8198
vn 0.8620 0.3934 0.3197
vn -0.2285 0.3691 0.9009
vn -0.0258 -0.9993 -0.0278
vn -0.4418 0.6840 0.5805
vn 0.5058 0.6946 0.5116
vn -0.0385 0.8015 0.5967
vn 0.0126 -0.9998 0.0131
vn -0.0144 -0.9998 0.0127
vn 0.2774 0.3209 0.9056
vn -0.1403 0.4270 0.8933
vn -0.2676 0.3493 -0.8980
vn -0.0234 0.2602 -0.9653
vn 0.0064 -1.0000 -0.0043
vn 0.0000 -1.0000 0.0000
vn 0.0587 0.9028 -0.4259
vn 0.1139 0.9869 -0.1143
vn 0.4382 0.8486 -0.2965
vn 0.4636 0.8857 0.0255
vn -0.2379 0.8445 -0.4798
vn -0.5132 0.8583 0.0000
vn -0.0047 -1.0000 -0.0047
vn 0.8791 0.3370 -0.3370
vn 0.9352 0.3266 -0.1371
vn -0.9448 0.3235 0.0516
vn -0.9383 0.3453 -0.0207
vn -0.9745 -0.1877 -0.1232
vn -0.9948 0.0918 -0.0435
vn -0.9819 -0.0444 0.1840
vn -0.9843 0.0154 0.1757
vn 0.9234 -0.3831 0.0247
vn 0.9554 0.2735 -0.1114
vn 0.9048 -0.2992 -0.3030
vn 0.9047 0.2924 -0.3097
vn -0.2063 -0.1733 -0.9630
vn -0.0235 0.3790 -0.9251
vn -0.2823 0.0525 -0.9579
vn -0.2831 0.1306 -0.9501
vn 0.0145 -0.3696 0.9291
vn 0.0268 0.2333 0.9720
vn 0.1546 -0.3536 0.9225
vn 0.5284 -0.2675 0.8057
vn 0.0092 -0.3695 0.9292
vn -0.2364 0.2166 0.9472
vn 0.7934 -0.1820 0.5808
vn 0.8443 -0.1357 0.5184
vn 0.5695 -0.1050 -0.8153
vn 0.5091 0.2826 -0.8130
vn -0.9833 -0.0416 -0.1773
vn -0.9366 0.0670 -0.3438
vn -0.1656 0.0612 0.9843
vn 0.3633 0.0101 0.9316
vn 0.3522 0.3994 0.8464
vn -0.0467 0.9951 -0.0876
vn 0.3273 0.0392 -0.9441
vn 0.1072 0.8799 -0.4628
vn 0.2748 0.8616 -0.4267
vn -0.0337 -0.0143 -0.9993
vn 0.0152 -0.3701 0.9289
vn -0.1462 0.7424 0.6539
vn -0.0802 0.3707 0.9253
vn 0.5225 -0.0144 -0.8525
vn -0.0324 0.9642 -0.2631
vn 0.3000 0.4246 -0.8542
vn 0.5448 -0.0323 0.8380
vn 0.6016 0.7839 -0.1537
vn 0.0360 0.3108 -0.9498
vn -0.0092 0.3656 -0.9307
vn -0.2816 0.8458 0.4531
vn -0.1860 -0.1479 0.9713
vn -0.5029 0.8410 -0.1994
vn -0.3639 0.2746 -0.8900
vn -0.5485 0.8347 -0.0493
vn -0.1803 0.2856 0.9412
vn -0.3008 0.4859 0.8206
vn -0.4549 -0.1480 -0.8781
vn -0.4551 0.3218 -0.8303
usemtl Material.004
s off
f 67//11 32//11 16//11 47//11
f 59//12 24//12 20//12
f 63//13 36//13 18//13 51//13
f 55//14 28//14 46//14
f 44//15 33//15 17//15 26//15
f 40//16 31//16 28//16
f 36//17 38//17 27//17
f 38//18 40//18 27//18
f 30//19 42//19 25//19 13//19
f 42//20 44//20 26//20 25//20
f 51//21 18//21 27//21
f 53//22 27//22 55//22
f 47//23 16//23 57//23
f 57//24 23//24 59//24
f 22//25 21//25 43//25 41//25
f 41//26 43//26 44//26 42//26
f 15//26 22//26 41//26 29//26
f 29//26 41//26 42//26 30//26
f 24//27 23//27 37//27
f 37//28 39//28 40//28
f 20//29 37//29 35//29
f 35//30 37//30 36//30
f 23//31 16//31 39//31
f 39//32 32//32 31//32
f 21//33 19//33 34//33 43//33
f 43//26 34//26 33//26 44//26
f 49//34 20//34 35//34 61//34
f 61//35 35//35 36//35 63//35
f 46//36 14//36 31//36 65//36
f 65//37 31//37 32//37 67//37
f 30//38 66//38 68//38 29//38
f 66//39 65//39 67//39 68//39
f 13//40 45//40 66//40 30//40
f 45//41 46//41 65//41 66//41
f 34//42 62//42 64//42 33//42
f 62//43 61//43 63//43 64//43
f 19//44 50//44 62//44 34//44
f 50//45 49//45 61//45 62//45
f 22//46 58//46 21//46
f 58//47 57//47 59//47
f 15//48 48//48 22//48
f 48//49 47//49 57//49
f 26//50 54//50 25//50
f 54//51 55//51 56//51
f 17//52 54//52 26//52
f 52//53 51//53 54//53
f 25//54 56//54 13//54
f 56//55 55//55 46//55
f 33//56 64//56 52//56 17//56
f 64//57 63//57 51//57 52//57
f 21//58 50//58 19//58
f 60//59 59//59 50//59
f 29//60 68//60 48//60 15//60
f 68//61 67//61 47//61 48//61
f 55//62 54//62 53//62
f 54//63 51//63 53//63
f 27//64 53//64 51//64
f 27//65 18//65 36//65
f 50//66 59//66 49//66
f 37//67 23//67 39//67
f 37//68 20//68 24//68
f 21//69 58//69 60//69
f 25//70 54//70 56//70
f 27//71 40//71 28//71
f 55//72 27//72 28//72
f 50//73 21//73 60//73
f 40//74 38//74 37//74
f 20//75 49//75 59//75
f 54//76 17//76 52//76
f 36//77 37//77 38//77
f 59//78 23//78 24//78
f 59//79 60//79 58//79
f 28//80 31//80 14//80
f 13//81 56//81 45//81
f 39//82 16//82 32//82
f 57//83 16//83 23//83
f 31//84 40//84 39//84
f 46//85 45//85 56//85
f 46//86 28//86 14//86
f 22//87 48//87 58//87
f 57//88 58//88 48//88
l 25 69
o Cube.001
v 0.059937 0.467518 0.291018
v 0.255997 1.033910 0.288893
v -0.086277 0.536584 -0.103613
v 0.167102 1.094199 -0.131438
v 0.438034 0.356815 0.197899
v 0.699309 0.879422 0.079777
v 0.280555 0.432650 -0.289239
v 0.492470 0.914225 -0.291699
v 0.122884 0.472084 -0.288308
v 0.034447 0.501855 -0.231793
v 0.262575 1.041933 -0.243580
v 0.385193 0.965739 -0.303863
v 0.277556 0.397482 0.288496
v 0.321914 0.401370 0.261218
v 0.612279 0.931212 0.169782
v 0.456348 0.978892 0.245171
v -0.016215 0.575053 0.085865
v 0.044757 0.520373 0.241231
v 0.241570 1.099483 0.124365
v 0.180839 1.107919 -0.002643
v 0.466770 0.333093 -0.003489
v 0.413812 0.390534 -0.161694
v 0.600252 0.878968 -0.218399
v 0.680716 0.856924 -0.055788
v 0.509472 1.022232 -0.162184
v 0.589649 1.060710 -0.007196
v 0.364314 1.125409 -0.089213
v 0.456446 1.126180 0.058293
v 0.101554 0.560991 -0.001060
v 0.176809 0.550537 0.156322
v 0.241358 0.484674 -0.072979
v 0.316613 0.474220 0.084403
v 0.188135 0.781790 0.376200
v 0.218890 0.951699 0.337136
v 0.032554 0.961503 -0.135525
v -0.050822 0.806070 -0.132663
v 0.451967 0.732551 -0.351282
v 0.409919 0.551001 -0.336436
v 0.694692 0.680492 0.119206
v 0.565716 0.565601 0.165422
v 0.574165 0.772473 0.268569
v 0.490479 0.619733 0.307639
v 0.417207 0.858276 0.314955
v 0.366491 0.691203 0.375779
v 0.149935 0.888301 -0.254338
v 0.057408 0.741253 -0.295102
v 0.298674 0.808206 -0.335339
v 0.185159 0.659496 -0.367739
v 0.557811 0.705399 -0.209635
v 0.547238 0.514435 -0.217264
v 0.671802 0.673800 -0.072179
v 0.616359 0.507329 -0.056726
v 0.128526 0.970367 0.207296
v 0.042658 0.820505 0.238401
v 0.059439 0.977454 0.046741
v -0.026551 0.827658 0.077908
v 0.250919 0.551955 0.307690
vn -0.7143 0.6993 0.0266
vn 0.1625 0.1068 -0.9809
vn 0.9916 -0.0425 -0.1220
vn 0.2889 0.4075 0.8663
vn -0.6183 -0.7736 -0.1388
vn 0.0924 0.7820 0.6164
vn 0.9152 0.3720 0.1552
vn 0.5611 0.7006 0.4409
vn -0.2451 -0.7158 -0.6539
vn -0.5103 -0.7682 -0.3865
vn 0.7459 0.1128 0.6564
vn 0.4509 0.3911 0.8024
vn -0.4548 0.4841 -0.7475
vn -0.3257 0.3015 -0.8961
vn -0.2799 -0.9228 0.2648
vn -0.4179 -0.8976 0.1402
vn 0.0037 -0.9743 0.2251
vn -0.0595 -0.9821 -0.1786
vn 0.2408 0.8103 -0.5343
vn 0.4543 0.8430 -0.2882
vn 0.5775 0.5881 -0.5663
vn 0.7520 0.5910 -0.2920
vn -0.0440 0.8906 -0.4526
vn -0.0519 0.9945 0.0909
vn -0.3316 -0.9292 0.1634
vn -0.5687 -0.8207 0.0545
vn 0.6990 -0.0613 -0.7125
vn 0.8255 -0.1070 -0.5541
vn -0.6035 0.6836 0.4105
vn -0.6175 0.7196 0.3176
vn -0.9254 -0.0134 0.3788
vn -0.7762 0.5194 0.3574
vn -0.7426 0.0630 0.6668
vn -0.6514 0.3815 0.6558
vn 0.6010 -0.7067 -0.3733
vn 0.8306 -0.1651 -0.5318
vn 0.3781 -0.6777 -0.6307
vn 0.7126 -0.1141 -0.6922
vn -0.5691 -0.1588 -0.8068
vn -0.2588 0.4058 -0.8765
vn -0.7249 0.0212 -0.6885
vn -0.5810 0.2977 -0.7575
vn 0.4799 -0.5206 0.7062
vn 0.5375 0.1396 0.8316
vn 0.3060 -0.4180 0.8553
vn 0.6579 -0.5191 0.5456
vn -0.0737 -0.2635 0.9618
vn 0.2317 0.2699 0.9346
vn 0.8096 -0.5292 0.2542
vn 0.8419 -0.5215 0.1384
vn -0.0790 -0.2935 -0.9527
vn 0.1753 0.0800 -0.9813
vn -0.9735 0.0624 0.2202
vn -0.8693 0.4898 0.0664
vn 0.3169 0.0683 0.9460
vn 0.6960 -0.2053 0.6881
vn 0.8132 0.1541 0.5613
vn 0.3407 0.9188 -0.1992
vn -0.1283 -0.0513 -0.9904
vn 0.2541 0.7707 -0.5843
vn 0.3961 0.6789 -0.6182
vn -0.5623 -0.1573 -0.8119
vn 0.2870 -0.3517 0.8910
vn 0.4748 0.6911 0.5449
vn 0.4892 0.3124 0.8143
vn -0.0521 -0.3750 -0.9256
vn 0.2637 0.8954 -0.3587
vn 0.0496 0.3012 -0.9523
vn 0.7523 -0.3759 0.5411
vn 0.7426 0.4501 -0.4959
vn -0.2503 0.3201 -0.9137
vn -0.2553 0.3879 -0.8856
vn 0.3160 0.8906 0.3272
vn -0.1087 -0.2185 0.9698
vn -0.1367 0.9865 -0.0905
vn -0.5597 0.4587 -0.6902
vn -0.1048 0.9927 0.0603
vn 0.1062 0.2045 0.9731
vn 0.2957 0.3807 0.8761
vn -0.8417 -0.0611 -0.5364
vn -0.5871 0.5373 -0.6055
usemtl Material.004
s off
f 124//89 89//89 73//89 104//89
f 116//90 81//90 77//90
f 120//91 93//91 75//91 108//91
f 112//92 85//92 103//92
f 101//93 90//93 74//93 83//93
f 97//94 88//94 85//94
f 93//95 95//95 84//95
f 95//96 97//96 84//96
f 87//97 99//97 82//97 70//97
f 99//98 101//98 83//98 82//98
f 108//99 75//99 84//99
f 110//100 84//100 112//100
f 104//101 73//101 114//101
f 114//102 80//102 116//102
f 79//103 78//103 100//103 98//103
f 98//104 100//104 101//104 99//104
f 72//105 79//105 98//105 86//105
f 86//106 98//106 99//106 87//106
f 81//107 80//107 94//107
f 94//108 96//108 97//108
f 77//109 94//109 92//109
f 92//110 94//110 93//110
f 80//111 73//111 96//111
f 96//112 89//112 88//112
f 78//113 76//113 91//113 100//113
f 100//114 91//114 90//114 101//114
f 106//115 77//115 92//115 118//115
f 118//116 92//116 93//116 120//116
f 103//117 71//117 88//117 122//117
f 122//118 88//118 89//118 124//118
f 87//119 123//119 125//119 86//119
f 123//120 122//120 124//120 125//120
f 70//121 102//121 123//121 87//121
f 102//122 103//122 122//122 123//122
f 91//123 119//123 121//123 90//123
f 119//124 118//124 120//124 121//124
f 76//125 107//125 119//125 91//125
f 107//126 106//126 118//126 119//126
f 79//127 115//127 78//127
f 115//128 114//128 116//128
f 72//129 105//129 79//129
f 105//130 104//130 114//130
f 83//131 111//131 82//131
f 111//132 112//132 113//132
f 74//133 111//133 83//133
f 109//134 108//134 111//134
f 82//135 113//135 70//135
f 113//136 112//136 103//136
f 90//137 121//137 109//137 74//137
f 121//138 120//138 108//138 109//138
f 78//139 107//139 76//139
f 117//140 116//140 107//140
f 86//141 125//141 105//141 72//141
f 125//142 124//142 104//142 105//142
f 112//143 111//143 110//143
f 111//144 108//144 110//144
f 84//145 110//145 108//145
f 84//146 75//146 93//146
f 107//147 116//147 106//147
f 94//148 80//148 96//148
f 94//149 77//149 81//149
f 78//150 115//150 117//150
f 82//151 111//151 113//151
f 84//152 97//152 85//152
f 112//153 84//153 85//153
f 107//154 78//154 117//154
f 97//155 95//155 94//155
f 77//156 106//156 116//156
f 111//157 74//157 109//157
f 93//158 94//158 95//158
f 116//159 80//159 81//159
f 116//160 117//160 115//160
f 85//161 88//161 71//161
f 70//162 113//162 102//162
f 96//163 73//163 89//163
f 114//164 73//164 80//164
f 88//165 97//165 96//165
f 103//166 102//166 113//166
f 103//167 85//167 71//167
f 79//168 105//168 115//168
f 114//169 115//169 105//169
l 82 126
o Cube.002
v 0.716648 0.230766 0.214552
v 1.016719 0.285000 0.215198
v 0.752470 0.337979 -0.133114
v 1.102477 0.331210 -0.040487
v 0.723817 -0.041205 0.107357
v 1.098770 -0.013100 0.163006
v 0.777206 0.053517 -0.221573
v 1.132069 0.056823 -0.117049
v 0.750518 0.125920 -0.242771
v 0.759348 0.248092 -0.215315
v 1.125183 0.245514 -0.106521
v 1.131320 0.139169 -0.136502
v 0.704845 0.130034 0.217431
v 0.717247 0.035693 0.174179
v 1.083115 0.065470 0.215606
v 1.046232 0.145865 0.245804
v 0.720101 0.330889 -0.000705
v 0.703944 0.301695 0.113524
v 1.075433 0.308922 0.144717
v 1.088321 0.349228 0.048102
v 0.751914 -0.022669 -0.001454
v 0.767524 0.012619 -0.118902
v 1.129809 0.022337 -0.054194
v 1.107977 -0.020914 0.065663
v 1.174614 0.095236 -0.011747
v 1.190380 0.072856 0.111649
v 1.174747 0.225835 0.026687
v 1.173396 0.182286 0.141732
v 0.631261 0.192155 -0.074546
v 0.616370 0.144826 0.045064
v 0.646602 0.064068 -0.106762
v 0.631128 0.065030 0.010347
v 0.812255 0.252299 0.270625
v 0.941734 0.284946 0.244211
v 0.981531 0.376898 -0.088399
v 0.861825 0.362023 -0.120722
v 1.023435 0.049899 -0.190164
v 0.898728 0.012705 -0.213641
v 0.970400 -0.032732 0.160034
v 0.851270 0.008982 0.152010
v 0.955598 0.040849 0.252358
v 0.829768 0.041112 0.241999
v 0.947222 0.132909 0.268417
v 0.817421 0.110583 0.280446
v 1.000120 0.258947 -0.155455
v 0.891674 0.260002 -0.220049
v 1.016574 0.133643 -0.195329
v 0.898722 0.147557 -0.258215
v 1.011016 0.032099 -0.080668
v 0.895405 -0.029396 -0.115076
v 0.999410 -0.036972 0.026799
v 0.879318 -0.060662 0.003561
v 0.944994 0.349878 0.160365
v 0.822025 0.341078 0.146682
v 0.961241 0.370208 0.043390
v 0.837523 0.383293 0.025561
v 0.704845 0.130034 0.217431
vn 0.1597 0.9843 0.0746
vn 0.4546 -0.2009 -0.8678
vn 0.1140 -0.9894 0.0902
vn 0.1997 0.1611 0.9665
vn -0.7768 -0.6274 0.0551
vn 0.5173 0.3821 0.7658
vn 0.5221 -0.6987 0.4891
vn 0.6964 -0.0877 0.7123
vn -0.8752 0.3372 0.3468
vn -0.8586 -0.3150 0.4045
vn 0.0642 -0.5463 0.8351
vn 0.2987 -0.1376 0.9444
vn 0.4748 0.4903 -0.7309
vn 0.3747 0.3255 -0.8682
vn -0.7858 0.1240 -0.6059
vn -0.9848 -0.0959 -0.1451
vn -0.7898 0.5917 -0.1614
vn -0.8460 0.5329 0.0165
vn 0.9499 0.1344 -0.2823
vn 0.9999 -0.0040 0.0102
vn 0.8825 -0.4251 -0.2015
vn 0.8588 -0.5115 -0.0281
vn 0.8656 0.4287 -0.2587
vn 0.8016 0.5062 0.3181
vn -0.6176 -0.4220 -0.6637
vn -0.3949 -0.9176 -0.0446
vn -0.0442 -0.9853 -0.1652
vn 0.2975 -0.8174 -0.4933
vn 0.2772 0.7803 0.5606
vn 0.3179 0.8592 0.4009
vn -0.3709 0.8907 0.2630
vn -0.1026 0.9433 0.3156
vn -0.4564 0.7400 0.4941
vn -0.0876 0.8131 0.5755
vn -0.2920 -0.9143 -0.2806
vn 0.4998 -0.8519 -0.1567
vn -0.2710 -0.8819 -0.3858
vn 0.3283 -0.8726 -0.3616
vn -0.0549 0.2227 -0.9733
vn 0.4867 0.3223 -0.8119
vn -0.0638 0.6708 -0.7389
vn 0.1654 0.5070 -0.8459
vn -0.4536 -0.4200 0.7861
vn 0.1596 -0.4562 0.8755
vn -0.3807 -0.6248 0.6816
vn -0.3351 -0.9098 0.2448
vn -0.4762 0.0808 0.8756
vn 0.0639 0.1592 0.9852
vn 0.3833 -0.9218 -0.0580
vn 0.0919 -0.8947 0.4371
vn -0.0360 -0.2930 -0.9554
vn 0.4251 -0.2841 -0.8594
vn -0.3980 0.9161 -0.0483
vn 0.0957 0.9933 0.0652
vn -0.0811 -0.1784 0.9806
vn -0.0525 -0.7850 0.6172
vn 0.3174 -0.7161 0.6216
vn 0.9865 0.1417 0.0819
vn 0.1976 -0.0442 -0.9793
vn 0.9374 0.0975 -0.3344
vn 0.9337 -0.0742 -0.3502
vn -0.1432 0.3100 -0.9399
vn -0.4891 -0.4873 0.7234
vn 0.6334 -0.0001 0.7739
vn 0.2459 -0.2400 0.9391
vn -0.0530 -0.3134 -0.9481
vn 0.9797 0.1776 -0.0930
vn 0.5586 -0.0054 -0.8294
vn 0.2231 -0.8999 0.3746
vn 0.7830 -0.5868 -0.2065
vn 0.4293 0.2679 -0.8625
vn 0.4759 0.3093 -0.8233
vn 0.6837 0.2921 0.6687
vn -0.5123 0.0408 0.8578
vn 0.8202 0.5719 0.0147
vn 0.3410 0.6288 -0.6988
vn 0.7718 0.5916 0.2330
vn 0.1812 0.0746 0.9806
vn 0.3472 0.2711 0.8978
vn -0.0873 0.6817 -0.7264
vn 0.3698 0.7014 -0.6093
vn -0.7489 0.4151 -0.5165
vn -0.4325 0.8863 0.1653
vn -0.8840 0.4618 0.0727
vn 0.0776 0.9804 0.1812
vn 0.3929 0.9114 -0.1226
vn -0.1928 0.9660 -0.1725
vn 0.1531 0.9698 0.1898
vn -0.0801 0.9844 -0.1564
vn -0.1236 0.7869 0.6046
vn -0.8795 0.1162 0.4614
vn -0.3994 0.7260 0.5599
vn -0.0016 -0.9405 -0.3397
vn -0.2605 -0.9145 -0.3094
vn -0.2793 -0.8885 0.3641
vn 0.2599 -0.8249 -0.5021
vn -0.5790 -0.7565 -0.3042
vn -0.3277 -0.9439 -0.0413
vn 0.1494 -0.9867 0.0639
vn -0.3948 -0.8401 -0.3719
vn -0.2788 -0.8829 -0.3780
vn 0.3495 -0.8267 -0.4410
vn 0.4877 -0.8688 -0.0859
usemtl Material.004
s off
f 181//170 146//170 161//170
f 173//171 138//171 134//171
f 177//172 150//172 132//172
f 169//173 142//173 160//173
f 158//174 147//174 131//174 140//174
f 154//175 145//175 142//175
f 150//176 152//176 141//176
f 152//177 154//177 141//177
f 144//178 156//178 127//178
f 156//179 158//179 140//179 139//179
f 165//180 132//180 141//180
f 167//181 141//181 169//181
f 161//182 130//182 171//182
f 171//183 137//183 173//183
f 136//184 135//184 157//184 155//184
f 155//185 157//185 158//185 156//185
f 129//186 155//186 143//186
f 143//187 155//187 144//187
f 138//188 137//188 151//188
f 151//189 153//189 154//189
f 134//190 151//190 149//190
f 149//191 151//191 150//191
f 137//192 130//192 153//192
f 153//193 146//193 145//193
f 135//194 133//194 157//194
f 157//195 148//195 158//195
f 163//196 149//196 175//196
f 175//197 150//197 177//197
f 160//198 128//198 145//198 179//198
f 179//199 145//199 146//199
f 144//200 180//200 182//200
f 180//201 179//201 182//201
f 127//202 159//202 180//202
f 159//203 160//203 180//203
f 148//204 176//204 178//204
f 176//205 175//205 178//205
f 133//206 164//206 176//206
f 164//207 163//207 176//207
f 136//208 172//208 135//208
f 172//209 171//209 173//209
f 129//210 162//210 136//210
f 162//211 161//211 171//211
f 140//212 168//212 139//212
f 168//213 169//213 170//213
f 131//214 168//214 140//214
f 166//215 165//215 168//215
f 139//216 170//216 127//216
f 170//217 169//217 160//217
f 147//218 166//218 131//218
f 178//219 177//219 166//219
f 135//220 164//220 133//220
f 174//221 173//221 164//221
f 143//222 182//222 129//222
f 182//223 181//223 161//223
f 169//224 168//224 167//224
f 168//225 165//225 167//225
f 141//226 167//226 165//226
f 141//227 132//227 150//227
f 164//228 173//228 163//228
f 151//229 137//229 153//229
f 151//230 134//230 138//230
f 135//231 172//231 174//231
f 139//232 168//232 170//232
f 141//233 154//233 142//233
f 169//234 141//234 142//234
f 164//235 135//235 174//235
f 154//236 152//236 151//236
f 134//237 163//237 173//237
f 168//238 131//238 166//238
f 150//239 151//239 152//239
f 173//240 137//240 138//240
f 173//241 174//241 172//241
f 142//242 145//242 128//242
f 127//243 170//243 159//243
f 153//244 130//244 146//244
f 171//245 130//245 137//245
f 145//246 154//246 153//246
f 160//247 159//247 170//247
f 160//248 142//248 128//248
f 136//249 162//249 172//249
f 171//250 172//250 162//250
f 155//251 129//251 136//251
f 182//252 143//252 144//252
f 144//253 155//253 156//253
f 182//254 179//254 181//254
f 161//255 146//255 130//255
f 129//256 182//256 162//256
f 146//257 181//257 179//257
f 161//258 162//258 182//258
f 180//259 160//259 179//259
f 127//260 156//260 139//260
f 180//261 144//261 127//261
f 150//262 175//262 149//262
f 178//263 147//263 148//263
f 166//264 147//264 178//264
f 178//265 175//265 177//265
f 158//266 148//266 147//266
f 166//267 177//267 165//267
f 132//268 165//268 177//268
f 157//269 133//269 148//269
f 176//270 148//270 133//270
f 149//271 163//271 134//271
f 176//272 163//272 175//272
l 139 183
o Cylinder.002_Cylinder.004
v 0.981129 0.271387 0.175659
v 0.955285 0.322255 0.222754
v 0.922853 0.244987 0.172195
v 0.897009 0.295855 0.219289
v 0.939500 0.291361 0.131239
v 0.913656 0.342230 0.178334
vn 0.2251 -0.5979 0.7693
vn -0.9003 -0.0579 -0.4315
vn -0.3493 0.6876 0.6366
vn 0.6751 0.6558 -0.3378
vn 0.3493 -0.6876 -0.6366
usemtl Material.007
s off
f 184//273 185//273 187//273 186//273
f 186//274 187//274 189//274 188//274
f 187//275 185//275 189//275
f 188//276 189//276 185//276 184//276
f 184//277 186//277 188//277
o Cylinder.003_Cylinder.005
v 0.772908 0.125125 0.181577
v 0.752697 0.134097 0.241288
v 0.778201 0.071136 0.191481
v 0.757989 0.080109 0.251192
v 0.730501 0.091110 0.172334
v 0.710289 0.100082 0.232045
vn 0.9434 0.1470 0.2972
vn -0.3886 -0.9214 0.0069
vn -0.3174 0.1409 0.9378
vn -0.5548 0.7744 -0.3042
vn 0.3174 -0.1409 -0.9378
usemtl Material.008
s off
f 190//278 191//278 193//278 192//278
f 192//279 193//279 195//279 194//279
f 193//280 191//280 195//280
f 194//281 195//281 191//281 190//281
f 190//282 192//282 194//282
o Cylinder.006_Cylinder.008
v 0.715499 0.230586 0.153430
v 0.704480 0.266193 0.205055
v 0.760683 0.260280 0.142592
v 0.749665 0.295888 0.194217
v 0.764189 0.215331 0.174344
v 0.753171 0.250939 0.225969
vn -0.5465 0.6303 -0.5514
vn 0.9829 0.1512 0.1055
vn -0.1730 0.5592 0.8108
vn -0.4364 -0.7815 0.4459
vn 0.1730 -0.5592 -0.8108
usemtl Material.011
s off
f 196//283 197//283 199//283 198//283
f 198//284 199//284 201//284 200//284
f 199//285 197//285 201//285
f 200//286 201//286 197//286 196//286
f 196//287 198//287 200//287
o Cylinder.007_Cylinder.009
v 0.344322 0.892497 0.222546
v 0.349046 0.921665 0.324649
v 0.396627 0.819058 0.241105
v 0.401351 0.848226 0.343209
v 0.304970 0.812979 0.247082
v 0.309694 0.842147 0.349186
vn 0.8217 0.5369 -0.1914
vn 0.0813 -0.9593 0.2703
vn 0.0444 0.2744 0.9606
vn -0.9029 0.4225 -0.0789
vn -0.0444 -0.2744 -0.9606
usemtl Material.012
s off
f 202//288 203//288 205//288 204//288
f 204//289 205//289 207//289 206//289
f 205//290 203//290 207//290
f 206//291 207//291 203//291 202//291
f 202//292 204//292 206//292
o Cylinder.008_Cylinder.010
v 0.109131 0.613695 0.278898
v 0.106312 0.667464 0.370545
v 0.187281 0.572826 0.305279
v 0.184462 0.626595 0.396926
v 0.106132 0.534300 0.325386
v 0.103313 0.588070 0.417033
vn 0.5278 0.7396 -0.4177
vn 0.4713 -0.7543 0.4570
vn -0.0265 0.5059 0.8622
vn -0.9991 0.0147 -0.0394
vn 0.0265 -0.5059 -0.8622
usemtl Material.013
s off
f 208//293 209//293 211//293 210//293
f 210//294 211//294 213//294 212//294
f 211//295 209//295 213//295
f 212//296 213//296 209//296 208//296
f 208//297 210//297 212//297
o Cylinder.009_Cylinder.011
v -0.022777 0.374865 0.358783
v -0.025596 0.379189 0.464951
v 0.055373 0.326389 0.362832
v 0.052554 0.330713 0.469000
v -0.025776 0.282934 0.362448
v -0.028595 0.287258 0.468616
vn 0.5278 0.8491 -0.0206
vn 0.4713 -0.8806 0.0484
vn -0.0265 0.0407 0.9988
vn -0.9991 0.0315 -0.0278
vn 0.0265 -0.0407 -0.9988
usemtl Material.014
s off
f 214//298 215//298 217//298 216//298
f 216//299 217//299 219//299 218//299
f 217//300 215//300 219//300
f 218//301 219//301 215//301 214//301
f 214//302 216//302 218//302
o Cylinder.012_Cylinder.014
v -0.204112 1.125750 0.030049
v -0.152750 0.674471 0.067609
v -0.138836 1.134596 0.047070
v -0.087474 0.683317 0.084630
v -0.147644 1.129030 -0.007759
v -0.096281 0.677751 0.029801
vn -0.2584 0.0509 0.9647
vn 0.9810 0.0977 -0.1675
vn 0.1127 -0.9902 0.0824
vn -0.5463 -0.1310 -0.8273
vn -0.1127 0.9902 -0.0824
usemtl Material.017
s off
f 220//303 221//303 223//303 222//303
f 222//304 223//304 225//304 224//304
f 223//305 221//305 225//305
f 224//306 225//306 221//306 220//306
f 220//307 222//307 224//307
