# Blender v3.0.0 OBJ File: 'Winter Forrest Pack.blend'
# www.blender.org
mtllib winter-tree9.mtl
o Cylinder.013_Cylinder.014
v 17.093906 0.000000 -13.894462
v 17.093906 0.968761 -13.692063
v 17.487257 0.000000 -13.731531
v 17.344139 0.968761 -13.588414
v 17.650187 0.000000 -13.338181
v 17.447790 0.968761 -13.338181
v 17.487257 0.000000 -12.944832
v 17.344139 0.968761 -13.087947
v 17.093906 0.000000 -12.781900
v 17.093906 0.968761 -12.984298
v 16.700558 0.000000 -12.944832
v 16.843674 0.968761 -13.087948
v 16.537626 0.000000 -13.338181
v 16.740023 0.968761 -13.338181
v 16.700558 0.000000 -13.731531
v 16.843674 0.968761 -13.588413
v 17.093906 3.802736 -13.338181
v 16.371086 1.874786 -13.338181
v 16.826796 2.962691 -13.338181
v 16.905029 2.962691 -13.527057
v 16.582794 1.874786 -13.849292
v 17.093906 2.962691 -13.071070
v 16.905029 2.962691 -13.149304
v 16.582794 1.874786 -12.827069
v 17.816727 1.874786 -13.338181
v 17.361017 2.962691 -13.338181
v 17.282782 2.962691 -13.149304
v 17.605019 1.874786 -12.827069
v 17.093906 1.874786 -14.061001
v 17.093906 2.962691 -13.605292
v 17.282782 2.962691 -13.527057
v 17.605019 1.874786 -13.849292
v 18.268652 0.799873 -14.305926
v 18.629007 0.799873 -13.279757
v 18.275963 0.780063 -12.240693
v 17.167395 0.780063 -11.781509
v 16.058825 0.780063 -12.240694
v 17.743715 0.968761 -13.053483
v 16.064955 0.969555 -14.565159
v 16.131458 0.862151 -14.485374
v 15.893857 1.853994 -13.267970
v 15.930317 1.755690 -13.265192
v 16.659510 3.044852 -13.338181
v 16.696537 2.962690 -13.338181
v 16.795689 2.958097 -13.649077
v 16.758440 3.040259 -13.686325
v 17.093906 3.044852 -12.903783
v 17.093906 2.962691 -12.966757
v 16.831270 2.962691 -13.075544
v 16.178619 1.831553 -12.566054
v 16.161266 1.946878 -12.554536
v 18.128862 1.844586 -13.292559
v 17.488155 3.044852 -13.338181
v 17.465330 2.962691 -13.338181
v 17.862139 1.846365 -12.617811
v 17.154732 1.797670 -14.494980
v 17.093906 3.044852 -13.762282
v 17.093906 2.962691 -13.734501
v 17.356543 2.962691 -13.600818
v 17.456621 2.962691 -13.151735
v 17.280352 2.962691 -12.975467
v 17.317554 3.044852 -12.935924
v 17.093906 3.410518 -13.546380
v 16.938391 3.408188 -13.186964
v 17.093906 3.473107 -13.166625
v 16.874395 3.399313 -13.338093
v 17.510204 1.807396 -14.344280
v 17.864000 1.891891 -13.867300
v 17.553656 1.883538 -14.401484
v 17.366644 2.660651 -13.683062
v 16.132555 1.726332 -13.751811
v 16.704151 1.826360 -14.317080
v 16.556314 1.872103 -13.875772
v 16.693434 2.470373 -13.738654
v 16.684629 1.912620 -12.300671
v 17.482254 1.958187 -12.313059
v 17.438978 1.865698 -12.371932
v 16.672184 1.795251 -12.345832
v 17.093906 1.874786 -12.615310
v 16.734493 2.576583 -12.978768
v 17.540026 2.686449 -13.338181
v 16.597862 2.516035 -13.151628
v 16.056082 1.910948 -12.811213
v 15.968513 1.853074 -13.086135
v 16.017956 1.754609 -13.051733
v 16.096432 1.803478 -12.766616
v 16.325377 1.867227 -12.985038
v 15.559589 0.969555 -13.602041
v 15.641768 0.871539 -13.033984
v 16.254410 1.648253 -13.339145
v 15.730232 0.780063 -13.033984
v 15.663031 0.862151 -13.592651
v 16.198828 0.968761 -13.338181
v 16.909866 0.862151 -14.728018
v 17.701242 0.799873 -14.578398
v 17.093906 0.968761 -14.317549
v 16.919256 0.969555 -14.831460
v 17.096689 1.564072 -14.261031
v 16.491880 1.601921 -13.993201
v 16.482649 1.590971 -12.710419
v 18.014498 1.555123 -13.321922
v 18.328381 0.882788 -14.359423
v 18.709070 0.882788 -13.275351
v 18.338516 0.871539 -12.178140
v 17.167395 0.871539 -11.693045
v 15.996271 0.871539 -12.178140
v 17.925278 1.531549 -13.039653
v 16.786741 3.044852 -13.031015
v 18.210419 1.917708 -13.295061
v 17.931202 1.926289 -12.588708
v 17.162119 1.877185 -14.550499
v 17.393791 3.044852 -13.638065
v 17.493824 3.044852 -13.112191
v 17.197338 3.497234 -13.237151
v 17.242552 3.403603 -13.489714
v 16.941660 3.393436 -13.490426
v 17.264648 3.453307 -13.332723
v 17.948269 1.962160 -13.909758
v 16.673679 1.908748 -14.374626
v 16.094559 1.823634 -13.795548
v 17.093906 2.618073 -12.858060
v 17.098137 2.566084 -13.862694
v 17.415449 2.661309 -13.016637
v 16.477650 2.446333 -13.338181
v 17.705648 0.882788 -14.658461
v 17.773016 1.553084 -12.685912
v 17.770786 1.555416 -13.954855
v 17.114420 1.584999 -12.443421
v 17.093906 0.152962 -13.764754
v 17.093906 0.307695 -13.699677
v 17.349522 0.307695 -13.593797
v 17.395540 0.152962 -13.639813
v 17.455402 0.307695 -13.338181
v 17.520479 0.152962 -13.338181
v 17.349522 0.307695 -13.082564
v 17.395540 0.152962 -13.036548
v 17.093906 0.307695 -12.976685
v 17.093906 0.152962 -12.911608
v 16.838291 0.307695 -13.082564
v 16.792273 0.152962 -13.036548
v 16.732410 0.307695 -13.338181
v 16.667334 0.152962 -13.338181
v 16.838291 0.307695 -13.593797
v 16.792273 0.152962 -13.639813
v 16.526993 0.921357 -13.987241
v 17.116831 0.909898 -12.609096
v 17.619358 0.913028 -12.837707
v 17.744137 0.895691 -13.898850
v 16.562798 0.901231 -12.784739
v 17.888500 0.905749 -13.316383
vt 0.226936 0.879039
vt 0.226936 0.879039
vt 0.226936 0.879039
vt 0.226936 0.879039
vt 0.226936 0.879039
vt 0.226936 0.879039
vt 0.226936 0.879039
vt 0.226936 0.879039
vt 0.226936 0.879039
vt 0.226936 0.879039
vt 0.226936 0.879039
vt 0.226936 0.879039
vt 0.226936 0.879039
vt 0.226936 0.879039
vt 0.226936 0.879039
vt 0.226936 0.879039
vt 0.226936 0.879039
vt 0.226936 0.879039
vt 0.226936 0.879039
vt 0.259458 0.347510
vt 0.259458 0.347510
vt 0.259458 0.347510
vt 0.259458 0.347510
vt 0.259458 0.347510
vt 0.259458 0.347510
vt 0.259458 0.347510
vt 0.259458 0.347510
vt 0.259458 0.347510
vt 0.259458 0.347510
vt 0.259458 0.347510
vt 0.259458 0.347510
vt 0.259458 0.347510
vt 0.259458 0.347510
vt 0.259458 0.347510
vt 0.259458 0.347510
vt 0.259458 0.347510
vt 0.259458 0.347510
vt 0.259458 0.347510
vt 0.259458 0.347510
vt 0.259458 0.347510
vt 0.259458 0.347510
vt 0.259459 0.347510
vt 0.259458 0.347510
vt 0.259458 0.347510
vt 0.259458 0.347510
vt 0.259458 0.347510
vt 0.259458 0.347510
vt 0.259458 0.347510
vt 0.259458 0.347510
vt 0.259458 0.347510
vt 0.259458 0.347510
vt 0.259458 0.347510
vt 0.259458 0.347510
vt 0.259458 0.347510
vt 0.259458 0.347510
vt 0.259458 0.347510
vt 0.259458 0.347510
vt 0.259458 0.347510
vt 0.259458 0.347510
vt 0.259458 0.347510
vt 0.259458 0.347510
vt 0.259458 0.347510
vt 0.259458 0.347510
vt 0.259458 0.347510
vt 0.259458 0.347510
vt 0.259458 0.347510
vt 0.259458 0.347510
vt 0.259458 0.347510
vt 0.259458 0.347510
vt 0.259458 0.347510
vt 0.259458 0.347510
vt 0.259458 0.347510
vt 0.259458 0.347510
vt 0.259458 0.347510
vt 0.259458 0.347510
vt 0.259458 0.347510
vt 0.259458 0.347510
vt 0.259458 0.347510
vt 0.259458 0.347510
vt 0.259458 0.347510
vt 0.259458 0.347510
vt 0.259458 0.347510
vt 0.259458 0.347510
vt 0.259458 0.347510
vt 0.259458 0.347510
vt 0.259458 0.347510
vt 0.259458 0.347510
vt 0.259458 0.347510
vt 0.259458 0.347510
vt 0.259458 0.347510
vt 0.259458 0.347510
vt 0.259458 0.347510
vt 0.259458 0.347510
vt 0.259458 0.347510
vt 0.259458 0.347510
vt 0.259458 0.347510
vt 0.259458 0.347510
vt 0.259458 0.347510
vt 0.259458 0.347510
vt 0.259458 0.347510
vt 0.259458 0.347510
vt 0.259458 0.347510
vt 0.259458 0.347510
vt 0.259458 0.347510
vt 0.259458 0.347510
vt 0.259458 0.347510
vt 0.259458 0.347510
vt 0.259458 0.347510
vt 0.259458 0.347510
vt 0.259458 0.347510
vt 0.259458 0.347510
vt 0.259458 0.347510
vt 0.259458 0.347510
vt 0.259458 0.347510
vt 0.259458 0.347510
vt 0.259458 0.347510
vt 0.259458 0.347510
vt 0.259458 0.347510
vt 0.259458 0.347510
vt 0.259458 0.347510
vt 0.259458 0.347510
vt 0.259458 0.347510
vt 0.259458 0.347510
vt 0.259458 0.347510
vt 0.259458 0.347510
vt 0.259458 0.347510
vt 0.259458 0.347510
vt 0.259458 0.347510
vt 0.259458 0.347510
vt 0.259458 0.347510
vt 0.259458 0.347510
vt 0.259458 0.347510
vt 0.259458 0.347510
vt 0.259458 0.347510
vt 0.259458 0.347510
vt 0.259458 0.347510
vt 0.259458 0.347510
vt 0.259458 0.347510
vt 0.259458 0.347510
vt 0.259458 0.347510
vt 0.259458 0.347510
vt 0.259458 0.347510
vt 0.259458 0.347510
vt 0.259458 0.347510
vt 0.226936 0.879039
vt 0.226936 0.879039
vt 0.226936 0.879039
vt 0.226936 0.879039
vt 0.226936 0.879039
vt 0.226936 0.879039
vt 0.226936 0.879039
vt 0.226936 0.879039
vt 0.226936 0.879039
vt 0.226936 0.879039
vt 0.226936 0.879039
vt 0.226936 0.879039
vt 0.226936 0.879039
vt 0.259458 0.347510
vn 0.3827 0.0106 -0.9238
vn 0.9238 0.0106 -0.3827
vn 0.9238 0.0106 0.3827
vn 0.3827 0.0106 0.9238
vn -0.3827 0.0106 0.9238
vn -0.9238 0.0106 0.3827
vn -0.9238 0.0106 -0.3827
vn -0.3827 0.0106 -0.9238
vn 0.0000 -1.0000 0.0000
vn -0.6889 -0.6663 0.2854
vn -0.2779 0.6856 0.6728
vn -0.3221 -0.6193 -0.7160
vn 0.3216 0.6694 -0.6697
vn 0.0000 -0.9926 -0.1211
vn 0.6834 0.6894 -0.2400
vn 0.1216 0.5192 0.8460
vn 0.0188 -0.9996 0.0208
vn 0.1251 -0.4757 0.8707
vn 0.7065 0.6537 0.2713
vn 0.8441 0.4654 -0.2662
vn 0.5154 -0.8014 -0.3035
vn -0.0625 -0.9866 -0.1510
vn 0.3293 0.4964 0.8032
vn 0.8240 0.4088 0.3925
vn -0.0849 -0.9959 -0.0309
vn 0.0351 -0.9953 0.0904
vn -0.8061 0.4886 0.3339
vn -0.3499 0.4763 -0.8067
vn -0.2086 0.6812 -0.7017
vn -0.8056 0.4896 -0.3337
vn -0.1439 -0.9882 0.0527
vn 0.3362 0.4774 -0.8118
vn 0.0206 -0.9708 -0.2389
vn 0.7336 0.6247 -0.2677
vn 0.3305 0.5039 -0.7980
vn 0.0657 -0.9852 -0.1586
vn 0.0002 -0.9866 -0.1631
vn -0.0097 -0.9997 -0.0235
vn -0.3344 0.4861 0.8074
vn 0.2733 -0.9454 -0.1775
vn 0.2432 -0.9643 -0.1047
vn -0.6676 0.6909 0.2776
vn -0.8032 0.5473 -0.2355
vn -0.2219 -0.6663 -0.7119
vn 0.7036 -0.6662 -0.2471
vn -0.0017 -0.9947 0.1025
vn 0.2854 -0.6663 0.6890
vn -0.2854 -0.6663 0.6890
vn -0.6841 0.6609 0.3086
vn -0.6205 0.7134 -0.3256
vn -0.1117 -0.9937 0.0000
vn -0.0904 -0.9951 -0.0402
vn 0.8292 -0.4943 -0.2609
vn -0.4335 -0.2832 0.8555
vn -0.9022 -0.1751 0.3942
vn -0.7540 -0.5779 0.3123
vn 0.0068 -0.9844 0.1759
vn -0.1881 -0.4750 -0.8596
vn -0.0605 -0.9874 0.1460
vn 0.4343 -0.2885 -0.8533
vn 0.6482 -0.7139 0.2649
vn -0.2756 0.6969 0.6621
vn -0.3123 -0.5779 0.7540
vn 0.3372 -0.9310 0.1397
vn -0.8769 -0.3951 -0.2738
vn -0.2483 0.7082 -0.6609
vn -0.2185 0.1241 0.9679
vn 0.9086 -0.4175 0.0127
vn 0.9625 -0.2674 0.0450
vn -0.3530 0.4387 -0.8264
vn 0.3375 0.4414 -0.8314
vn -0.2950 0.4411 0.8476
vn -0.8138 0.4427 -0.3764
vn 0.8701 0.4212 -0.2558
vn 0.8769 0.4801 -0.0220
vn -0.8306 0.4520 0.3252
vn 0.4452 0.4134 0.7943
vn -0.1918 0.2608 -0.9462
vn 0.9486 0.3054 -0.0834
vn -0.0280 -0.4921 -0.8701
vn 0.3363 -0.5600 -0.7572
vn -0.8471 -0.4770 -0.2343
vn -0.8771 -0.3350 -0.3443
vn -0.5638 -0.2393 0.7905
vn 0.6048 0.2472 0.7570
vn 0.3901 -0.5935 0.7040
vn 0.7928 0.5015 0.3464
vn -0.7879 0.5328 0.3087
vn -0.6965 0.6507 -0.3024
vn 0.4267 0.6596 0.6187
vn -0.3288 0.5117 -0.7938
vn -0.3271 0.4989 0.8025
vn 0.2454 0.6963 -0.6745
vn 0.7927 0.5137 -0.3283
vn 0.2839 -0.9587 0.0178
vn -0.6806 0.7103 0.1795
vn -0.2746 0.1914 0.9423
vn -0.8783 -0.3156 0.3590
vn -0.5410 0.0113 -0.8410
vn 0.0393 -0.9991 -0.0163
vn -0.3917 -0.3788 -0.8385
vn -0.3813 0.0325 0.9239
vn -0.6603 -0.6663 -0.3465
vn 0.2289 -0.0977 0.9685
vn 0.8197 -0.1914 -0.5398
vn 0.3228 -0.6663 -0.6722
vn 0.1804 -0.9687 0.1707
vn -0.1473 -0.9772 0.1531
vn 0.9465 0.0261 -0.3216
vn -0.4500 -0.6078 -0.6542
vn 0.3318 0.4985 0.8009
vn 0.8146 0.4880 -0.3134
vn -0.8281 0.4513 -0.3326
vn 0.3721 0.4597 -0.8063
vn -0.3212 0.5106 -0.7976
vn -0.3403 0.4577 0.8214
vn 0.7832 0.5424 0.3041
vn 0.6609 0.7012 0.2674
vn -0.8332 0.4346 0.3420
vn 0.2744 0.7065 0.6524
vn 0.6533 0.7189 0.2374
vn -0.3012 0.6167 -0.7273
vn -0.3567 0.3622 -0.8611
vn -0.7273 0.6167 -0.3012
vn -0.8612 0.3622 -0.3567
vn -0.7273 0.6167 0.3012
vn -0.8612 0.3622 0.3567
vn -0.3012 0.6167 0.7273
vn -0.3567 0.3622 0.8612
vn 0.3013 0.6167 0.7273
vn 0.3567 0.3622 0.8611
vn 0.7273 0.6167 0.3012
vn 0.8612 0.3622 0.3567
vn 0.7273 0.6167 -0.3012
vn 0.8612 0.3622 -0.3567
vn 0.3012 0.6167 -0.7273
vn 0.3567 0.3622 -0.8612
vn -0.7512 0.5145 0.4136
vn 0.7834 0.5300 0.3245
vn 0.0369 -0.9953 0.0890
vn 0.0897 -0.9949 0.0470
vn 0.2137 -0.9429 -0.2556
vn -0.0689 -0.9872 0.1436
vn -0.6890 -0.6663 0.2854
vn -0.2784 0.6862 0.6721
vn -0.3185 -0.5226 -0.7909
vn 0.3135 0.6717 -0.6712
vn 0.1635 -0.9842 -0.0677
vn 0.6634 0.7034 -0.2551
vn 0.3614 0.5814 0.7289
vn 0.0208 -0.9996 0.0190
vn 0.0370 -0.6079 0.7931
vn 0.7044 0.6324 0.3224
vn 0.8441 0.4657 -0.2656
vn 0.6273 -0.7105 -0.3189
vn 0.3317 0.4986 0.8009
vn -0.0908 -0.9952 -0.0376
vn -0.8184 0.4783 0.3185
vn -0.1916 0.5502 -0.8128
vn -0.3548 0.7062 -0.6127
vn -0.7657 0.5178 -0.3815
vn -0.1367 -0.9890 0.0566
vn 0.3320 0.4796 -0.8123
vn 0.6486 0.6620 -0.3756
vn 0.3448 0.5136 -0.7857
vn 0.0728 -0.9817 -0.1758
vn -0.0724 -0.9963 -0.0463
vn -0.3132 0.4968 0.8094
vn 0.3393 -0.9404 0.0238
vn -0.7015 0.6852 0.1960
vn -0.7946 0.4818 -0.3695
vn 0.7036 -0.6663 -0.2471
vn -0.6841 0.6721 0.2834
vn -0.6162 0.7377 -0.2760
vn -0.0627 -0.9865 0.1514
vn 0.0640 -0.9976 -0.0265
vn 0.8949 -0.2486 -0.3707
vn -0.4120 -0.1517 0.8984
vn -0.8258 -0.3722 0.4237
vn 0.0477 -0.9922 0.1151
vn -0.2574 -0.3095 -0.9154
vn -0.0446 -0.9847 0.1687
vn 0.3293 -0.5096 -0.7949
vn 0.6778 -0.6840 0.2697
vn -0.3002 0.6925 0.6560
vn 0.2837 -0.9428 0.1748
vn -0.8417 -0.4872 -0.2328
vn -0.2038 0.7288 -0.6537
vn 0.0126 -0.4383 0.8988
vn 0.9712 0.1215 -0.2051
vn 0.9148 -0.4032 -0.0229
vn 0.7677 0.5790 0.2746
vn -0.1082 -0.4424 -0.8902
vn 0.8360 -0.5419 -0.0863
vn -0.2067 0.1421 -0.9680
vn 0.2728 -0.6725 -0.6880
vn -0.9434 0.2626 -0.2027
vn -0.8388 -0.4591 -0.2927
vn -0.6278 0.2417 0.7399
vn 0.5504 -0.3500 0.7580
vn 0.3744 -0.6162 0.6929
vn 0.7927 0.5137 0.3283
vn -0.7805 0.5351 0.3233
vn -0.6791 0.6575 -0.3264
vn 0.2390 0.6981 0.6749
vn -0.3595 0.4946 -0.7913
vn -0.3323 0.4959 0.8023
vn 0.2184 0.6903 -0.6898
vn 0.7884 0.4406 -0.4293
vn 0.0669 -0.9959 -0.0614
vn -0.6314 0.7371 0.2409
vn -0.2685 0.3438 0.8998
vn -0.5281 -0.4870 -0.6957
vn -0.4841 0.0384 -0.8742
vn -0.3670 -0.2758 0.8884
vn 0.1388 -0.1857 0.9728
vn 0.7858 -0.2395 -0.5702
vn 0.0296 -0.9951 0.0948
vn 0.8810 -0.3659 -0.3000
vn -0.4758 0.0853 -0.8754
vn 0.3180 0.5153 0.7959
vn 0.7901 0.5183 -0.3273
vn -0.8337 0.4309 -0.3453
vn 0.3284 0.5134 -0.7929
vn -0.3260 0.5237 -0.7870
vn -0.3417 0.4615 0.8187
vn -0.8348 0.4285 0.3458
vn 0.2698 0.7092 0.6514
vn -0.3567 0.3622 -0.8612
vn -0.8611 0.3622 -0.3567
vn -0.8611 0.3622 0.3567
vn 0.3012 0.6167 0.7273
vn 0.3567 0.3622 0.8612
vn 0.8611 0.3622 0.3567
vn 0.8611 0.3622 -0.3567
vn 0.8051 0.5132 0.2973
vn 0.0833 -0.9965 0.0000
vn 0.1301 -0.9819 0.1375
vn -0.1419 -0.9886 0.0498
vn -0.2049 -0.9673 0.1493
usemtl Objects
s off
f 2/1/1 131/2/1 130/3/1
f 4/4/2 133/5/2 131/2/2
f 6/6/3 135/7/3 133/5/3
f 8/8/4 137/9/4 135/7/4
f 10/10/5 139/11/5 137/9/5
f 12/12/6 141/13/6 139/11/6
f 14/14/7 143/15/7 141/13/7
f 16/16/8 130/3/8 143/15/8
f 1/17/9 5/18/9 15/19/9
f 19/20/9 49/21/9 44/22/9
f 37/23/10 89/24/10 91/25/10
f 106/26/11 128/27/11 100/28/11
f 119/29/12 56/30/12 72/31/12
f 125/32/13 127/33/13 102/34/13
f 14/35/14 149/36/14 93/37/14
f 102/34/15 101/38/15 103/39/15
f 62/40/16 65/41/16 47/42/16
f 31/43/9 54/44/9 26/45/9
f 30/46/9 59/47/9 31/43/9
f 20/48/9 58/49/9 30/46/9
f 20/48/17 44/22/17 45/50/17
f 23/51/9 48/52/9 49/21/9
f 47/42/18 61/53/18 62/40/18
f 109/54/19 123/55/19 110/56/19
f 53/57/20 115/58/20 117/59/20
f 118/60/21 52/61/21 68/62/21
f 8/63/22 146/64/22 10/65/22
f 123/55/23 22/66/23 121/67/23
f 114/68/24 117/59/24 17/69/24
f 28/70/25 52/61/25 55/71/25
f 16/72/26 93/37/26 145/73/26
f 108/74/27 66/75/27 43/76/27
f 57/77/28 116/78/28 63/79/28
f 119/29/29 122/80/29 111/81/29
f 74/82/30 19/20/30 20/48/30
f 6/83/31 148/84/31 150/85/31
f 57/77/32 115/58/32 112/86/32
f 8/63/33 38/87/33 147/88/33
f 118/60/34 81/89/34 109/54/34
f 70/90/35 30/46/35 31/43/35
f 10/65/36 149/36/36 12/91/36
f 24/92/37 78/93/37 50/94/37
f 28/70/38 77/95/38 79/96/38
f 47/42/39 64/97/39 108/74/39
f 71/98/40 73/99/40 21/100/40
f 18/101/41 85/102/41 42/103/41
f 84/104/42 124/105/42 41/106/42
f 43/76/43 116/78/43 46/107/43
f 94/108/44 39/109/44 97/110/44
f 34/111/45 102/34/45 103/39/45
f 72/31/46 21/100/46 73/99/46
f 36/112/47 104/113/47 105/114/47
f 36/112/48 106/26/48 37/23/48
f 89/24/49 100/28/49 90/115/49
f 88/116/50 99/117/50 39/109/50
f 148/84/51 2/118/51 96/119/51
f 25/120/52 68/62/52 52/61/52
f 53/57/53 59/47/53 112/86/53
f 51/121/54 78/93/54 75/122/54
f 22/66/9 61/53/9 48/52/9
f 51/121/55 86/123/55 50/94/55
f 43/76/56 49/21/56 108/74/56
f 29/124/57 72/31/57 56/30/57
f 57/77/58 45/50/58 46/107/58
f 29/124/59 67/125/59 32/126/59
f 57/77/60 59/47/60 58/49/60
f 110/56/61 52/61/61 109/54/61
f 26/45/9 60/127/9 27/128/9
f 75/122/62 80/129/62 51/121/62
f 108/74/63 48/52/63 47/42/63
f 18/101/64 71/98/64 21/100/64
f 43/76/65 45/50/65 44/22/65
f 97/110/66 99/117/66 98/130/66
f 27/128/67 113/131/67 114/68/67
f 27/128/68 62/40/68 61/53/68
f 53/57/69 60/127/69 54/44/69
f 63/79/70 116/78/70 17/69/70
f 115/58/71 63/79/71 17/69/71
f 64/97/72 65/41/72 17/69/72
f 116/78/73 66/75/73 17/69/73
f 117/59/74 115/58/74 17/69/74
f 117/59/75 113/131/75 53/57/75
f 66/75/76 64/97/76 17/69/76
f 65/41/77 114/68/77 17/69/77
f 73/99/78 120/132/78 74/82/78
f 32/126/79 69/133/79 70/90/79
f 32/126/80 118/60/80 68/62/80
f 111/81/81 67/125/81 56/30/81
f 73/99/82 119/29/82 72/31/82
f 41/106/83 71/98/83 42/103/83
f 76/134/84 79/96/84 77/95/84
f 75/122/85 79/96/85 121/67/85
f 76/134/86 55/71/86 110/56/86
f 81/89/87 27/128/87 123/55/87
f 82/135/88 19/20/88 124/105/88
f 124/105/89 120/132/89 41/106/89
f 123/55/90 76/134/90 110/56/90
f 122/80/91 20/48/91 30/46/91
f 121/67/92 23/51/92 80/129/92
f 122/80/93 69/133/93 111/81/93
f 81/89/94 31/43/94 26/45/94
f 87/136/95 50/94/95 86/123/95
f 51/121/96 82/135/96 83/137/96
f 87/136/97 84/104/97 85/102/97
f 84/104/98 42/103/98 85/102/98
f 87/136/99 83/137/99 82/135/99
f 24/92/100 87/136/100 18/101/100
f 89/24/101 93/37/101 91/25/101
f 88/116/102 93/37/102 90/115/102
f 92/138/103 39/109/103 40/139/103
f 34/111/104 107/140/104 38/87/104
f 35/141/105 107/140/105 104/113/105
f 95/142/106 102/34/106 33/143/106
f 145/73/107 94/108/107 96/119/107
f 38/87/108 150/85/108 34/111/108
f 96/119/109 97/110/109 98/130/109
f 96/119/110 125/32/110 95/142/110
f 128/27/111 28/70/111 79/96/111
f 127/33/112 25/120/112 101/38/112
f 90/115/113 21/100/113 99/117/113
f 98/130/114 32/126/114 127/33/114
f 99/117/115 29/124/115 98/130/115
f 100/28/116 79/96/116 24/92/116
f 126/144/117 107/140/117 28/70/117
f 101/38/118 107/140/118 103/39/118
f 24/92/119 90/115/119 100/28/119
f 105/114/120 126/144/120 128/27/120
f 104/113/121 107/140/121 126/144/121
f 5/18/9 13/145/9 15/19/9
f 7/146/9 11/147/9 13/145/9
f 15/19/122 129/148/122 1/17/122
f 144/149/123 130/3/123 129/148/123
f 13/145/124 144/149/124 15/19/124
f 142/150/125 143/15/125 144/149/125
f 11/147/126 142/150/126 13/145/126
f 140/151/127 141/13/127 142/150/127
f 138/152/128 11/147/128 9/153/128
f 137/9/129 140/151/129 138/152/129
f 136/154/130 9/153/130 7/146/130
f 135/7/131 138/152/131 136/154/131
f 134/155/132 7/146/132 5/18/132
f 133/5/133 136/154/133 134/155/133
f 132/156/134 5/18/134 3/157/134
f 131/2/135 134/155/135 132/156/135
f 129/148/136 3/157/136 1/17/136
f 129/148/137 131/2/137 132/156/137
f 23/51/138 82/135/138 80/129/138
f 107/140/139 25/120/139 28/70/139
f 145/73/140 2/118/140 16/72/140
f 146/64/36 37/23/36 149/36/36
f 145/73/141 92/138/141 40/139/141
f 149/36/142 91/25/142 93/37/142
f 147/88/33 38/87/33 35/141/33
f 148/84/31 34/111/31 150/85/31
f 147/88/22 36/112/22 146/64/22
f 148/84/143 95/142/143 33/143/143
f 38/87/108 6/83/108 150/85/108
f 2/1/1 4/4/1 131/2/1
f 4/4/2 6/6/2 133/5/2
f 6/6/3 8/8/3 135/7/3
f 8/8/4 10/10/4 137/9/4
f 10/10/5 12/12/5 139/11/5
f 12/12/6 14/14/6 141/13/6
f 14/14/7 16/16/7 143/15/7
f 16/16/8 2/1/8 130/3/8
f 1/17/9 3/157/9 5/18/9
f 19/20/9 23/51/9 49/21/9
f 37/23/144 106/26/144 89/24/144
f 106/26/145 105/114/145 128/27/145
f 119/29/146 111/81/146 56/30/146
f 125/32/147 98/130/147 127/33/147
f 14/35/148 12/91/148 149/36/148
f 102/34/149 127/33/149 101/38/149
f 62/40/150 114/68/150 65/41/150
f 31/43/9 59/47/9 54/44/9
f 30/46/9 58/49/9 59/47/9
f 20/48/151 45/50/151 58/49/151
f 20/48/9 19/20/9 44/22/9
f 23/51/9 22/66/9 48/52/9
f 47/42/152 48/52/152 61/53/152
f 109/54/153 81/89/153 123/55/153
f 53/57/154 112/86/154 115/58/154
f 118/60/155 109/54/155 52/61/155
f 8/63/22 147/88/22 146/64/22
f 123/55/156 27/128/156 22/66/156
f 28/70/157 25/120/157 52/61/157
f 16/72/9 14/35/9 93/37/9
f 108/74/158 64/97/158 66/75/158
f 57/77/159 46/107/159 116/78/159
f 119/29/160 74/82/160 122/80/160
f 74/82/161 124/105/161 19/20/161
f 6/83/162 4/158/162 148/84/162
f 57/77/163 63/79/163 115/58/163
f 118/60/164 70/90/164 81/89/164
f 70/90/165 122/80/165 30/46/165
f 10/65/36 146/64/36 149/36/36
f 24/92/166 79/96/166 78/93/166
f 28/70/167 55/71/167 77/95/167
f 47/42/168 65/41/168 64/97/168
f 18/101/169 87/136/169 85/102/169
f 84/104/170 82/135/170 124/105/170
f 43/76/171 66/75/171 116/78/171
f 94/108/44 40/139/44 39/109/44
f 34/111/172 33/143/172 102/34/172
f 36/112/47 35/141/47 104/113/47
f 36/112/48 105/114/48 106/26/48
f 89/24/173 106/26/173 100/28/173
f 88/116/174 90/115/174 99/117/174
f 148/84/175 4/158/175 2/118/175
f 25/120/176 32/126/176 68/62/176
f 53/57/177 54/44/177 59/47/177
f 51/121/178 50/94/178 78/93/178
f 22/66/9 27/128/9 61/53/9
f 51/121/55 83/137/55 86/123/55
f 43/76/179 44/22/179 49/21/179
f 29/124/180 21/100/180 72/31/180
f 57/77/181 58/49/181 45/50/181
f 29/124/182 56/30/182 67/125/182
f 57/77/183 112/86/183 59/47/183
f 110/56/184 55/71/184 52/61/184
f 26/45/9 54/44/9 60/127/9
f 75/122/185 121/67/185 80/129/185
f 108/74/63 49/21/63 48/52/63
f 18/101/186 42/103/186 71/98/186
f 43/76/187 46/107/187 45/50/187
f 97/110/188 39/109/188 99/117/188
f 27/128/189 60/127/189 113/131/189
f 27/128/190 114/68/190 62/40/190
f 53/57/191 113/131/191 60/127/191
f 117/59/192 114/68/192 113/131/192
f 73/99/193 71/98/193 120/132/193
f 32/126/194 67/125/194 69/133/194
f 32/126/195 70/90/195 118/60/195
f 111/81/196 69/133/196 67/125/196
f 73/99/197 74/82/197 119/29/197
f 41/106/198 120/132/198 71/98/198
f 76/134/199 121/67/199 79/96/199
f 75/122/200 78/93/200 79/96/200
f 76/134/201 77/95/201 55/71/201
f 81/89/202 26/45/202 27/128/202
f 82/135/203 23/51/203 19/20/203
f 124/105/204 74/82/204 120/132/204
f 123/55/205 121/67/205 76/134/205
f 122/80/206 74/82/206 20/48/206
f 121/67/207 22/66/207 23/51/207
f 122/80/208 70/90/208 69/133/208
f 81/89/209 70/90/209 31/43/209
f 87/136/210 24/92/210 50/94/210
f 51/121/211 80/129/211 82/135/211
f 87/136/212 82/135/212 84/104/212
f 84/104/98 41/106/98 42/103/98
f 87/136/213 86/123/213 83/137/213
f 89/24/214 90/115/214 93/37/214
f 88/116/215 92/138/215 93/37/215
f 92/138/103 88/116/103 39/109/103
f 34/111/216 103/39/216 107/140/216
f 35/141/217 38/87/217 107/140/217
f 95/142/106 125/32/106 102/34/106
f 145/73/218 40/139/218 94/108/218
f 96/119/219 94/108/219 97/110/219
f 96/119/220 98/130/220 125/32/220
f 128/27/221 126/144/221 28/70/221
f 127/33/222 32/126/222 25/120/222
f 90/115/223 18/101/223 21/100/223
f 98/130/224 29/124/224 32/126/224
f 99/117/225 21/100/225 29/124/225
f 100/28/226 128/27/226 79/96/226
f 24/92/227 18/101/227 90/115/227
f 105/114/228 104/113/228 126/144/228
f 5/18/9 7/146/9 13/145/9
f 7/146/9 9/153/9 11/147/9
f 15/19/122 144/149/122 129/148/122
f 144/149/229 143/15/229 130/3/229
f 13/145/124 142/150/124 144/149/124
f 142/150/230 141/13/230 143/15/230
f 11/147/126 140/151/126 142/150/126
f 140/151/231 139/11/231 141/13/231
f 138/152/128 140/151/128 11/147/128
f 137/9/129 139/11/129 140/151/129
f 136/154/232 138/152/232 9/153/232
f 135/7/233 137/9/233 138/152/233
f 134/155/132 136/154/132 7/146/132
f 133/5/234 135/7/234 136/154/234
f 132/156/134 134/155/134 5/18/134
f 131/2/235 133/5/235 134/155/235
f 129/148/136 132/156/136 3/157/136
f 129/148/137 130/3/137 131/2/137
f 107/140/236 101/38/236 25/120/236
f 145/73/237 96/119/237 2/118/237
f 146/64/36 36/112/36 37/23/36
f 145/73/238 93/37/238 92/138/238
f 149/36/148 37/23/148 91/25/148
f 148/84/239 33/143/239 34/111/239
f 147/88/22 35/141/22 36/112/22
f 148/84/240 96/119/240 95/142/240
f 38/87/9 8/63/9 6/83/9
