# Blender v3.0.0 OBJ File: 'Winter Forrest Pack.blend'
# www.blender.org
mtllib winter-tree1.mtl
o Cylinder.016_Cylinder.017
v 3.710862 0.000000 -8.255680
v 4.011364 0.000000 -8.131207
v 4.135836 0.000000 -7.830706
v 4.011364 0.000000 -7.530204
v 3.745512 2.280078 -6.960036
v 3.710862 0.000000 -7.405732
v 3.801809 2.310145 -6.973385
v 3.410360 0.000000 -7.530204
v 3.908492 2.254407 -6.956652
v 3.285888 0.000000 -7.830706
v 3.410360 0.000000 -8.131207
v 4.681707 2.407479 -8.301375
v 4.649621 2.450221 -8.363443
v 4.705237 2.425153 -8.224937
v 4.706428 2.492892 -8.178906
v 4.684582 2.571014 -8.190246
v 4.652497 2.613756 -8.252314
v 4.628967 2.596081 -8.328752
v 4.627776 2.528343 -8.374783
v 3.904302 2.193213 -6.937846
v 3.855487 2.165964 -6.915031
v 3.745805 2.222063 -6.931048
v 3.870382 2.309391 -6.973138
v 3.784352 2.169028 -6.906565
v 2.730580 2.127155 -7.954715
v 2.677889 2.148818 -7.834429
v 2.821497 2.199554 -7.869874
v 2.822136 2.099020 -7.808537
v 2.752063 2.059173 -7.896451
v 2.776293 2.181434 -7.914389
v 2.837569 2.175331 -7.829124
v 3.710862 1.585376 -8.130656
v 3.787068 1.747723 -8.153335
v 3.914844 1.695100 -8.091469
v 3.844011 1.530462 -8.068642
v 3.967761 1.697416 -7.905892
v 3.898146 1.691479 -7.790123
v 3.899163 1.532751 -7.878851
v 3.569541 1.644506 -8.075897
v 3.489643 1.786239 -8.105651
v 3.649277 1.806269 -8.101321
v 3.959532 1.875487 -7.816340
v 3.891610 1.872425 -7.701504
v 3.796847 1.667258 -7.633224
v 3.797853 1.506673 -7.715689
v 3.871367 1.999807 -7.805105
v 3.802667 1.996579 -7.691900
v 3.617496 1.662166 -7.568262
v 3.613469 1.498426 -7.646714
v 3.513357 1.768988 -7.664838
v 3.417922 1.750930 -7.772688
v 3.502274 1.607459 -7.745403
v 3.742583 1.986384 -7.862947
v 3.512792 1.974133 -7.869757
v 3.655946 1.981641 -7.716259
v 3.432845 1.626115 -7.954726
v 3.512533 1.483787 -7.924935
v 3.565612 1.929033 -8.005099
v 3.721963 1.947380 -8.003702
v 3.549096 1.951324 -7.675233
v 3.457093 1.940265 -7.784842
v 4.259423 2.149898 -8.170980
v 4.177882 2.185001 -8.224213
v 4.093458 2.238034 -8.202352
v 4.292562 2.162079 -8.054203
v 4.260745 2.251988 -7.984450
v 4.095181 2.315366 -8.127802
v 4.188320 2.328342 -7.977408
v 4.104968 2.334393 -8.027213
v 3.214940 2.060885 -8.064831
v 3.058660 1.901474 -8.427814
v 3.127625 1.844634 -8.009574
v 3.145043 1.934006 -7.879861
v 3.198961 2.055749 -7.889923
v 3.234784 2.078978 -7.957045
v 3.898218 2.021426 -7.297659
v 3.897201 2.114502 -7.319078
v 3.824329 1.975839 -7.254633
v 3.834550 2.198509 -7.332976
v 3.704877 1.975118 -7.224858
v 3.727087 2.187336 -7.351295
v 3.636432 2.051303 -7.283271
v 3.647923 2.158293 -7.313876
v 3.790698 2.318036 -6.771278
v 3.850494 2.359020 -6.793413
v 3.900881 2.299294 -6.773313
v 3.843867 2.260837 -6.752076
v 4.857565 2.583455 -8.388959
v 4.895452 2.532986 -8.315670
v 4.875805 2.518228 -8.379491
v 4.877212 2.598212 -8.325138
v 3.338610 2.014385 -8.043765
v 3.267112 1.898142 -8.117459
v 3.235266 1.767570 -7.990231
v 3.241278 1.869441 -7.842065
v 3.289995 2.015022 -7.852864
v 3.332828 2.042003 -7.926261
v 3.040593 2.001709 -8.081003
v 3.032415 1.899023 -7.980896
v 3.063181 1.975839 -7.861780
v 3.107343 2.086065 -7.874509
v 3.130010 2.109546 -7.934946
v 3.103736 2.091446 -8.026691
v 3.230719 1.903596 -8.176495
v 3.127572 1.860357 -8.075603
v 3.193990 2.036800 -8.128832
v 3.050695 1.989085 -8.125325
v 3.002330 1.921746 -8.446801
v 3.003619 1.882727 -8.407325
v 3.029660 1.956257 -8.431729
v 2.978450 1.940657 -8.399137
v 3.710862 0.253206 -8.137820
v 3.913116 0.247701 -8.055864
v 3.511287 0.266586 -8.053017
v 3.997118 0.256991 -7.842874
v 3.905521 0.261624 -7.633554
v 3.419982 0.248832 -7.851772
v 3.691882 0.263995 -7.545974
v 3.496602 0.277881 -7.643296
v 3.954263 0.123745 -8.077346
v 4.055253 0.124139 -7.826940
v 3.950025 0.122535 -7.578809
v 3.699725 0.122300 -7.475482
v 3.460773 0.130473 -7.584478
v 3.710862 0.128190 -8.176398
v 3.469805 0.133128 -8.073978
v 3.363337 0.120402 -7.832606
v 3.710862 0.898908 -8.166719
v 3.537925 0.881049 -8.095701
v 3.466258 0.859586 -7.918046
v 3.878564 0.872730 -8.093053
v 3.948141 0.889712 -7.892284
v 3.851687 0.889317 -7.705667
v 3.652676 0.890718 -7.627323
v 3.499196 0.890823 -7.722077
vt 0.005383 0.918411
vt 0.005383 0.918411
vt 0.005383 0.918412
vt 0.005383 0.918411
vt 0.005383 0.918411
vt 0.005383 0.918412
vt 0.005383 0.918411
vt 0.005383 0.918412
vt 0.005383 0.918411
vt 0.005383 0.918411
vt 0.005383 0.918411
vt 0.005383 0.918411
vt 0.005383 0.918412
vt 0.005383 0.918411
vt 0.005383 0.918411
vt 0.005383 0.918411
vt 0.005383 0.918411
vt 0.005383 0.918412
vt 0.005383 0.918411
vt 0.005383 0.918412
vt 0.005383 0.918411
vt 0.005383 0.918411
vt 0.005383 0.918412
vt 0.005383 0.918411
vt 0.005383 0.918412
vt 0.005383 0.918411
vt 0.005383 0.918411
vt 0.005383 0.918411
vt 0.005383 0.918412
vt 0.005383 0.918411
vt 0.005383 0.918411
vt 0.005383 0.918412
vt 0.005383 0.918411
vt 0.005383 0.918411
vt 0.005383 0.918411
vt 0.005383 0.918412
vt 0.005383 0.918411
vt 0.005383 0.918411
vt 0.005383 0.918411
vt 0.005383 0.918411
vt 0.005383 0.918412
vt 0.005383 0.918411
vt 0.005383 0.918411
vt 0.005383 0.918411
vt 0.005383 0.918411
vt 0.005383 0.918412
vt 0.005383 0.918411
vt 0.005383 0.918411
vt 0.005383 0.918411
vt 0.005383 0.918412
vt 0.005383 0.918412
vt 0.005383 0.918411
vt 0.005383 0.918411
vt 0.005383 0.918411
vt 0.005383 0.918412
vt 0.005383 0.918411
vt 0.005383 0.918411
vt 0.005383 0.918412
vt 0.005383 0.918411
vt 0.005383 0.918411
vt 0.005383 0.918411
vt 0.005383 0.918411
vt 0.005383 0.918412
vt 0.005383 0.918411
vt 0.005383 0.918411
vt 0.005383 0.918411
vt 0.005383 0.918411
vt 0.005383 0.918411
vt 0.005383 0.918411
vt 0.005383 0.918411
vt 0.005383 0.918411
vt 0.005383 0.918412
vt 0.005383 0.918411
vt 0.005383 0.918411
vt 0.005383 0.918411
vt 0.005383 0.918412
vt 0.005383 0.918411
vt 0.005383 0.918411
vt 0.005383 0.918411
vt 0.005383 0.918411
vt 0.005383 0.918412
vt 0.005383 0.918411
vt 0.005383 0.918412
vt 0.005383 0.918411
vt 0.005383 0.918411
vt 0.005383 0.918411
vt 0.005383 0.918411
vt 0.005383 0.918411
vt 0.005383 0.918411
vt 0.005383 0.918412
vt 0.005383 0.918411
vt 0.005383 0.918412
vt 0.005383 0.918411
vt 0.005383 0.918412
vt 0.005383 0.918411
vt 0.005383 0.918411
vt 0.005383 0.918411
vt 0.005383 0.918411
vt 0.005383 0.918412
vt 0.005383 0.918412
vt 0.005383 0.918411
vt 0.005383 0.918412
vt 0.005383 0.918411
vt 0.005383 0.918411
vt 0.005383 0.918411
vt 0.005383 0.918412
vt 0.005383 0.918411
vt 0.005383 0.918411
vt 0.005383 0.918411
vt 0.005383 0.918411
vt 0.005383 0.918412
vt 0.005383 0.918411
vt 0.005383 0.918411
vt 0.005383 0.918411
vt 0.005383 0.918411
vt 0.005383 0.918411
vt 0.005383 0.918411
vt 0.005383 0.918412
vt 0.005383 0.918412
vt 0.005383 0.918411
vt 0.005383 0.918411
vt 0.005383 0.918411
vt 0.005383 0.918412
vt 0.005383 0.918412
vt 0.005383 0.918411
vt 0.005383 0.918412
vt 0.005383 0.918412
vt 0.005383 0.918412
vt 0.005383 0.918411
vt 0.005383 0.918411
vt 0.005383 0.918412
vt 0.005383 0.918411
vt 0.005383 0.918412
vt 0.005383 0.918411
vt 0.005383 0.918411
vn -0.3837 0.0484 -0.9222
vn 0.5450 -0.8380 0.0260
vn 0.0116 0.9553 -0.2955
vn 0.0245 -0.8564 0.5157
vn -0.8091 -0.3895 0.4401
vn -0.4961 0.8498 -0.1781
vn -0.9672 0.1096 0.2290
vn -0.1199 0.5744 -0.8097
vn -0.1782 -0.1900 -0.9655
vn 0.0000 -1.0000 0.0000
vn 0.5080 -0.8603 0.0425
vn -0.4972 -0.6498 -0.5749
vn 0.8851 0.0846 0.4576
vn 0.3475 0.8598 0.3741
vn 0.9414 0.0618 -0.3315
vn 0.4088 0.0553 -0.9109
vn 0.5547 -0.4743 0.6836
vn 0.3662 0.0470 0.9294
vn 0.5771 -0.7340 0.3580
vn -0.5253 -0.0067 0.8509
vn 0.9998 0.0063 -0.0199
vn 0.0228 -0.8633 0.5042
vn 0.8315 0.5466 -0.0993
vn -0.4814 0.8744 -0.0606
vn 0.2262 0.0218 0.9738
vn -0.2298 0.8427 0.4869
vn -0.9281 0.0648 -0.3666
vn 0.3018 0.2003 0.9321
vn -0.3408 0.9394 -0.0363
vn -0.4807 0.8752 -0.0544
vn 0.2223 0.9425 -0.2496
vn -0.2713 -0.7755 0.5702
vn -0.5214 0.5982 -0.6085
vn -0.9853 0.0747 0.1537
vn 0.7969 0.5548 -0.2390
vn -0.0774 0.2742 0.9585
vn -0.5521 0.7442 -0.3759
vn -0.3546 -0.7124 0.6056
vn -0.8254 -0.4944 -0.2725
vn -0.1546 0.8213 0.5492
vn 0.8319 -0.2667 0.4866
vn 0.0491 -0.1786 -0.9827
vn -0.6944 -0.2824 0.6618
vn -0.0533 0.9986 0.0008
vn 0.3163 -0.2625 -0.9116
vn 0.8784 -0.4071 -0.2504
vn 0.8305 -0.2503 0.4976
vn -0.3421 0.0294 -0.9392
vn 0.8425 -0.2104 0.4958
vn 0.3201 -0.4157 0.8513
vn 0.7456 0.4877 0.4540
vn -0.7797 -0.2358 0.5800
vn -0.0915 0.9954 -0.0272
vn -0.0619 0.5892 -0.8056
vn -0.0405 0.9431 -0.3301
vn -0.7504 0.1958 0.6313
vn -0.8664 -0.4330 0.2488
vn -0.5542 -0.4583 -0.6948
vn -0.3125 0.9350 0.1679
vn 0.2508 -0.7319 -0.6336
vn 0.3624 -0.4200 -0.8320
vn -0.6875 0.6180 -0.3814
vn -0.7113 0.7001 -0.0632
vn 0.3006 0.1991 0.9327
vn -0.3591 0.6771 0.6423
vn 0.7011 -0.2654 0.6619
vn -0.2249 0.0432 -0.9734
vn 0.7843 -0.5993 -0.1601
vn -0.5655 -0.6687 0.4827
vn 0.3984 0.8971 -0.1912
vn -0.2663 0.1596 0.9506
vn 0.2213 0.8790 0.4223
vn -0.8430 -0.5234 -0.1240
vn 0.2917 0.3777 -0.8788
vn 0.7430 0.5606 -0.3657
vn 0.9979 0.0538 -0.0362
vn 0.6442 -0.6151 0.4546
vn -0.9719 0.1550 0.1770
vn -0.3877 0.8333 -0.3941
vn -0.8009 -0.3279 0.5010
vn 0.1644 -0.7495 0.6412
vn -0.0071 0.8718 -0.4898
vn 0.0116 0.9642 -0.2650
vn -0.9719 0.1012 0.2123
vn 0.6094 -0.6655 0.4309
vn 0.9972 -0.0517 0.0540
vn 0.0853 0.3817 0.9203
vn -0.6974 -0.4653 0.5451
vn 0.5817 -0.4641 0.6680
vn 0.5278 0.2647 0.8071
vn 0.2135 0.8527 0.4768
vn -0.0051 0.9746 -0.2238
vn -0.1831 0.5547 -0.8116
vn -0.0249 -0.1504 -0.9883
vn 0.1851 -0.7621 -0.6205
vn 0.9200 0.2091 -0.3315
vn 0.3072 0.4332 -0.8473
vn -0.2805 -0.6339 -0.7208
vn 0.2097 0.8717 0.4428
vn -0.2914 0.1212 0.9489
vn -0.5754 -0.6958 0.4299
vn -0.2710 -0.7753 0.5705
vn 0.3479 0.8225 0.4500
vn 0.8176 0.3970 -0.4170
vn 0.1965 -0.9578 -0.2096
vn 0.2603 -0.9504 -0.1702
vn -0.3161 -0.6214 -0.7169
vn -0.5190 -0.5751 -0.6324
vn -0.3060 0.8950 -0.3246
vn -0.3354 0.9389 -0.0776
vn -0.8660 -0.4027 0.2964
vn 0.7597 0.3945 -0.5170
vn -0.0192 -0.7114 -0.7025
vn -0.8875 -0.3419 -0.3090
vn -0.5370 0.6566 -0.5296
vn 0.3563 0.1224 -0.9263
vn -0.8782 0.3455 0.3308
vn -0.8703 0.3291 -0.3665
vn -0.3695 0.3974 0.8399
vn 0.3429 0.4370 0.8315
vn 0.3666 0.2757 -0.8886
vn 0.8722 0.3394 -0.3523
vn 0.8389 0.4095 0.3584
vn -0.3736 0.2561 -0.8915
vn -0.3323 0.4961 -0.8022
vn 0.7964 0.5069 0.3299
vn 0.7947 0.5100 -0.3292
vn 0.3312 0.5009 -0.7996
vn 0.3342 0.4873 0.8068
vn -0.3434 0.4415 0.8290
vn -0.7963 0.5070 -0.3298
vn -0.7921 0.5147 0.3281
vn -0.9380 0.1069 0.3298
vn -0.9112 0.0244 -0.4113
vn -0.4392 0.0886 0.8940
vn 0.3770 0.1376 0.9159
vn 0.3745 -0.0344 -0.9266
vn 0.9288 0.0431 -0.3682
vn 0.9101 0.1235 0.3955
vn -0.3933 -0.0467 -0.9182
vn -0.3469 0.0387 -0.9371
vn 0.5077 -0.8598 -0.0544
vn -0.0479 0.9527 -0.3001
vn 0.1239 -0.8706 0.4761
vn -0.8111 -0.3872 0.4384
vn -0.4164 0.8889 -0.1911
vn -0.9617 0.1657 0.2183
vn -0.0617 0.6282 -0.7756
vn -0.2809 -0.0522 -0.9583
vn 0.5080 -0.8603 0.0426
vn -0.5190 -0.5751 -0.6323
vn 0.8445 0.0532 0.5329
vn 0.3362 0.8284 0.4480
vn 0.9570 0.0787 -0.2791
vn 0.4376 0.0472 -0.8979
vn 0.5504 -0.3814 0.7427
vn 0.3478 0.0523 0.9361
vn 0.6268 -0.7072 0.3271
vn -0.6483 0.0276 0.7609
vn 0.9976 -0.0696 -0.0042
vn 0.7757 0.6252 -0.0868
vn -0.5801 0.8121 -0.0636
vn 0.2294 0.2100 0.9504
vn -0.1246 0.7859 0.6056
vn -0.9501 0.0473 -0.3084
vn 0.2898 0.2164 0.9323
vn -0.4888 0.8646 -0.1160
vn 0.0890 0.8877 -0.4517
vn -0.2714 -0.7767 0.5684
vn -0.5201 0.4863 -0.7022
vn -0.9983 0.0024 -0.0587
vn 0.8302 0.5041 -0.2380
vn 0.3234 -0.2781 -0.9045
vn 0.8778 -0.4116 -0.2452
vn 0.8381 -0.2621 0.4785
vn -0.3516 0.0262 -0.9358
vn 0.8438 -0.2112 0.4934
vn 0.3333 -0.4290 0.8396
vn 0.7376 0.4927 0.4617
vn -0.7709 -0.2597 0.5816
vn -0.0971 0.9950 -0.0252
vn -0.0527 0.5935 -0.8031
vn -0.1106 0.9618 -0.2503
vn -0.7619 0.1847 0.6209
vn -0.8557 -0.4569 0.2431
vn -0.5551 -0.4563 -0.6954
vn -0.2149 0.9646 0.1532
vn 0.1722 -0.6803 -0.7124
vn 0.2695 -0.3840 -0.8831
vn -0.6813 0.5158 -0.5193
vn -0.7106 0.6979 -0.0893
vn 0.3313 0.1508 0.9314
vn -0.3424 0.6738 0.6549
vn 0.7090 -0.2904 0.6427
vn -0.3133 0.1014 -0.9442
vn 0.7614 -0.6135 -0.2095
vn -0.6089 -0.6126 0.5039
vn 0.3760 0.9001 -0.2203
vn -0.2889 0.2052 0.9351
vn 0.1943 0.8785 0.4364
vn -0.8501 -0.5248 -0.0443
vn 0.7753 0.5185 -0.3606
vn 0.9998 0.0066 -0.0188
vn 0.7276 -0.5700 0.3818
vn -0.9661 0.1987 0.1646
vn -0.4620 0.8182 -0.3423
vn -0.7980 -0.3304 0.5041
vn 0.2399 -0.7609 0.6028
vn -0.0074 0.8718 -0.4899
vn 0.5862 -0.6753 0.4476
vn 0.0788 0.3823 0.9207
vn -0.8074 -0.3774 0.4536
vn 0.9200 0.2091 -0.3316
vn 0.2499 0.4041 -0.8799
vn -0.2943 -0.5982 -0.7454
vn 0.1811 0.8669 0.4645
vn -0.3047 0.1715 0.9369
vn 0.3712 0.9147 -0.1599
vn -0.6119 -0.6399 0.4648
vn -0.2705 -0.7757 0.5701
vn 0.1963 0.9605 -0.1974
vn 0.1682 0.0070 0.9857
vn 0.3369 0.8196 0.4634
vn 0.8011 0.3849 -0.4583
vn 0.1903 -0.9550 -0.2276
vn 0.2473 -0.9561 -0.1569
vn -0.2899 0.9231 -0.2525
vn -0.3167 0.9452 -0.0795
vn -0.8587 -0.4155 0.3000
vn 0.7659 0.3677 -0.5274
vn -0.8684 0.4219 0.2604
vn -0.8708 0.3282 -0.3661
vn -0.3804 0.4210 0.8234
vn 0.3460 0.4332 0.8323
vn 0.3676 0.2742 -0.8886
vn 0.8663 0.3494 -0.3569
vn 0.8389 0.4100 0.3580
vn -0.3603 0.2751 -0.8914
vn -0.3315 0.4936 -0.8040
vn 0.7825 0.5247 0.3352
vn 0.7903 0.5227 -0.3196
vn 0.3351 0.4956 -0.8013
vn 0.3323 0.4899 0.8060
vn -0.3524 0.4723 0.8080
vn -0.8023 0.4991 -0.3276
vn -0.8363 0.4521 0.3101
vn -0.9865 0.0250 0.1618
vn -0.9279 0.0143 -0.3726
vn -0.5220 0.1109 0.8457
vn 0.3634 0.1422 0.9207
vn 0.3965 -0.0410 -0.9171
vn 0.9435 0.0325 -0.3297
vn 0.8834 0.1041 0.4568
vn -0.3759 -0.0414 -0.9257
usemtl Objects
s off
f 129/1/1 32/2/1 128/3/1
f 65/4/2 12/5/2 14/6/2
f 79/7/3 7/8/3 23/9/3
f 80/10/4 21/11/4 24/12/4
f 80/10/5 22/13/5 82/14/5
f 81/15/6 5/16/6 7/8/6
f 83/17/7 22/13/7 5/16/7
f 98/18/8 30/19/8 103/20/8
f 63/21/9 19/22/9 13/23/9
f 2/24/10 11/25/10 1/26/10
f 12/5/11 89/27/11 14/6/11
f 98/18/12 29/28/12 25/29/12
f 132/30/13 45/31/13 133/32/13
f 101/33/14 27/34/14 31/35/14
f 35/36/15 132/30/15 131/37/15
f 128/3/16 35/36/16 131/37/16
f 66/38/17 14/6/17 15/39/17
f 45/31/18 134/40/18 133/32/18
f 78/41/19 20/42/19 21/11/19
f 49/43/20 135/44/20 134/40/20
f 77/45/21 20/42/21 76/46/21
f 24/12/22 21/11/22 87/47/22
f 23/9/23 86/48/23 9/49/23
f 84/50/24 7/8/24 5/16/24
f 101/33/25 28/51/25 100/52/25
f 68/53/26 17/54/26 69/55/26
f 57/56/27 129/1/27 130/57/27
f 66/38/28 16/58/28 68/53/28
f 26/59/29 27/34/29 30/19/29
f 67/60/30 17/54/30 18/61/30
f 103/20/31 27/34/31 102/62/31
f 100/52/32 29/28/32 99/63/32
f 67/60/33 19/22/33 64/64/33
f 135/44/34 57/56/34 130/57/34
f 79/7/35 9/49/35 77/45/35
f 26/59/36 28/51/36 31/35/36
f 30/19/37 25/29/37 26/59/37
f 29/28/38 28/51/38 26/59/38
f 25/29/39 29/28/39 26/59/39
f 31/35/40 27/34/40 26/59/40
f 36/65/41 37/66/41 38/67/41
f 39/68/42 40/69/42 41/70/42
f 50/71/43 51/72/43 52/73/43
f 53/74/44 54/75/44 55/76/44
f 32/2/45 34/77/45 35/36/45
f 35/36/46 36/65/46 38/67/46
f 45/31/47 37/66/47 44/78/47
f 32/2/48 41/70/48 33/79/48
f 42/80/49 37/66/49 36/65/49
f 49/43/50 44/78/50 48/81/50
f 46/82/51 43/83/51 42/80/51
f 52/73/52 48/81/52 50/71/52
f 53/74/53 47/84/53 46/82/53
f 41/70/54 58/85/54 59/86/54
f 53/74/55 58/85/55 54/75/55
f 50/71/56 61/87/56 51/72/56
f 52/73/57 56/88/57 57/56/57
f 39/68/58 56/88/58 40/69/58
f 60/89/59 54/75/59 61/87/59
f 62/90/60 13/23/60 12/5/60
f 34/77/61 63/21/61 62/90/61
f 59/86/62 64/64/62 41/70/62
f 59/86/63 69/55/63 67/60/63
f 46/82/64 66/38/64 68/53/64
f 46/82/65 69/55/65 53/74/65
f 42/80/66 65/4/66 66/38/66
f 33/79/67 64/64/67 63/21/67
f 36/65/68 62/90/68 65/4/68
f 95/91/69 72/92/69 94/93/69
f 92/94/70 75/95/70 97/96/70
f 96/97/71 73/98/71 95/91/71
f 96/97/72 75/95/72 74/99/72
f 98/18/73 105/100/73 72/92/73
f 92/94/74 93/101/74 70/102/74
f 47/84/75 77/45/75 43/83/75
f 43/83/76 76/46/76 37/66/76
f 44/78/77 76/46/77 78/41/77
f 60/89/78 82/14/78 83/17/78
f 60/89/79 81/15/79 55/76/79
f 48/81/80 82/14/80 50/71/80
f 48/81/81 78/41/81 80/10/81
f 47/84/82 81/15/82 79/7/82
f 7/8/83 85/103/83 23/9/83
f 84/50/84 5/16/84 22/13/84
f 21/11/85 86/48/85 87/47/85
f 86/48/86 20/42/86 9/49/86
f 85/103/87 87/47/87 86/48/87
f 84/50/88 24/12/88 87/47/88
f 14/6/89 89/27/89 15/39/89
f 15/39/90 91/104/90 16/58/90
f 16/58/91 91/104/91 17/54/91
f 91/104/92 18/61/92 17/54/92
f 18/61/93 88/105/93 19/22/93
f 19/22/94 90/106/94 13/23/94
f 13/23/95 90/106/95 12/5/95
f 88/105/96 89/27/96 90/106/96
f 40/69/97 92/94/97 58/85/97
f 40/69/98 94/93/98 93/101/98
f 61/87/99 97/96/99 96/97/99
f 61/87/100 95/91/100 51/72/100
f 54/75/70 92/94/70 97/96/70
f 51/72/101 94/93/101 56/88/101
f 73/98/102 99/63/102 72/92/102
f 75/95/31 103/20/31 102/62/31
f 73/98/25 101/33/25 100/52/25
f 74/99/103 102/62/103 101/33/103
f 93/101/104 106/107/104 70/102/104
f 93/101/105 105/100/105 104/108/105
f 104/108/106 109/109/106 71/110/106
f 72/92/107 93/101/107 94/93/107
f 98/18/108 72/92/108 99/63/108
f 98/18/8 103/20/8 70/102/8
f 98/18/109 106/107/109 107/111/109
f 107/111/110 110/112/110 111/113/110
f 107/111/111 109/109/111 105/100/111
f 104/108/112 110/112/112 106/107/112
f 71/110/113 109/109/113 108/114/113
f 108/114/114 109/109/114 111/113/114
f 110/112/115 108/114/115 111/113/115
f 110/112/116 71/110/116 108/114/116
f 119/115/117 127/116/117 124/117/117
f 117/118/118 126/119/118 127/116/118
f 118/120/119 124/117/119 123/121/119
f 116/122/120 123/121/120 122/123/120
f 125/124/121 113/125/121 120/126/121
f 120/126/122 115/127/122 121/128/122
f 121/128/123 116/122/123 122/123/123
f 114/129/124 125/124/124 126/119/124
f 11/25/125 125/124/125 1/26/125
f 121/128/126 4/130/126 3/131/126
f 120/126/127 3/131/127 2/24/127
f 1/26/128 120/126/128 2/24/128
f 122/123/129 6/132/129 4/130/129
f 123/121/130 8/133/130 6/132/130
f 127/116/131 11/25/131 10/134/131
f 8/133/132 127/116/132 10/134/132
f 119/115/133 130/57/133 117/118/133
f 130/57/134 114/129/134 117/118/134
f 134/40/135 119/115/135 118/120/135
f 133/32/136 118/120/136 116/122/136
f 112/135/137 131/37/137 113/125/137
f 113/125/138 132/30/138 115/127/138
f 115/127/139 133/32/139 116/122/139
f 129/1/140 112/135/140 114/129/140
f 2/24/10 8/133/10 10/134/10
f 3/131/10 6/132/10 8/133/10
f 129/1/141 39/68/141 32/2/141
f 65/4/142 62/90/142 12/5/142
f 79/7/143 81/15/143 7/8/143
f 80/10/144 78/41/144 21/11/144
f 80/10/145 24/12/145 22/13/145
f 81/15/146 83/17/146 5/16/146
f 83/17/147 82/14/147 22/13/147
f 98/18/148 25/29/148 30/19/148
f 63/21/149 64/64/149 19/22/149
f 2/24/10 10/134/10 11/25/10
f 12/5/150 90/106/150 89/27/150
f 98/18/151 99/63/151 29/28/151
f 132/30/152 38/67/152 45/31/152
f 101/33/153 102/62/153 27/34/153
f 35/36/154 38/67/154 132/30/154
f 128/3/155 32/2/155 35/36/155
f 66/38/156 65/4/156 14/6/156
f 45/31/157 49/43/157 134/40/157
f 78/41/158 76/46/158 20/42/158
f 49/43/159 52/73/159 135/44/159
f 77/45/160 9/49/160 20/42/160
f 23/9/161 85/103/161 86/48/161
f 84/50/162 85/103/162 7/8/162
f 101/33/163 31/35/163 28/51/163
f 68/53/164 16/58/164 17/54/164
f 57/56/165 39/68/165 129/1/165
f 66/38/166 15/39/166 16/58/166
f 67/60/167 69/55/167 17/54/167
f 103/20/168 30/19/168 27/34/168
f 100/52/169 28/51/169 29/28/169
f 67/60/170 18/61/170 19/22/170
f 135/44/171 52/73/171 57/56/171
f 79/7/172 23/9/172 9/49/172
f 32/2/173 33/79/173 34/77/173
f 35/36/174 34/77/174 36/65/174
f 45/31/175 38/67/175 37/66/175
f 32/2/176 39/68/176 41/70/176
f 42/80/177 43/83/177 37/66/177
f 49/43/178 45/31/178 44/78/178
f 46/82/179 47/84/179 43/83/179
f 52/73/180 49/43/180 48/81/180
f 53/74/181 55/76/181 47/84/181
f 41/70/182 40/69/182 58/85/182
f 53/74/183 59/86/183 58/85/183
f 50/71/184 60/89/184 61/87/184
f 52/73/185 51/72/185 56/88/185
f 39/68/186 57/56/186 56/88/186
f 60/89/187 55/76/187 54/75/187
f 62/90/188 63/21/188 13/23/188
f 34/77/189 33/79/189 63/21/189
f 59/86/190 67/60/190 64/64/190
f 59/86/191 53/74/191 69/55/191
f 46/82/192 42/80/192 66/38/192
f 46/82/193 68/53/193 69/55/193
f 42/80/194 36/65/194 65/4/194
f 33/79/195 41/70/195 64/64/195
f 36/65/196 34/77/196 62/90/196
f 95/91/197 73/98/197 72/92/197
f 92/94/198 70/102/198 75/95/198
f 96/97/199 74/99/199 73/98/199
f 96/97/200 97/96/200 75/95/200
f 98/18/201 107/111/201 105/100/201
f 47/84/202 79/7/202 77/45/202
f 43/83/203 77/45/203 76/46/203
f 44/78/204 37/66/204 76/46/204
f 60/89/205 50/71/205 82/14/205
f 60/89/206 83/17/206 81/15/206
f 48/81/207 80/10/207 82/14/207
f 48/81/208 44/78/208 78/41/208
f 47/84/209 55/76/209 81/15/209
f 21/11/210 20/42/210 86/48/210
f 85/103/211 84/50/211 87/47/211
f 84/50/212 22/13/212 24/12/212
f 15/39/90 89/27/90 91/104/90
f 91/104/92 88/105/92 18/61/92
f 19/22/94 88/105/94 90/106/94
f 88/105/213 91/104/213 89/27/213
f 40/69/214 93/101/214 92/94/214
f 40/69/215 56/88/215 94/93/215
f 61/87/216 54/75/216 97/96/216
f 61/87/217 96/97/217 95/91/217
f 54/75/218 58/85/218 92/94/218
f 51/72/219 95/91/219 94/93/219
f 73/98/220 100/52/220 99/63/220
f 75/95/221 70/102/221 103/20/221
f 73/98/222 74/99/222 101/33/222
f 74/99/223 75/95/223 102/62/223
f 93/101/224 104/108/224 106/107/224
f 93/101/225 72/92/225 105/100/225
f 104/108/226 105/100/226 109/109/226
f 98/18/227 70/102/227 106/107/227
f 107/111/228 106/107/228 110/112/228
f 107/111/229 111/113/229 109/109/229
f 104/108/230 71/110/230 110/112/230
f 119/115/231 117/118/231 127/116/231
f 117/118/232 114/129/232 126/119/232
f 118/120/233 119/115/233 124/117/233
f 116/122/234 118/120/234 123/121/234
f 125/124/235 112/135/235 113/125/235
f 120/126/236 113/125/236 115/127/236
f 121/128/237 115/127/237 116/122/237
f 114/129/238 112/135/238 125/124/238
f 11/25/239 126/119/239 125/124/239
f 121/128/240 122/123/240 4/130/240
f 120/126/241 121/128/241 3/131/241
f 1/26/242 125/124/242 120/126/242
f 122/123/243 123/121/243 6/132/243
f 123/121/244 124/117/244 8/133/244
f 127/116/245 126/119/245 11/25/245
f 8/133/246 124/117/246 127/116/246
f 119/115/247 135/44/247 130/57/247
f 130/57/248 129/1/248 114/129/248
f 134/40/249 135/44/249 119/115/249
f 133/32/250 134/40/250 118/120/250
f 112/135/251 128/3/251 131/37/251
f 113/125/252 131/37/252 132/30/252
f 115/127/253 132/30/253 133/32/253
f 129/1/254 128/3/254 112/135/254
f 2/24/10 3/131/10 8/133/10
f 3/131/10 4/130/10 6/132/10
