# Blender v3.0.0 OBJ File: 'Winter Forrest Pack.blend'
# www.blender.org
mtllib winter-tree6.mtl
o Cylinder.005_Cylinder.009
v -0.431697 -0.000054 -14.930534
v -0.154914 1.121894 -14.881840
v -0.194680 -0.000054 -15.189194
v -0.012683 1.114601 -15.044621
v 0.156031 -0.000054 -15.204588
v 0.177148 1.097735 -15.058037
v 0.414775 -0.000054 -14.967684
v 0.300891 1.075647 -14.932504
v 0.430495 -0.000054 -14.617667
v 0.306900 1.056479 -14.741214
v 0.193251 -0.000054 -14.358802
v 0.184441 1.065272 -14.590705
v -0.157735 -0.000054 -14.343021
v -0.003199 1.090035 -14.564260
v -0.416394 -0.000054 -14.580038
v -0.148867 1.111386 -14.679795
v 0.208617 2.033542 -15.048942
v -0.237718 2.237457 -14.834750
v 0.329750 1.937164 -15.063304
v 0.430621 1.852767 -14.964152
v 0.434769 1.833448 -14.815384
v 0.354966 1.878057 -14.689279
v 0.234996 1.976786 -14.671538
v -0.184780 2.253404 -14.894176
v 0.704631 2.855276 -15.507118
v 0.702980 2.968690 -15.469204
v 0.835470 2.821031 -15.524333
v 0.919714 2.770281 -15.440207
v 0.949106 2.780460 -15.333413
v 1.209413 3.264912 -14.719270
v 1.205542 3.198190 -14.740540
v 0.706030 2.949233 -15.342720
v 1.194481 3.496751 -16.269861
v 1.188123 3.526040 -16.242168
v 1.226214 3.473560 -16.280220
v 1.283107 3.476015 -16.231041
v 1.276507 3.507308 -16.207405
v 1.245169 3.532964 -16.197973
v 1.208412 3.539155 -16.209682
v 0.983555 2.939840 -15.416531
v 0.854360 2.779687 -15.230880
v 0.736925 2.829026 -15.222626
v 0.864414 3.002280 -15.408216
v 1.163701 3.217052 -14.673000
v 1.113264 3.256740 -14.730907
v 1.131229 3.229140 -14.670750
v 1.178507 3.280829 -14.716475
v 0.084981 1.926800 -14.915160
v 0.180560 2.171678 -14.979084
v 0.179363 2.048807 -14.988450
v 0.194711 2.142113 -14.812587
v 0.099584 1.898291 -14.741381
v -0.176786 2.321831 -14.868693
v -0.191138 2.280415 -14.740656
v -0.181791 2.335910 -14.803821
v -0.241630 2.243873 -14.780521
v -0.420758 2.442266 -14.925664
v -0.426276 2.454549 -14.904636
v -0.393787 2.470373 -14.938651
v -0.391934 2.437069 -14.951078
v -0.406122 2.477296 -14.893156
v -0.399852 2.482410 -14.920105
v 1.259179 3.465115 -16.265217
v 1.232288 3.584903 -16.316591
v 1.270504 3.552336 -16.330009
v 1.239052 3.559709 -16.344307
v 1.265226 3.577331 -16.301689
v -0.244081 0.252279 -14.874646
v -0.096912 0.250637 -15.036956
v 0.116207 0.247164 -15.047456
v 0.269766 0.242404 -14.904102
v 0.278756 0.238855 -14.690992
v 0.135930 0.240287 -14.531346
v -0.076829 0.245104 -14.517725
v -0.235285 0.249913 -14.658882
v -0.132725 0.125082 -15.089515
v 0.128580 0.123555 -15.101676
v 0.319145 0.121313 -14.925531
v 0.330519 0.120034 -14.664495
v 0.154564 0.120397 -14.470210
v -0.106627 0.122316 -14.456019
v -0.300116 0.124720 -14.630880
v -0.311214 0.125903 -14.893700
v 0.864414 3.015745 -15.408216
v 0.194711 2.155578 -14.812587
v -0.181791 2.349375 -14.803821
v -0.182469 2.313913 -14.755522
v -0.382965 2.488532 -14.900843
v 1.178162 3.288293 -14.737530
v 1.125515 3.270822 -14.749419
v 0.658478 2.907033 -15.381156
v 0.688066 2.950428 -15.344455
v 0.730435 2.962360 -15.345834
v 1.239031 3.534813 -16.181778
v 1.252508 3.519470 -16.189133
v 1.219042 3.539063 -16.187553
v 0.965525 2.963657 -15.415114
v 0.695397 2.846100 -15.242698
v 1.185191 3.279647 -14.735838
v 0.187344 2.186600 -14.958795
v 0.222860 2.048430 -14.712377
v -0.175430 2.336763 -14.847096
v -0.382053 2.486587 -14.912896
v -0.383907 2.481270 -14.914848
v -0.185073 2.256145 -14.770808
v -0.389401 2.442258 -14.916129
v 1.171727 3.242019 -14.752816
v 1.119080 3.224547 -14.764706
v 0.652042 2.860759 -15.396442
v 0.681630 2.904154 -15.359741
v -0.188227 2.303101 -14.819107
v 1.232596 3.488539 -16.197065
v 1.246073 3.473195 -16.204418
v 1.212607 3.492789 -16.202839
v 0.724000 2.916086 -15.361120
v 0.959090 2.917382 -15.430401
v 0.857979 2.969471 -15.423502
v 1.178756 3.233373 -14.751124
v 0.688962 2.799825 -15.257984
v 0.206445 1.983266 -14.727663
v 0.188276 2.109304 -14.827873
v 0.180909 2.140326 -14.974081
v -0.181865 2.290489 -14.862383
v -0.388489 2.440313 -14.928183
v -0.390342 2.434996 -14.930134
v 0.495342 1.974180 -15.027147
v 0.502831 1.958764 -14.883933
v 0.274254 2.142281 -15.109571
v 0.396671 2.054125 -15.124311
v 0.301416 2.089561 -14.744463
v 0.421050 1.997368 -14.760948
v 0.302857 1.789231 -15.062376
v 0.407759 1.715815 -14.958574
v 0.324915 1.734820 -14.671907
v 0.193019 1.820513 -14.652633
v 0.412235 1.696522 -14.802313
v 0.169617 1.871597 -15.048181
vt 0.007445 0.840278
vt 0.007445 0.840278
vt 0.007445 0.840278
vt 0.007445 0.840278
vt 0.007445 0.840278
vt 0.007445 0.840278
vt 0.007445 0.840278
vt 0.007445 0.840278
vt 0.007445 0.840278
vt 0.007445 0.840278
vt 0.007445 0.840278
vt 0.007445 0.840278
vt 0.007445 0.840278
vt 0.007445 0.840278
vt 0.007445 0.840278
vt 0.007445 0.840278
vt 0.007445 0.840278
vt 0.007445 0.840278
vt 0.007445 0.840278
vt 0.007445 0.840278
vt 0.007445 0.840278
vt 0.007445 0.840278
vt 0.007445 0.840278
vt 0.007445 0.840278
vt 0.007445 0.840278
vt 0.007445 0.840278
vt 0.007445 0.840278
vt 0.007445 0.840278
vt 0.007445 0.840278
vt 0.007445 0.840278
vt 0.007445 0.840278
vt 0.007445 0.840278
vt 0.007445 0.840278
vt 0.007445 0.840278
vt 0.007445 0.840278
vt 0.007445 0.840278
vt 0.007445 0.840278
vt 0.007445 0.840278
vt 0.007445 0.840278
vt 0.007445 0.840278
vt 0.007445 0.840278
vt 0.007445 0.840278
vt 0.007445 0.840278
vt 0.007445 0.840278
vt 0.007445 0.840278
vt 0.007445 0.840278
vt 0.007445 0.840278
vt 0.007445 0.840278
vt 0.007445 0.840278
vt 0.007445 0.840278
vt 0.007445 0.840278
vt 0.007445 0.840278
vt 0.007445 0.840278
vt 0.007445 0.840278
vt 0.007445 0.840278
vt 0.007445 0.840278
vt 0.007445 0.840278
vt 0.007445 0.840278
vt 0.007445 0.840278
vt 0.007445 0.840278
vt 0.007445 0.840278
vt 0.007445 0.840278
vt 0.007445 0.840278
vt 0.007445 0.840278
vt 0.007445 0.840278
vt 0.007445 0.840278
vt 0.007445 0.840278
vt 0.007445 0.840278
vt 0.007445 0.840278
vt 0.007445 0.840278
vt 0.007445 0.840278
vt 0.007445 0.840278
vt 0.007445 0.840278
vt 0.007445 0.840278
vt 0.007445 0.840278
vt 0.007445 0.840278
vt 0.007445 0.840278
vt 0.007445 0.840278
vt 0.007445 0.840278
vt 0.007445 0.840278
vt 0.007445 0.840278
vt 0.007445 0.840278
vt 0.007445 0.840278
vt 0.007445 0.840278
vt 0.007445 0.840278
vt 0.007445 0.840278
vt 0.007445 0.840278
vt 0.007445 0.840278
vt 0.007445 0.840278
vt 0.007445 0.840278
vt 0.007445 0.840278
vt 0.007445 0.840278
vt 0.007445 0.840278
vt 0.007445 0.840278
vt 0.994219 0.682788
vt 0.994219 0.682788
vt 0.994219 0.682788
vt 0.994219 0.682788
vt 0.994219 0.682788
vt 0.994219 0.682788
vt 0.994219 0.682788
vt 0.994219 0.682788
vt 0.994219 0.682788
vt 0.994219 0.682788
vt 0.994219 0.682788
vt 0.994219 0.682788
vt 0.994219 0.682788
vt 0.994219 0.682788
vt 0.994219 0.682788
vt 0.994219 0.682788
vt 0.994219 0.682788
vt 0.994219 0.682788
vt 0.994219 0.682788
vt 0.994219 0.682788
vt 0.994219 0.682788
vt 0.994219 0.682788
vt 0.994219 0.682788
vt 0.994219 0.682788
vt 0.994219 0.682788
vt 0.994219 0.682788
vt 0.994219 0.682788
vt 0.994219 0.682788
vt 0.994219 0.682788
vt 0.994219 0.682788
vt 0.994219 0.682788
vt 0.994219 0.682788
vt 0.994219 0.682788
vt 0.994219 0.682788
vt 0.994219 0.682788
vt 0.994219 0.682788
vt 0.994219 0.682788
vt 0.994219 0.682788
vt 0.994219 0.682788
vt 0.994219 0.682788
vt 0.994219 0.682788
vt 0.994219 0.682788
vt 0.007445 0.840278
vn -0.7386 0.0702 -0.6704
vn -0.0493 -0.0041 -0.9988
vn 0.6807 -0.0503 -0.7308
vn 0.9984 -0.0370 -0.0427
vn 0.7453 0.0041 0.6667
vn 0.0649 0.0492 0.9967
vn 0.6460 -0.1384 -0.7507
vn -0.6603 0.0985 0.7445
vn -0.9940 0.1007 0.0416
vn 0.0000 -1.0000 0.0000
vn 0.1982 0.0651 0.9780
vn 0.9848 -0.1667 -0.0488
vn 0.4862 0.3291 -0.8095
vn -0.0987 0.0117 -0.9950
vn 0.8231 -0.1050 0.5581
vn -0.2746 0.6434 0.7146
vn -0.7988 0.5914 0.1102
vn 0.1326 -0.7843 -0.6060
vn 0.8124 -0.1056 0.5734
vn 0.8504 -0.5166 -0.1001
vn -0.2124 -0.3536 -0.9110
vn 0.7992 -0.2242 0.5577
vn 0.3926 0.6645 0.6358
vn 0.3035 -0.5613 -0.7700
vn -0.8599 0.2049 -0.4675
vn -0.5537 -0.4424 -0.7055
vn -0.8820 0.1378 -0.4506
vn -0.6637 0.7389 0.1162
vn -0.0592 0.8409 0.5379
vn 0.7918 -0.5890 -0.1618
vn -0.5612 -0.4606 -0.6877
vn -0.5528 0.2449 0.7966
vn 0.3776 0.3357 0.8630
vn 0.3531 -0.8213 0.4481
vn -0.2439 -0.6940 0.6774
vn -0.8595 0.2334 0.4548
vn 0.9464 -0.0423 0.3202
vn -0.3953 0.7844 0.4779
vn 0.2458 0.5064 0.8266
vn 0.9340 -0.3017 -0.1914
vn 0.3644 0.7932 -0.4878
vn -0.2885 0.9264 -0.2420
vn -0.3717 -0.2496 -0.8942
vn -0.1342 0.3596 -0.9234
vn -0.6998 -0.7120 -0.0580
vn -0.7885 0.1424 -0.5983
vn 0.1914 0.7231 0.6637
vn -0.5269 0.0384 0.8490
vn 0.4492 0.8797 -0.1563
vn -0.4282 -0.3273 0.8423
vn 0.3587 0.6549 0.6652
vn -0.6159 0.2451 -0.7487
vn -0.7368 0.6747 -0.0434
vn -0.7216 0.4487 -0.5272
vn 0.6313 0.7284 -0.2663
vn -0.4455 -0.6821 -0.5799
vn -0.7701 -0.6178 0.1587
vn 0.1985 -0.6009 -0.7743
vn 0.8007 -0.4207 -0.4264
vn 0.9816 0.1895 0.0233
vn 0.6495 0.6456 0.4018
vn 0.0278 0.9171 0.3977
vn -0.6926 0.7061 0.1475
vn -0.9015 0.1775 -0.3947
vn 0.4199 0.7202 -0.5522
vn -0.8837 0.4664 0.0394
vn -0.5937 0.4558 0.6632
vn 0.0520 0.4383 0.8973
vn 0.6744 0.4159 0.6100
vn 0.9192 0.3919 -0.0381
vn 0.6348 0.3628 -0.6822
vn -0.0404 0.3956 -0.9175
vn -0.6617 0.4427 -0.6050
vn -0.5473 0.6701 -0.5015
vn -0.0339 0.6329 -0.7735
vn 0.5366 0.6071 -0.5861
vn 0.7747 0.6314 -0.0348
vn 0.5585 0.6528 0.5118
vn 0.0333 0.6705 0.7412
vn -0.4947 0.6810 0.5399
vn -0.7247 0.6883 0.0316
vn -0.3067 0.6534 0.6921
vn -0.8324 0.5539 0.0162
vn 0.3874 0.6677 0.6357
vn -0.0921 0.8456 0.5259
vn 0.7282 0.5004 -0.4683
vn -0.2502 0.9321 -0.2617
vn 0.2604 0.7765 0.5738
vn 0.4459 0.8748 -0.1894
vn 0.3810 0.6830 0.6232
vn 0.5369 0.1195 -0.8351
vn 0.1553 -0.6010 -0.7840
vn 0.7840 -0.5980 -0.1664
vn -0.3874 -0.6677 -0.6357
vn 0.0921 -0.8456 -0.5259
vn -0.3715 -0.7865 0.4934
vn 0.4325 -0.8852 0.1713
vn -0.1640 -0.7126 -0.6821
vn -0.4207 -0.8915 -0.1680
vn -0.3495 -0.6134 -0.7082
vn -0.5948 -0.7910 0.1431
vn -0.1368 0.3278 -0.9348
vn 0.4393 0.2261 -0.8694
vn 0.3183 0.2572 -0.9124
vn 0.9838 -0.0847 -0.1577
vn 0.8800 -0.2548 0.4009
vn -0.9019 0.2433 -0.3568
vn -0.1509 0.3289 -0.9322
vn -0.8121 -0.0781 0.5783
vn -0.6626 -0.1502 0.7337
vn 0.9567 -0.2022 0.2095
vn -0.2548 -0.2366 0.9376
vn -0.1155 -0.2971 0.9479
vn -0.9802 0.1699 -0.1016
vn 0.6816 0.1423 -0.7178
vn -0.4719 -0.2166 0.8546
vn -0.1636 -0.2886 0.9434
vn -0.8389 0.2723 -0.4712
vn 0.9557 -0.0364 -0.2921
vn 0.2942 -0.5590 -0.7752
vn -0.3304 -0.2810 -0.9011
vn 0.8536 -0.5131 -0.0904
vn 0.8199 -0.1175 0.5604
vn -0.1908 0.6098 0.7693
vn -0.5573 0.2382 0.7954
vn -0.7376 0.1746 -0.6523
vn 0.7704 -0.0850 0.6318
vn -0.0699 0.0065 -0.9975
vn 0.9849 -0.1666 -0.0476
vn 0.1875 0.0682 0.9799
vn -0.9491 0.2881 0.1270
vn 0.6919 -0.1443 -0.7074
vn -0.7498 0.0673 -0.6582
vn -0.0711 -0.0073 -0.9974
vn 0.7057 -0.0593 -0.7061
vn 0.9986 -0.0385 -0.0352
vn 0.7760 0.0120 0.6307
vn 0.1473 0.0624 0.9871
vn 0.6422 -0.1215 -0.7568
vn -0.6121 0.0805 0.7867
vn -0.9941 0.1022 0.0351
vn 0.1936 0.0780 0.9780
vn 0.9848 -0.1664 -0.0491
vn 0.4640 0.2610 -0.8465
vn -0.1021 0.0199 -0.9946
vn 0.8172 -0.0800 0.5707
vn -0.7764 0.6059 0.1736
vn 0.0859 -0.7757 -0.6252
vn 0.7343 -0.0278 0.6783
vn 0.8275 -0.5329 -0.1769
vn -0.3258 -0.3027 -0.8957
vn 0.6074 0.5216 0.5992
vn 0.3673 -0.5866 -0.7217
vn -0.7703 0.2413 -0.5903
vn -0.8882 0.1988 -0.4142
vn -0.6518 0.7471 0.1306
vn -0.0331 0.8369 0.5464
vn 0.6947 -0.6650 -0.2743
vn -0.2636 -0.6482 -0.7144
vn 0.2317 0.4034 0.8852
vn 0.4281 -0.8155 0.3894
vn -0.2163 -0.7065 0.6738
vn -0.8655 0.3041 0.3980
vn 0.9452 -0.0351 0.3246
vn 0.3216 0.4812 0.8155
vn 0.9431 0.0501 -0.3288
vn 0.3781 0.7865 -0.4884
vn -0.3839 0.9019 -0.1978
vn -0.6012 -0.4543 -0.6574
vn -0.2095 0.0763 -0.9748
vn -0.7130 -0.7004 0.0314
vn -0.8039 0.1780 -0.5675
vn 0.4365 0.8599 0.2647
vn -0.6017 -0.0390 0.7978
vn 0.4168 0.9004 0.1245
vn -0.3257 -0.2495 0.9119
vn 0.3616 0.6732 0.6450
vn -0.7564 0.4586 -0.4664
vn 0.5880 0.7987 -0.1280
vn -0.5422 -0.6945 -0.4729
vn -0.7584 -0.6515 0.0224
vn 0.2083 -0.6036 -0.7696
vn 0.9823 0.1863 0.0186
vn 0.0302 0.9165 0.3989
vn -0.9039 0.1827 -0.3867
vn 0.4170 0.7186 -0.5565
vn -0.8849 0.4639 0.0412
vn -0.5776 0.4741 0.6645
vn 0.0671 0.4615 0.8846
vn 0.6754 0.4281 0.6004
vn 0.9234 0.3823 -0.0326
vn 0.6378 0.3788 -0.6706
vn -0.0387 0.3981 -0.9165
vn -0.6622 0.4421 -0.6049
vn -0.5470 0.6703 -0.5015
vn -0.0322 0.6353 -0.7716
vn 0.5360 0.6210 -0.5720
vn 0.7798 0.6252 -0.0309
vn 0.5573 0.6603 0.5035
vn 0.0445 0.6860 0.7262
vn -0.4770 0.6955 0.5374
vn -0.7271 0.6857 0.0338
vn -0.2340 0.6306 0.7400
vn -0.7840 0.5980 0.1664
vn 0.7399 0.3856 0.5512
vn 0.0136 0.8272 0.5617
vn 0.3715 0.7865 -0.4934
vn -0.4325 0.8852 -0.1713
vn 0.5940 0.8001 -0.0842
vn 0.4207 0.8915 0.1680
vn 0.3929 0.7386 0.5478
vn 0.5948 0.7910 -0.1431
vn 0.3067 -0.6535 -0.6921
vn 0.8324 -0.5539 -0.0162
vn -0.7398 -0.3857 -0.5513
vn -0.0137 -0.8272 -0.5617
vn -0.7282 -0.5004 0.4683
vn 0.2502 -0.9321 0.2617
vn -0.5940 -0.8001 0.0841
vn -0.4459 -0.8748 0.1894
vn -0.3645 -0.6794 -0.6368
vn -0.5367 -0.1194 0.8353
vn 0.3182 0.2572 -0.9125
vn 0.8895 -0.3041 0.3411
vn -0.9019 0.2433 -0.3569
vn -0.6660 -0.1626 0.7281
vn -0.2235 -0.1689 0.9600
vn -0.1155 -0.2971 0.9478
vn -0.9802 0.1698 -0.1016
vn -0.4722 -0.2166 0.8544
vn -0.1639 -0.2886 0.9433
vn -0.8952 0.0425 -0.4436
vn 0.3837 0.3100 0.8699
vn 0.2948 -0.5691 -0.7676
vn 0.8558 -0.5077 -0.0994
vn 0.8080 -0.1237 0.5761
vn -0.5791 0.2494 0.7762
vn -0.7834 0.2092 -0.5853
vn -0.0948 0.0182 -0.9953
vn 0.9849 -0.1664 -0.0488
vn 0.1504 0.0879 0.9847
vn -0.9517 0.3039 0.0443
vn 0.6530 -0.1234 -0.7472
usemtl Objects
s off
f 2/1/1 69/2/1 68/3/1
f 4/4/2 70/5/2 69/2/2
f 70/5/3 8/6/3 71/7/3
f 71/7/4 10/8/4 72/9/4
f 72/9/5 12/10/5 73/11/5
f 73/11/6 14/12/6 74/13/6
f 132/14/7 20/15/7 133/16/7
f 14/12/8 75/17/8 74/13/8
f 16/18/9 68/3/9 75/17/9
f 1/19/10 13/20/10 15/21/10
f 135/22/11 22/23/11 23/24/11
f 133/16/12 21/25/12 136/26/12
f 53/27/13 60/28/13 59/29/13
f 137/30/14 19/31/14 132/14/14
f 134/32/15 21/25/15 22/23/15
f 51/33/16 42/34/16 32/35/16
f 49/36/17 32/35/17 26/37/17
f 27/38/18 63/39/18 28/40/18
f 127/41/19 41/42/19 131/43/19
f 126/44/20 29/45/20 127/41/20
f 129/46/21 25/47/21 27/38/21
f 30/48/22 44/49/22 31/50/22
f 40/51/23 38/52/23 43/53/23
f 129/46/24 28/40/24 126/44/24
f 137/30/25 50/54/25 17/55/25
f 33/56/26 66/57/26 35/58/26
f 26/37/27 33/56/27 25/47/27
f 26/37/28 39/59/28 34/60/28
f 43/53/29 39/59/29 32/35/29
f 28/40/30 36/61/30 29/45/30
f 27/38/31 33/56/31 35/58/31
f 52/62/32 135/22/32 23/24/32
f 131/43/33 42/34/33 130/63/33
f 41/42/34 31/50/34 44/49/34
f 41/42/35 46/64/35 42/34/35
f 42/34/36 45/65/36 32/35/36
f 40/51/37 36/61/37 37/66/37
f 46/64/38 47/67/38 45/65/38
f 44/49/39 47/67/39 46/64/39
f 40/51/40 31/50/40 29/45/40
f 40/51/41 47/67/41 30/48/41
f 43/53/42 45/65/42 47/67/42
f 48/68/43 24/69/43 50/54/43
f 49/36/44 24/69/44 53/27/44
f 52/62/45 18/70/45 48/68/45
f 49/36/46 25/47/46 128/71/46
f 55/72/47 61/73/47 54/74/47
f 56/75/48 61/73/48 58/76/48
f 51/33/49 53/27/49 55/72/49
f 52/62/50 54/74/50 56/75/50
f 51/33/51 54/74/51 23/24/51
f 57/77/52 59/29/52 60/28/52
f 62/78/53 58/76/53 61/73/53
f 57/77/54 62/78/54 59/29/54
f 55/72/55 59/29/55 62/78/55
f 18/70/56 60/28/56 24/69/56
f 18/70/57 58/76/57 57/77/57
f 35/58/58 65/79/58 63/39/58
f 63/39/59 65/79/59 36/61/59
f 36/61/60 67/80/60 37/66/60
f 37/66/61 67/80/61 38/52/61
f 67/80/62 39/59/62 38/52/62
f 39/59/63 64/81/63 34/60/63
f 64/81/64 33/56/64 34/60/64
f 64/81/65 65/79/65 66/57/65
f 3/82/10 11/83/10 13/20/10
f 11/83/10 7/84/10 9/85/10
f 75/17/66 83/86/66 82/87/66
f 81/88/67 75/17/67 82/87/67
f 80/89/68 74/13/68 81/88/68
f 79/90/69 73/11/69 80/89/69
f 78/91/70 72/9/70 79/90/70
f 70/5/71 78/91/71 77/92/71
f 69/2/72 77/92/72 76/93/72
f 68/3/73 76/93/73 83/86/73
f 83/86/74 3/82/74 1/19/74
f 76/93/75 5/94/75 3/82/75
f 77/92/76 7/84/76 5/94/76
f 7/84/77 79/90/77 9/85/77
f 9/85/78 80/89/78 11/83/78
f 11/83/79 81/88/79 13/20/79
f 13/20/80 82/87/80 15/21/80
f 82/87/81 1/19/81 15/21/81
f 85/95/82 98/96/82 92/97/82
f 100/98/83 92/97/83 91/99/83
f 97/100/84 94/101/84 84/102/84
f 84/102/85 96/103/85 93/104/85
f 97/100/86 89/105/86 99/106/86
f 84/102/87 90/107/87 89/105/87
f 86/108/88 88/109/88 87/110/88
f 85/95/89 102/111/89 86/108/89
f 85/95/90 87/110/90 101/112/90
f 86/108/91 104/113/91 103/114/91
f 121/115/92 119/116/92 120/117/92
f 122/118/93 110/119/93 121/115/93
f 112/120/94 116/121/94 117/122/94
f 114/123/95 117/122/95 115/124/95
f 116/121/96 107/125/96 117/122/96
f 117/122/97 108/126/97 115/124/97
f 106/127/98 111/128/98 105/129/98
f 121/115/99 123/130/99 122/118/99
f 105/129/100 121/115/100 120/117/100
f 111/128/101 125/131/101 123/130/101
f 95/132/102 112/120/102 94/101/102
f 102/111/103 125/131/103 104/113/103
f 112/120/104 96/103/104 94/101/104
f 98/96/105 110/119/105 92/97/105
f 101/112/106 119/116/106 98/96/106
f 114/123/107 93/104/107 96/103/107
f 100/98/108 123/130/108 102/111/108
f 93/104/109 108/126/109 90/107/109
f 106/127/110 87/110/110 88/109/110
f 97/100/111 113/133/111 95/132/111
f 105/129/112 101/112/112 87/110/112
f 90/107/113 107/125/113 89/105/113
f 103/114/114 106/127/114 88/109/114
f 110/119/115 91/99/115 92/97/115
f 107/125/116 99/106/116 89/105/116
f 104/113/117 124/134/117 103/114/117
f 109/135/118 100/98/118 91/99/118
f 118/136/119 97/100/119 99/106/119
f 17/55/46 49/36/46 128/71/46
f 23/24/33 131/43/33 130/63/33
f 19/31/120 126/44/120 20/15/120
f 17/55/121 129/46/121 19/31/121
f 20/15/122 127/41/122 21/25/122
f 21/25/123 131/43/123 22/23/123
f 51/33/124 23/24/124 130/63/124
f 16/18/125 135/22/125 52/62/125
f 2/1/126 137/30/126 4/4/126
f 10/8/127 134/32/127 12/10/127
f 4/4/128 132/14/128 6/137/128
f 8/6/129 136/26/129 10/8/129
f 14/12/130 134/32/130 135/22/130
f 2/1/131 52/62/131 48/68/131
f 6/137/132 133/16/132 8/6/132
f 2/1/133 4/4/133 69/2/133
f 4/4/134 6/137/134 70/5/134
f 70/5/135 6/137/135 8/6/135
f 71/7/136 8/6/136 10/8/136
f 72/9/137 10/8/137 12/10/137
f 73/11/138 12/10/138 14/12/138
f 132/14/139 19/31/139 20/15/139
f 14/12/140 16/18/140 75/17/140
f 16/18/141 2/1/141 68/3/141
f 1/19/10 3/82/10 13/20/10
f 135/22/142 134/32/142 22/23/142
f 133/16/143 20/15/143 21/25/143
f 53/27/144 24/69/144 60/28/144
f 137/30/145 17/55/145 19/31/145
f 134/32/146 136/26/146 21/25/146
f 51/33/124 130/63/124 42/34/124
f 49/36/147 51/33/147 32/35/147
f 27/38/148 35/58/148 63/39/148
f 127/41/149 29/45/149 41/42/149
f 126/44/150 28/40/150 29/45/150
f 129/46/151 128/71/151 25/47/151
f 40/51/152 37/66/152 38/52/152
f 129/46/153 27/38/153 28/40/153
f 137/30/154 48/68/154 50/54/154
f 26/37/155 34/60/155 33/56/155
f 26/37/156 32/35/156 39/59/156
f 43/53/157 38/52/157 39/59/157
f 28/40/158 63/39/158 36/61/158
f 27/38/159 25/47/159 33/56/159
f 131/43/160 41/42/160 42/34/160
f 41/42/161 29/45/161 31/50/161
f 41/42/162 44/49/162 46/64/162
f 42/34/163 46/64/163 45/65/163
f 40/51/164 29/45/164 36/61/164
f 44/49/165 30/48/165 47/67/165
f 40/51/166 30/48/166 31/50/166
f 40/51/167 43/53/167 47/67/167
f 43/53/168 32/35/168 45/65/168
f 48/68/169 18/70/169 24/69/169
f 49/36/170 50/54/170 24/69/170
f 52/62/171 56/75/171 18/70/171
f 49/36/172 26/37/172 25/47/172
f 55/72/173 62/78/173 61/73/173
f 56/75/174 54/74/174 61/73/174
f 51/33/175 49/36/175 53/27/175
f 52/62/176 23/24/176 54/74/176
f 51/33/177 55/72/177 54/74/177
f 57/77/178 58/76/178 62/78/178
f 55/72/179 53/27/179 59/29/179
f 18/70/180 57/77/180 60/28/180
f 18/70/181 56/75/181 58/76/181
f 35/58/182 66/57/182 65/79/182
f 36/61/183 65/79/183 67/80/183
f 67/80/184 64/81/184 39/59/184
f 64/81/185 66/57/185 33/56/185
f 64/81/186 67/80/186 65/79/186
f 3/82/10 5/94/10 11/83/10
f 11/83/10 5/94/10 7/84/10
f 75/17/187 68/3/187 83/86/187
f 81/88/188 74/13/188 75/17/188
f 80/89/189 73/11/189 74/13/189
f 79/90/190 72/9/190 73/11/190
f 78/91/191 71/7/191 72/9/191
f 70/5/192 71/7/192 78/91/192
f 69/2/193 70/5/193 77/92/193
f 68/3/194 69/2/194 76/93/194
f 83/86/195 76/93/195 3/82/195
f 76/93/196 77/92/196 5/94/196
f 77/92/197 78/91/197 7/84/197
f 7/84/198 78/91/198 79/90/198
f 9/85/199 79/90/199 80/89/199
f 11/83/200 80/89/200 81/88/200
f 13/20/201 81/88/201 82/87/201
f 82/87/202 83/86/202 1/19/202
f 85/95/203 101/112/203 98/96/203
f 100/98/204 85/95/204 92/97/204
f 97/100/205 95/132/205 94/101/205
f 84/102/206 94/101/206 96/103/206
f 97/100/207 84/102/207 89/105/207
f 84/102/208 93/104/208 90/107/208
f 86/108/209 103/114/209 88/109/209
f 85/95/210 100/98/210 102/111/210
f 85/95/211 86/108/211 87/110/211
f 86/108/212 102/111/212 104/113/212
f 121/115/213 110/119/213 119/116/213
f 122/118/214 109/135/214 110/119/214
f 112/120/215 113/133/215 116/121/215
f 114/123/216 112/120/216 117/122/216
f 116/121/217 118/136/217 107/125/217
f 117/122/218 107/125/218 108/126/218
f 106/127/219 124/134/219 111/128/219
f 121/115/220 111/128/220 123/130/220
f 105/129/221 111/128/221 121/115/221
f 111/128/222 124/134/222 125/131/222
f 95/132/102 113/133/102 112/120/102
f 102/111/103 123/130/103 125/131/103
f 112/120/223 114/123/223 96/103/223
f 98/96/105 119/116/105 110/119/105
f 101/112/224 120/117/224 119/116/224
f 114/123/225 115/124/225 93/104/225
f 100/98/108 122/118/108 123/130/108
f 93/104/109 115/124/109 108/126/109
f 106/127/226 105/129/226 87/110/226
f 97/100/111 116/121/111 113/133/111
f 105/129/227 120/117/227 101/112/227
f 90/107/228 108/126/228 107/125/228
f 103/114/229 124/134/229 106/127/229
f 110/119/115 109/135/115 91/99/115
f 107/125/230 118/136/230 99/106/230
f 104/113/231 125/131/231 124/134/231
f 109/135/118 122/118/118 100/98/118
f 118/136/119 116/121/119 97/100/119
f 17/55/232 50/54/232 49/36/232
f 23/24/233 22/23/233 131/43/233
f 19/31/234 129/46/234 126/44/234
f 17/55/151 128/71/151 129/46/151
f 20/15/235 126/44/235 127/41/235
f 21/25/236 127/41/236 131/43/236
f 16/18/237 14/12/237 135/22/237
f 2/1/238 48/68/238 137/30/238
f 10/8/146 136/26/146 134/32/146
f 4/4/239 137/30/239 132/14/239
f 8/6/240 133/16/240 136/26/240
f 14/12/241 12/10/241 134/32/241
f 2/1/242 16/18/242 52/62/242
f 6/137/243 132/14/243 133/16/243
