# Blender v2.93.1 OBJ File: ''
# www.blender.org
mtllib rock.mtl
o Cube.004
v -0.303583 -0.011362 0.643915
v 0.814860 0.027901 0.030211
v 0.672561 0.135311 -0.191693
v 0.003258 0.038400 -0.882737
v 0.380937 1.055304 -0.004498
v -0.001681 -0.004131 0.783419
v 0.448040 -0.013410 0.719882
v 0.841119 0.481590 -0.133826
v -0.614551 0.112142 -0.166434
v -0.612591 0.442960 -0.997319
v 0.700726 0.413160 -0.306763
v -0.758465 0.320578 0.368220
v -0.119713 0.359516 -1.088307
v -0.011610 -0.014094 -0.770557
v -0.315167 0.015542 -0.846213
v 0.341708 0.150628 -0.681252
v 0.194787 0.001333 -0.518442
v -0.452747 -0.020388 -0.409944
v 0.391527 0.155136 -0.375611
v -0.521225 0.631816 -0.975803
v -0.463239 0.581427 -1.077390
v -0.333885 0.841099 -0.960585
v -0.384646 0.452739 -1.160498
v -0.247035 0.816561 -1.026616
v 0.150358 0.451530 -0.923450
v 0.570265 0.817023 -0.189249
v 0.564204 0.899359 0.440172
v 0.185634 1.007488 -0.419175
v 0.700171 0.514139 0.664871
v 0.172967 1.111324 0.683941
v 0.153611 0.975998 0.749131
v -0.021714 1.111669 0.633345
v -0.159317 0.977911 -0.705390
v 0.222739 -0.009453 -0.280243
v -0.542859 -0.020053 0.170099
v 0.757867 -0.017843 0.107507
v 0.779680 -0.000286 0.405365
v -0.238359 1.199212 0.121926
v -0.040128 1.168318 0.232024
v 0.330525 1.132962 0.420863
v 0.416735 0.350022 -0.684657
v 0.498214 0.191156 -0.456591
v -0.076547 0.924905 -0.861450
v -0.400431 1.005682 -0.614735
v -0.161078 1.014574 -0.718515
v -0.007994 1.163099 -0.174916
v -0.632300 0.655807 0.608900
v -0.737301 0.691425 0.450653
v -0.845972 0.701398 0.168375
v -0.272571 0.830065 0.674365
v -0.723606 0.900798 0.200786
v -0.529611 1.018908 0.360393
v -0.827298 0.686438 -0.210442
v -0.651066 0.624517 -0.697726
v -0.737031 0.814429 -0.314377
v -0.600778 0.970587 -0.122532
v -0.595028 0.944477 -0.462114
v -0.492509 0.759448 -0.780979
v 0.157223 1.077433 0.654493
v 0.306887 0.641159 -0.773530
v 0.214727 1.029136 -0.446237
v -0.665645 0.114380 -0.573201
v -0.552430 0.194982 -0.836609
v -0.702022 0.231766 -0.266888
v -0.756267 0.241079 -0.608588
v -0.790008 0.398024 -0.602737
v -0.833571 0.373082 0.199864
v -0.759724 0.300523 -0.210945
v -0.755899 0.135190 0.208353
v -0.644869 0.165728 0.415589
v -0.357625 0.094740 0.694591
v -0.539810 0.207975 0.535449
v -0.632250 0.380513 0.559615
v 0.747962 0.297835 0.687318
v 0.250215 0.454463 0.689902
v -0.147591 0.167988 0.809470
v -0.138776 0.694454 0.783276
v -0.475760 0.592711 0.726166
v 0.898422 0.155970 0.137619
v 0.954874 0.250297 0.376570
v 0.801981 0.676479 0.527196
v 0.914460 0.209769 0.517779
v -0.510203 0.208555 -1.000693
v -0.407986 0.157046 -1.042366
v -0.391416 0.246839 -1.103792
v -0.004674 0.154451 -0.980668
v -0.250371 0.808988 -0.972024
v -0.103409 0.902573 -0.829767
v -0.006232 1.126436 -0.161791
v -0.040128 1.189721 0.232024
v -0.265915 1.169819 0.133866
v 0.297069 1.100700 0.421168
v -0.038366 1.131655 0.245149
v -0.161078 1.035977 -0.718515
v -0.007994 1.184502 -0.174916
v -0.007731 1.083027 0.612029
v -0.469945 0.998332 0.363514
v -0.364838 0.981017 -0.582301
v -0.298997 0.820170 -0.933060
v -0.300759 0.878236 -0.946185
v -0.366600 1.039083 -0.595426
v -0.471707 1.056398 0.350388
v -0.031560 1.145370 0.592991
v -0.105171 0.960639 -0.842892
v -0.252133 0.867054 -0.985149
v 0.155461 1.129474 0.641368
v 0.183872 1.065554 -0.432300
v -0.560838 0.986144 -0.443903
v 0.295307 1.158767 0.408043
v 0.344727 1.088175 -0.001461
v -0.267677 1.203608 0.120741
v -0.566425 1.010629 -0.141387
v 0.346489 1.030109 0.011664
v -0.559076 0.922319 -0.430777
v -0.564663 0.946804 -0.128262
v 0.425060 0.720066 -0.511373
v 0.484901 0.895681 0.606210
v 0.371151 0.886833 0.676772
vt 0.620564 0.661220
vt 0.620564 0.661220
vt 0.620564 0.661220
vt 0.620564 0.661220
vt 0.620564 0.661220
vt 0.620564 0.661220
vt 0.620564 0.661220
vt 0.620564 0.661220
vt 0.620564 0.661220
vt 0.620564 0.661220
vt 0.620564 0.661220
vt 0.620564 0.661220
vt 0.620564 0.661220
vt 0.620564 0.661220
vt 0.620564 0.661220
vt 0.620564 0.661220
vt 0.620564 0.661220
vt 0.620564 0.661220
vt 0.620564 0.661220
vt 0.620564 0.661220
vt 0.620564 0.661220
vt 0.620564 0.661220
vt 0.620564 0.661220
vt 0.620564 0.661220
vt 0.620564 0.661220
vt 0.620564 0.661220
vt 0.620564 0.661220
vt 0.620564 0.661220
vt 0.620564 0.661220
vt 0.620564 0.661220
vt 0.620564 0.661220
vt 0.620564 0.661220
vt 0.620564 0.661220
vt 0.620564 0.661220
vt 0.620564 0.661220
vt 0.620564 0.661220
vt 0.620564 0.661220
vt 0.620564 0.661220
vt 0.620564 0.661220
vt 0.620564 0.661220
vt 0.993386 0.599213
vt 0.993386 0.599213
vt 0.993386 0.599213
vt 0.620564 0.661220
vt 0.620564 0.661220
vt 0.620564 0.661220
vt 0.993386 0.599213
vt 0.993386 0.599213
vt 0.620564 0.661220
vt 0.620564 0.661220
vt 0.620564 0.661220
vt 0.620564 0.661220
vt 0.620564 0.661220
vt 0.620564 0.661220
vt 0.620564 0.661220
vt 0.620564 0.661220
vt 0.620564 0.661220
vt 0.620564 0.661220
vt 0.620564 0.661220
vt 0.620564 0.661220
vt 0.620564 0.661220
vt 0.620564 0.661220
vt 0.620564 0.661220
vt 0.620564 0.661220
vt 0.620564 0.661220
vt 0.620564 0.661220
vt 0.620564 0.661220
vt 0.620564 0.661220
vt 0.620564 0.661220
vt 0.620564 0.661220
vt 0.620564 0.661220
vt 0.620564 0.661220
vt 0.620564 0.661220
vt 0.620564 0.661220
vt 0.620564 0.661220
vt 0.620564 0.661220
vt 0.620564 0.661220
vt 0.620564 0.661220
vt 0.620564 0.661220
vt 0.620564 0.661220
vt 0.620564 0.661220
vt 0.620564 0.661220
vt 0.620564 0.661220
vt 0.620564 0.661220
vt 0.620564 0.661220
vt 0.620564 0.661220
vt 0.993386 0.599213
vt 0.620564 0.661220
vt 0.620564 0.661220
vt 0.993386 0.599213
vt 0.993386 0.599213
vt 0.993386 0.599213
vt 0.993386 0.599213
vt 0.620564 0.661220
vt 0.993386 0.599213
vt 0.620564 0.661220
vt 0.620564 0.661220
vt 0.993386 0.599213
vt 0.993386 0.599213
vt 0.993386 0.599213
vt 0.993386 0.599213
vt 0.993386 0.599213
vt 0.993386 0.599213
vt 0.993386 0.599213
vt 0.993386 0.599213
vt 0.993386 0.599213
vt 0.993386 0.599213
vt 0.993386 0.599213
vt 0.993386 0.599213
vt 0.993386 0.599213
vt 0.993386 0.599213
vt 0.993386 0.599213
vt 0.993386 0.599213
vt 0.993386 0.599213
vt 0.993386 0.599213
vt 0.993386 0.599213
vt 0.993386 0.599213
vt 0.993386 0.599213
vn -0.5875 -0.7622 -0.2719
vn 0.4596 -0.8262 -0.3257
vn 0.4681 -0.8200 -0.3295
vn 0.6609 -0.7422 -0.1112
vn -0.5699 -0.8190 0.0671
vn 0.1498 -0.9868 -0.0623
vn -0.7253 -0.6792 -0.1123
vn -0.6939 0.4036 -0.5963
vn -0.5790 0.1624 -0.7990
vn -0.2460 0.4153 -0.8758
vn -0.4097 0.5361 -0.7381
vn 0.3265 0.2152 -0.9204
vn 0.4448 0.2404 -0.8628
vn 0.9346 0.3524 -0.0486
vn 0.4204 0.3443 0.8395
vn -0.2756 0.3926 0.8774
vn 0.1879 -0.0764 0.9792
vn -0.3034 0.3965 0.8664
vn 0.0269 -0.9996 0.0048
vn -0.0614 -0.9961 0.0632
vn -0.0024 -1.0000 -0.0034
vn 0.0295 -0.9995 -0.0106
vn 0.2431 -0.9027 -0.3550
vn 0.2636 0.9646 0.0084
vn -0.2534 0.9562 0.1466
vn 0.0279 0.9922 0.1212
vn 0.5583 -0.5124 -0.6525
vn 0.2963 -0.9545 -0.0342
vn 0.1131 -0.9546 -0.2757
vn 0.6553 -0.7493 -0.0958
vn 0.2597 0.9656 0.0081
vn -0.7354 0.5460 -0.4013
vn -0.6942 0.6447 -0.3200
vn -0.9332 -0.0264 0.3583
vn -0.3827 0.4975 0.7785
vn -0.8455 0.5297 -0.0668
vn -0.8265 0.4529 0.3342
vn -0.6327 0.5512 0.5439
vn -0.6830 0.7230 -0.1034
vn -0.5232 0.8522 0.0053
vn -0.8385 -0.0722 0.5401
vn -0.4663 0.8754 -0.1274
vn -0.8389 0.5407 -0.0627
vn -0.9746 -0.1705 -0.1451
vn -0.8402 0.4092 -0.3559
vn -0.7055 0.6360 -0.3127
vn -0.8093 0.4336 -0.3963
vn -0.7103 0.7008 -0.0659
vn -0.3540 0.9320 -0.0777
vn -0.8074 -0.3458 -0.4780
vn 0.6732 0.0285 -0.7389
vn 0.6780 0.5614 -0.4746
vn 0.7499 0.6569 -0.0787
vn -0.8421 -0.5294 0.1029
vn -0.7851 -0.6172 -0.0513
vn -0.4020 -0.8982 -0.1778
vn -0.6541 -0.5974 -0.4639
vn -0.5644 -0.2019 -0.8005
vn -0.8902 -0.1757 -0.4203
vn -0.9772 -0.2109 0.0230
vn -0.5312 -0.7986 0.2829
vn -0.6002 -0.7797 -0.1784
vn -0.7405 -0.6275 -0.2407
vn -0.7266 -0.3527 0.5896
vn -0.6046 -0.4188 0.6775
vn -0.6287 -0.1372 0.7655
vn 0.0007 0.1034 0.9946
vn 0.1895 0.1424 0.9715
vn -0.0102 -0.9972 0.0737
vn 0.2586 0.0437 0.9650
vn -0.3258 -0.4054 0.8541
vn -0.1821 0.0519 0.9819
vn -0.3420 -0.5411 0.7682
vn 0.7514 0.2302 0.6184
vn 0.6260 -0.7798 0.0001
vn 0.8209 -0.5700 0.0342
vn 0.7057 0.6898 -0.1616
vn 0.9208 0.2153 0.3253
vn 0.7492 -0.2631 -0.6078
vn -0.5046 -0.8400 -0.1993
vn 0.0882 -0.7876 -0.6099
vn 0.1200 -0.5755 -0.8089
vn 0.2026 -0.3636 -0.9093
vn -0.0411 -0.6460 -0.7622
vn 0.0167 -0.9065 -0.4220
vn -0.5498 -0.7028 -0.4514
vn -0.0709 -0.9920 -0.1041
vn -0.4085 -0.8901 -0.2021
vn 0.0158 -0.9999 0.0019
vn 0.3490 -0.7114 -0.6100
vn 0.3508 -0.7348 -0.5806
vn -0.5724 0.5562 -0.6026
vn 0.1648 -0.2669 -0.9495
vn 0.5254 0.3532 -0.7741
vn 0.0449 0.9875 0.1509
vn 0.4647 0.3848 0.7974
vn 0.5919 0.7484 0.2993
vn 0.0685 -0.1000 0.9926
vn -0.0169 0.9973 0.0719
vn -0.2240 0.4488 0.8651
vn 0.0647 0.9979 -0.0077
vn -0.2741 0.4231 0.8636
vn 0.0149 -0.9999 0.0064
vn 0.1543 0.9880 -0.0005
vn 0.0238 0.9901 0.1387
vn -0.3213 0.9434 -0.0823
vn 0.6192 -0.1757 -0.7654
vn 0.6316 -0.2502 -0.7338
vn -0.8188 0.4383 -0.3708
vn 0.7732 -0.2814 -0.5682
vn 0.7844 -0.3899 -0.4825
vn 0.5479 -0.1267 -0.8269
vn -0.4467 0.8834 -0.1412
vn -0.2617 0.9572 0.1238
vn -0.0149 0.8430 -0.5377
vn -0.6054 0.5883 -0.5360
vn 0.1866 0.9331 -0.3075
vn -0.1446 0.8503 -0.5061
vn -0.7015 0.5647 0.4347
vn -0.3639 0.4435 0.8191
vn -0.5257 0.8505 -0.0161
vn -0.4640 0.5859 0.6644
vn -0.9980 -0.0423 -0.0475
vn -0.8749 0.3264 -0.3579
vn -0.6962 0.5007 -0.5144
vn 0.4280 0.3161 -0.8467
vn 0.6291 0.3976 -0.6680
vn 0.2561 0.8798 -0.4005
vn 0.3355 0.9245 -0.1810
vn 0.8719 0.1914 -0.4507
vn -0.8229 -0.5563 0.1155
vn -0.7226 -0.6846 0.0961
vn -0.8651 0.3613 -0.3479
vn -0.9845 -0.1724 0.0332
vn -0.6257 -0.6501 0.4310
vn -0.6401 -0.5714 0.5136
vn -0.7079 -0.1785 0.6834
vn -0.7723 -0.4210 0.4758
vn -0.7288 -0.4613 0.5060
vn -0.9432 -0.3120 -0.1144
vn -0.9054 -0.2844 0.3152
vn -0.5843 -0.1887 0.7893
vn -0.8155 -0.1021 0.5697
vn -0.9127 0.0047 0.4086
vn 0.5422 -0.6395 0.5450
vn 0.5239 -0.4277 0.7366
vn 0.0444 0.0826 0.9956
vn -0.4307 -0.1585 0.8885
vn 0.8765 -0.2077 -0.4342
vn 0.9744 -0.0154 -0.2241
vn 0.8269 -0.5617 0.0263
vn 0.8213 -0.5659 0.0727
vn 0.6987 0.1543 0.6986
vn -0.5154 -0.4170 -0.7486
vn 0.7751 -0.3538 -0.5234
vn 0.1392 -0.0318 0.9898
vn -0.1338 0.9649 -0.2260
vn -0.0299 0.8489 -0.5276
vn 0.1723 0.9368 -0.3045
vn -0.1870 0.8575 -0.4794
vn 0.2650 0.8729 -0.4096
vn 0.3385 0.9246 -0.1749
vn -0.1227 0.9656 -0.2293
vn 0.1109 -0.9647 0.2390
vn -0.3385 -0.9246 0.1749
vn -0.2650 -0.8729 0.4096
vn 0.1869 -0.8575 0.4794
vn -0.1723 -0.9368 0.3045
vn 0.0299 -0.8489 0.5276
vn 0.2546 -0.9557 -0.1479
vn 0.4996 -0.8522 0.1557
vn 0.3464 -0.9345 0.0820
vn -0.1652 -0.9863 -0.0004
vn -0.0071 -0.9946 -0.1034
vn -0.2597 -0.9656 -0.0081
vn -0.0236 -0.9913 -0.1294
vn -0.5990 -0.3169 -0.7353
vn 0.8255 -0.1005 -0.5554
vn -0.5689 -0.1977 -0.7983
vn 0.7309 -0.1293 -0.6701
vn -0.7195 0.2185 0.6592
vn -0.2290 0.2032 0.9520
vn -0.5022 0.1761 0.8466
vn -0.9994 -0.0309 -0.0160
vn 0.8408 0.1435 0.5220
vn 0.9365 -0.0500 -0.3470
vn -0.6401 -0.1878 -0.7450
vn 0.9924 0.0550 0.1103
vn -0.9857 -0.0650 -0.1552
vn 0.5736 0.6035 -0.5539
vn 0.6543 0.6816 0.3276
vn 0.1728 0.9724 -0.1570
vn -0.1358 0.8630 0.4866
vn 0.1675 0.9747 -0.1478
vn 0.6333 0.7211 -0.2810
vn 0.7081 0.7047 -0.0447
vn -0.5889 -0.2461 -0.7699
vn 0.7818 0.6192 -0.0735
vn -0.1564 0.8888 0.4308
vn -0.2288 0.8612 -0.4539
vn 0.7885 0.3925 -0.4736
vn 0.7483 0.2674 -0.6070
vn 0.8051 -0.3116 -0.5047
vn -0.1367 0.9651 -0.2235
vn -0.2517 0.8609 -0.4421
vn -0.1571 0.9670 -0.2005
vn 0.1227 -0.9656 0.2293
vn 0.2517 -0.8609 0.4421
vn 0.1160 -0.8425 -0.5261
vn -0.1675 -0.9747 0.1478
vn -0.6624 -0.1842 -0.7261
vn -0.5705 -0.1805 -0.8012
vn -0.7052 0.1241 0.6981
vn -0.2353 0.2302 0.9443
vn -0.4835 0.0813 0.8716
vn 0.8397 0.1594 0.5192
vn 0.5857 0.7001 0.4084
usemtl Objects
s off
f 84/1/1 15/2/1 63/3/1
f 4/4/2 17/5/2 14/6/2
f 16/7/3 17/5/3 4/4/3
f 19/8/4 34/9/4 17/5/4
f 62/10/5 18/11/5 9/12/5
f 17/5/6 34/9/6 14/6/6
f 18/11/7 35/13/7 9/12/7
f 10/14/8 20/15/8 21/16/8
f 10/14/9 21/16/9 23/17/9
f 21/16/10 24/18/10 23/17/10
f 22/19/11 24/18/11 21/16/11
f 24/18/12 13/20/12 23/17/12
f 24/18/13 25/21/13 13/20/13
f 8/22/14 81/23/14 80/24/14
f 30/25/15 31/26/15 118/27/15
f 31/26/16 32/28/16 77/29/16
f 31/26/17 77/29/17 75/30/17
f 32/28/18 50/31/18 77/29/18
f 18/11/19 1/32/19 35/13/19
f 36/33/20 37/34/20 34/9/20
f 34/9/21 7/35/21 1/32/21
f 34/9/22 37/34/22 7/35/22
f 2/36/23 36/33/23 34/9/23
f 39/37/24 5/38/24 46/39/24
f 39/37/25 52/40/25 32/28/25
f 109/41/26 90/42/26 103/43/26
f 86/44/27 16/7/27 4/4/27
f 42/45/28 19/8/28 16/7/28
f 42/45/29 3/46/29 19/8/29
f 16/7/30 19/8/30 17/5/30
f 90/42/31 110/47/31 95/48/31
f 22/19/32 58/49/32 44/50/32
f 58/49/33 22/19/33 20/15/33
f 12/51/34 48/52/34 49/53/34
f 78/54/35 50/31/35 47/55/35
f 49/53/36 51/56/36 55/57/36
f 49/53/37 48/52/37 51/56/37
f 47/55/38 52/40/38 48/52/38
f 55/57/39 51/56/39 56/58/39
f 52/40/40 38/59/40 51/56/40
f 12/51/41 47/55/41 48/52/41
f 38/59/42 44/50/42 56/58/42
f 49/53/43 55/57/43 53/60/43
f 67/61/44 53/60/44 68/62/44
f 53/60/45 54/63/45 10/14/45
f 58/49/46 20/15/46 54/63/46
f 55/57/47 57/64/47 54/63/47
f 56/58/48 57/64/48 55/57/48
f 56/58/49 44/50/49 57/64/49
f 65/65/50 10/14/50 83/66/50
f 25/21/51 60/67/51 41/68/51
f 61/69/52 26/70/52 116/71/52
f 5/38/53 27/72/53 26/70/53
f 9/12/54 64/73/54 62/10/54
f 9/12/55 68/62/55 64/73/55
f 63/3/56 65/65/56 83/66/56
f 62/10/57 65/65/57 63/3/57
f 85/74/58 10/14/58 23/17/58
f 66/75/59 10/14/59 65/65/59
f 65/65/60 68/62/60 66/75/60
f 35/13/61 1/32/61 69/76/61
f 35/13/62 69/76/62 9/12/62
f 69/76/63 68/62/63 9/12/63
f 70/77/64 73/78/64 12/51/64
f 70/77/65 72/79/65 73/78/65
f 78/54/66 47/55/66 73/78/66
f 29/80/67 7/35/67 74/81/67
f 75/30/68 76/82/68 7/35/68
f 7/35/69 6/83/69 1/32/69
f 77/29/70 76/82/70 75/30/70
f 76/82/71 71/84/71 6/83/71
f 77/29/72 78/54/72 76/82/72
f 71/84/73 1/32/73 6/83/73
f 29/80/74 74/81/74 82/85/74
f 2/36/75 37/34/75 36/33/75
f 80/24/76 37/34/76 2/36/76
f 8/22/77 27/72/77 81/23/77
f 80/24/78 81/23/78 82/85/78
f 8/22/79 2/36/79 3/46/79
f 83/66/80 84/1/80 63/3/80
f 84/1/81 86/44/81 15/2/81
f 84/1/82 85/74/82 86/44/82
f 13/20/83 86/44/83 85/74/83
f 86/44/84 4/4/84 15/2/84
f 15/2/85 4/4/85 14/6/85
f 63/3/86 15/2/86 62/10/86
f 15/2/87 14/6/87 18/11/87
f 15/2/88 18/11/88 62/10/88
f 14/6/89 34/9/89 18/11/89
f 19/8/90 3/46/90 34/9/90
f 3/46/91 2/36/91 34/9/91
f 21/16/92 20/15/92 22/19/92
f 85/74/93 23/17/93 13/20/93
f 24/18/94 43/86/94 25/21/94
f 109/41/95 103/43/95 106/87/95
f 117/88/96 29/80/96 81/23/96
f 27/72/97 117/88/97 81/23/97
f 29/80/98 31/26/98 75/30/98
f 40/89/99 32/28/99 30/25/99
f 30/25/100 32/28/100 31/26/100
f 90/42/101 95/48/101 111/90/101
f 78/54/102 77/29/102 50/31/102
f 34/9/103 1/32/103 18/11/103
f 39/37/104 46/39/104 38/59/104
f 40/89/105 39/37/105 32/28/105
f 112/91/106 101/92/106 108/93/106
f 86/44/107 25/21/107 41/68/107
f 86/44/108 41/68/108 16/7/108
f 10/14/109 54/63/109 20/15/109
f 42/45/110 8/22/110 3/46/110
f 42/45/111 11/94/111 8/22/111
f 86/44/112 13/20/112 25/21/112
f 111/90/113 101/92/113 112/91/113
f 90/42/114 102/95/114 103/43/114
f 43/86/115 24/18/115 45/96/115
f 44/50/116 58/49/116 57/64/116
f 61/69/117 45/96/117 46/39/117
f 22/19/118 45/96/118 24/18/118
f 51/56/119 48/52/119 52/40/119
f 50/31/120 32/28/120 47/55/120
f 56/58/121 51/56/121 38/59/121
f 47/55/122 32/28/122 52/40/122
f 67/61/123 49/53/123 53/60/123
f 53/60/124 55/57/124 54/63/124
f 54/63/125 57/64/125 58/49/125
f 43/86/126 60/67/126 25/21/126
f 11/94/127 26/70/127 8/22/127
f 43/86/128 45/96/128 61/69/128
f 5/38/129 61/69/129 46/39/129
f 116/71/130 41/68/130 60/67/130
f 62/10/131 64/73/131 65/65/131
f 65/65/132 64/73/132 68/62/132
f 66/75/133 53/60/133 10/14/133
f 66/75/134 68/62/134 53/60/134
f 69/76/135 1/32/135 70/77/135
f 70/77/136 1/32/136 71/84/136
f 70/77/137 71/84/137 72/79/137
f 69/76/138 70/77/138 12/51/138
f 72/79/139 71/84/139 73/78/139
f 69/76/140 67/61/140 68/62/140
f 69/76/141 12/51/141 67/61/141
f 71/84/142 78/54/142 73/78/142
f 12/51/143 73/78/143 47/55/143
f 67/61/144 12/51/144 49/53/144
f 37/34/145 82/85/145 7/35/145
f 7/35/146 82/85/146 74/81/146
f 29/80/147 75/30/147 7/35/147
f 76/82/148 78/54/148 71/84/148
f 8/22/149 79/97/149 2/36/149
f 8/22/150 80/24/150 79/97/150
f 79/97/151 80/24/151 2/36/151
f 37/34/152 80/24/152 82/85/152
f 81/23/153 29/80/153 82/85/153
f 84/1/154 83/66/154 85/74/154
f 42/45/155 41/68/155 11/94/155
f 7/35/156 76/82/156 6/83/156
f 44/50/157 46/39/157 45/96/157
f 104/98/158 105/99/158 94/100/158
f 107/101/159 94/100/159 95/48/159
f 100/102/160 94/100/160 105/99/160
f 104/98/161 94/100/161 107/101/161
f 110/47/162 107/101/162 95/48/162
f 101/92/163 95/48/163 94/100/163
f 98/103/164 89/104/164 91/105/164
f 113/106/165 89/104/165 28/107/165
f 88/108/166 28/107/166 33/109/166
f 33/109/167 99/110/167 87/111/167
f 28/107/168 89/104/168 33/109/168
f 88/108/169 33/109/169 87/111/169
f 97/112/170 93/113/170 96/114/170
f 91/105/171 115/115/171 98/103/171
f 115/115/172 114/116/172 98/103/172
f 93/113/173 91/105/173 89/104/173
f 92/117/174 59/118/174 96/114/174
f 113/106/175 93/113/175 89/104/175
f 92/117/176 96/114/176 93/113/176
f 91/105/177 102/95/177 111/90/177
f 28/107/178 104/98/178 107/101/178
f 98/103/179 108/93/179 101/92/179
f 88/108/180 105/99/180 104/98/180
f 112/91/181 91/105/181 111/90/181
f 96/114/182 106/87/182 103/43/182
f 97/112/183 103/43/183 102/95/183
f 114/116/184 112/91/184 108/93/184
f 106/87/185 92/117/185 109/41/185
f 110/47/186 28/107/186 107/101/186
f 105/99/187 99/110/187 100/102/187
f 109/41/188 113/106/188 110/47/188
f 100/102/189 98/103/189 101/92/189
f 61/69/190 60/67/190 43/86/190
f 40/89/191 117/88/191 27/72/191
f 118/27/96 117/88/96 30/25/96
f 118/27/15 31/26/15 29/80/15
f 39/37/192 40/89/192 5/38/192
f 39/37/193 38/59/193 52/40/193
f 90/42/194 109/41/194 110/47/194
f 61/69/195 5/38/195 26/70/195
f 5/38/196 40/89/196 27/72/196
f 85/74/197 83/66/197 10/14/197
f 8/22/198 26/70/198 27/72/198
f 117/88/96 118/27/96 29/80/96
f 90/42/199 111/90/199 102/95/199
f 22/19/200 44/50/200 45/96/200
f 11/94/201 116/71/201 26/70/201
f 116/71/202 11/94/202 41/68/202
f 42/45/203 16/7/203 41/68/203
f 44/50/204 38/59/204 46/39/204
f 100/102/205 101/92/205 94/100/205
f 101/92/206 111/90/206 95/48/206
f 98/103/207 33/109/207 89/104/207
f 33/109/208 98/103/208 99/110/208
f 97/112/209 91/105/209 93/113/209
f 113/106/210 92/117/210 93/113/210
f 91/105/211 97/112/211 102/95/211
f 28/107/178 88/108/178 104/98/178
f 98/103/212 114/116/212 108/93/212
f 88/108/180 87/111/180 105/99/180
f 112/91/213 115/115/213 91/105/213
f 96/114/214 59/118/214 106/87/214
f 97/112/215 96/114/215 103/43/215
f 114/116/184 115/115/184 112/91/184
f 106/87/216 59/118/216 92/117/216
f 110/47/186 113/106/186 28/107/186
f 105/99/187 87/111/187 99/110/187
f 109/41/188 92/117/188 113/106/188
f 100/102/189 99/110/189 98/103/189
f 61/69/52 116/71/52 60/67/52
f 40/89/217 30/25/217 117/88/217
