# Blender v3.0.0 OBJ File: 'Winter Forrest Pack.blend'
# www.blender.org
mtllib winter-rock2.mtl
o Cube.012_Cube.014
v -7.623341 1.049936 -1.811505
v -8.029084 0.949200 -2.011975
v -8.288332 0.768123 -2.176679
v -8.605296 0.433552 -1.989827
v -8.859357 0.288011 -1.606204
v -9.256575 0.481219 -0.269774
v -8.860018 0.528780 -0.359217
v -7.865662 1.202999 -0.152890
v -8.191994 0.209245 0.363641
v -6.779635 0.929513 -0.919792
v -6.728403 0.843287 -0.836073
v -7.786841 0.164062 0.199741
v -6.744509 0.390397 -1.389103
v -7.159588 0.982062 -1.600969
v -7.055158 0.803692 -1.608292
v -6.654699 0.767184 -1.392791
v -8.351812 0.106245 -1.732700
v -8.155697 1.126146 0.053433
v -9.017715 0.459958 0.094441
v -8.542131 0.678421 0.310123
v -8.667529 0.567292 0.075662
v -7.661750 1.106206 0.195307
v -8.713352 0.448795 0.408038
v -8.751975 0.232882 0.439438
v -8.555310 0.394512 0.434217
v -8.818296 0.162536 0.318684
v -8.112946 0.764004 0.312352
v -8.609340 0.189553 0.443625
v -7.467525 0.899168 0.269706
v -7.885936 0.465990 0.337109
v -7.004199 0.942413 0.002616
v -7.268148 0.695811 0.251477
v -7.094292 0.562013 0.134485
v -7.216249 0.262850 0.047496
v -6.841963 0.821906 -0.160855
v -6.863785 0.621785 -0.154048
v -6.931897 0.412756 -0.194806
v -6.751620 0.814565 -0.492852
v -6.915560 0.215506 -0.745251
v -7.045429 0.160637 -0.381085
v -6.732663 0.472642 -0.874193
v -6.653492 0.644810 -1.170076
v -7.087611 0.039524 -0.941103
v -6.727407 0.395466 -1.222631
v -6.654105 0.626374 -1.406094
v -6.880237 0.211724 -1.317627
v -6.733878 0.525792 -1.481510
v -7.079184 0.277083 -1.640239
v -6.848312 0.656524 -1.597457
v -7.069734 0.432394 -1.753922
v -7.442329 0.319069 -1.946456
v -7.494675 0.586941 -2.055692
v -7.704971 0.408602 -2.137935
v -7.843840 0.331421 -2.155858
v -8.000461 0.129631 -1.897032
v -7.391317 0.694680 -1.958274
v -8.156009 0.278584 -2.165824
v -7.931152 0.576598 -2.227647
v -8.304897 0.190873 -1.974001
v -8.102020 0.382421 -2.248101
v -7.607582 0.821650 -2.020835
v -8.537915 0.277715 -1.948459
v -7.943841 0.700764 -2.199581
v -7.839268 0.846433 -2.084683
v -8.252633 0.564548 -2.261421
v -8.336178 0.417130 -2.181433
v -8.793736 0.319976 -1.741880
v -7.369210 1.154969 -0.036177
v -7.111701 1.066440 -0.016029
v -7.078695 1.138835 -0.250444
v -6.815291 1.060058 -0.395759
v -7.338955 1.171147 -0.612789
v -6.825581 1.125603 -0.572466
v -7.442482 1.255958 -1.105995
v -6.843418 1.178879 -0.905598
v -6.785736 1.016457 -0.963118
v -6.926525 1.210542 -1.282300
v -6.772809 1.026692 -1.343407
v -6.698095 0.892741 -1.365510
v -8.430861 0.086576 0.362219
v -8.552606 0.028356 0.181128
v -9.139109 0.150477 -0.067373
v -8.034846 0.101971 0.054354
v -8.831587 -0.039670 -0.340729
v -9.322109 0.108234 -0.382789
v -9.242657 0.190933 -0.706903
v -8.568106 -0.004993 -0.771242
v -8.219469 0.080090 -0.496711
v -8.930829 0.153986 -0.855267
v -9.053764 0.331861 -1.031183
v -8.916128 0.254338 -1.171701
v -8.170720 -0.026067 -1.266801
v -7.849515 -0.023151 -1.352031
v -7.610102 1.213736 -0.392649
v -7.502714 1.258421 -1.482055
v -7.822614 1.184808 -1.659342
v -7.860999 1.248476 -1.169456
v -8.212982 1.181993 -0.350729
v -8.419607 1.134142 -1.259518
v -7.999144 1.191777 -1.646439
v -8.427459 1.005061 -1.660380
v -8.630363 0.676139 -1.826452
v -8.310803 0.944906 -1.981837
v -8.810522 0.758159 -1.055601
v -8.704125 0.731321 -1.543877
v -8.449316 0.699672 -2.074294
v -8.876974 0.449832 -1.544404
v -9.294683 0.521249 -0.644294
v -8.711250 0.472523 -1.851911
v -7.574298 0.126207 -0.147039
v -9.074647 0.351694 -1.033984
vt 0.620564 0.661220
vt 0.620564 0.661220
vt 0.620564 0.661220
vt 0.620564 0.661220
vt 0.620564 0.661220
vt 0.620564 0.661220
vt 0.620564 0.661220
vt 0.620564 0.661220
vt 0.620564 0.661220
vt 0.620564 0.661220
vt 0.620564 0.661220
vt 0.620564 0.661220
vt 0.620564 0.661220
vt 0.620564 0.661220
vt 0.620564 0.661220
vt 0.620564 0.661220
vt 0.620564 0.661220
vt 0.620564 0.661220
vt 0.620564 0.661220
vt 0.620564 0.661220
vt 0.620564 0.661220
vt 0.620564 0.661220
vt 0.620564 0.661220
vt 0.620564 0.661220
vt 0.620564 0.661220
vt 0.620564 0.661220
vt 0.620564 0.661220
vt 0.620564 0.661220
vt 0.620564 0.661220
vt 0.620564 0.661220
vt 0.620564 0.661220
vt 0.620564 0.661220
vt 0.620564 0.661220
vt 0.620564 0.661220
vt 0.620564 0.661220
vt 0.620564 0.661220
vt 0.620564 0.661220
vt 0.620564 0.661220
vt 0.620564 0.661220
vt 0.620564 0.661220
vt 0.620564 0.661220
vt 0.620564 0.661220
vt 0.620564 0.661220
vt 0.620564 0.661220
vt 0.620564 0.661220
vt 0.620564 0.661220
vt 0.620564 0.661220
vt 0.620564 0.661220
vt 0.620564 0.661220
vt 0.620564 0.661220
vt 0.620564 0.661220
vt 0.620564 0.661220
vt 0.620564 0.661220
vt 0.620564 0.661220
vt 0.620564 0.661220
vt 0.620564 0.661220
vt 0.620564 0.661220
vt 0.620564 0.661220
vt 0.620564 0.661220
vt 0.620564 0.661220
vt 0.620564 0.661220
vt 0.620564 0.661220
vt 0.620564 0.661220
vt 0.620564 0.661220
vt 0.620564 0.661220
vt 0.620564 0.661220
vt 0.620564 0.661220
vt 0.620564 0.661220
vt 0.620564 0.661220
vt 0.620564 0.661220
vt 0.620564 0.661220
vt 0.620564 0.661220
vt 0.620564 0.661220
vt 0.620564 0.661220
vt 0.620564 0.661220
vt 0.620564 0.661220
vt 0.620564 0.661220
vt 0.620564 0.661220
vt 0.620564 0.661220
vt 0.620564 0.661220
vt 0.620564 0.661220
vt 0.620564 0.661220
vt 0.620564 0.661220
vt 0.620564 0.661220
vt 0.620564 0.661220
vt 0.620564 0.661220
vt 0.620564 0.661220
vt 0.620564 0.661220
vt 0.620564 0.661220
vt 0.620564 0.661220
vt 0.620564 0.661220
vt 0.620564 0.661220
vt 0.620564 0.661220
vt 0.620564 0.661220
vt 0.620564 0.661220
vt 0.620564 0.661220
vt 0.620564 0.661220
vt 0.620564 0.661220
vt 0.620564 0.661220
vt 0.620564 0.661220
vt 0.620564 0.661220
vt 0.620564 0.661220
vt 0.620564 0.661220
vt 0.620564 0.661220
vt 0.620564 0.661220
vt 0.620564 0.661220
vt 0.620564 0.661220
vt 0.620564 0.661220
vt 0.620564 0.661220
vt 0.620564 0.661220
vt 0.620564 0.661220
vn -0.7196 0.6667 0.1941
vn -0.0942 0.4491 0.8885
vn 0.0352 0.9680 0.2485
vn -0.7109 -0.3633 0.6021
vn -0.1069 0.1618 0.9810
vn 0.1230 0.1749 0.9769
vn 0.1427 0.0078 0.9897
vn 0.0417 0.1142 0.9926
vn 0.4073 0.4707 0.7827
vn 0.4409 0.3585 0.8229
vn 0.1761 -0.1088 0.9783
vn 0.1913 -0.3829 0.9038
vn 0.3010 -0.4153 0.8584
vn 0.2996 -0.3770 0.8764
vn 0.9599 -0.0957 0.2633
vn 0.9577 0.2835 0.0494
vn 0.9093 -0.3424 0.2365
vn 0.9737 -0.1435 0.1770
vn 0.8431 -0.4977 0.2034
vn 0.9753 0.1959 0.1023
vn 0.8376 -0.5305 0.1301
vn 0.7547 -0.6541 0.0509
vn 1.0000 0.0045 -0.0029
vn 0.9284 -0.3618 -0.0844
vn 0.8379 -0.3511 -0.4180
vn 0.6265 0.6150 0.4787
vn 0.6238 -0.4860 -0.6121
vn 0.2572 -0.8684 -0.4241
vn 0.5518 0.2022 -0.8091
vn 0.3844 -0.5134 -0.7673
vn 0.2373 -0.8305 -0.5039
vn -0.1000 -0.9327 -0.3466
vn 0.4378 0.3345 -0.8345
vn 0.4956 0.4911 -0.7164
vn 0.3596 0.3040 -0.8822
vn 0.3509 0.2404 -0.9050
vn -0.3051 -0.4889 -0.8172
vn -0.3028 -0.3162 -0.8991
vn 0.0142 0.3864 -0.9222
vn -0.5810 -0.1085 -0.8067
vn -0.5417 -0.4265 -0.7243
vn -0.6074 -0.4385 -0.6625
vn 0.2642 0.6617 -0.7017
vn -0.5885 0.2206 -0.7778
vn 0.0476 0.6340 -0.7719
vn 0.1170 0.9896 0.0841
vn 0.1434 0.9896 -0.0148
vn 0.4296 0.8440 0.3211
vn 0.4192 0.8589 0.2942
vn 0.0862 0.9959 0.0269
vn 0.2441 0.9630 0.1144
vn 0.0753 0.9853 0.1536
vn 0.0754 0.9853 0.1535
vn -0.0193 0.9998 0.0096
vn 0.0853 0.9963 -0.0071
vn 0.9482 0.2958 0.1156
vn 0.8708 0.4907 -0.0301
vn 0.2659 0.7676 -0.5831
vn 0.9745 0.1510 0.1658
vn 0.8998 0.4200 -0.1181
vn 0.4980 0.3246 -0.8041
vn 0.1663 -0.9658 0.1987
vn 0.1701 -0.9772 0.1272
vn -0.3083 -0.9077 0.2846
vn -0.2989 -0.9075 0.2950
vn 0.1974 -0.9801 0.0222
vn 0.2029 -0.9781 0.0454
vn -0.2620 -0.9358 -0.2357
vn -0.2908 -0.8718 -0.3941
vn 0.1267 -0.9815 0.1433
vn -0.3239 -0.8974 -0.2996
vn -0.6127 -0.6976 -0.3714
vn 0.0186 -0.9903 0.1377
vn -0.4911 -0.8612 -0.1309
vn -0.5897 -0.7956 -0.1387
vn -0.3725 -0.9086 -0.1889
vn 0.0331 -0.9953 0.0905
vn -0.3912 -0.8545 -0.3417
vn -0.2200 -0.8759 0.4295
vn 0.2366 -0.9165 -0.3225
vn -0.0000 0.9990 0.0447
vn -0.0853 0.9954 0.0441
vn 0.1237 0.8174 -0.5626
vn 0.0074 0.9187 -0.3948
vn -0.1907 0.9797 -0.0612
vn -0.0075 0.8335 -0.5525
vn -0.3730 0.8781 -0.2997
vn -0.6584 0.7445 0.1105
vn -0.7309 0.6540 -0.1952
vn -0.7315 0.6075 -0.3096
vn -0.6014 0.5560 -0.5738
vn -0.8331 0.5119 -0.2097
vn -0.2081 0.9333 0.2926
vn -0.8236 0.5236 -0.2183
vn -0.7665 0.3701 -0.5248
vn -0.8256 0.3801 -0.4169
vn -0.7386 0.2320 -0.6330
vn -0.7942 -0.0088 -0.6076
vn -0.8345 0.0400 0.5496
vn -0.0453 0.9553 0.2921
vn -0.1960 0.6096 0.7681
vn -0.7942 -0.0062 0.6077
vn -0.0896 0.4261 0.9002
vn -0.6954 0.2237 0.6829
vn -0.0347 0.3503 0.9360
vn -0.0072 0.3321 0.9432
vn -0.2199 -0.8104 0.5430
vn 0.2488 0.8353 0.4904
vn 0.3289 0.5772 0.7475
vn 0.1925 -0.1290 0.9728
vn -0.1479 0.9766 0.1559
vn -0.6903 0.6806 0.2453
vn 0.2857 0.9036 0.3193
vn 0.0683 0.9908 0.1172
vn 0.6175 0.1231 0.7769
vn 0.3042 -0.3759 0.8753
vn 0.7310 0.0624 0.6795
vn 0.7810 0.3920 0.4861
vn 0.1334 -0.9731 0.1880
vn 0.7862 -0.0648 0.6146
vn 0.7651 -0.3542 0.5378
vn 0.7049 -0.4474 0.5504
vn 0.9554 0.1462 0.2567
vn 0.6750 -0.6103 0.4146
vn 0.8220 -0.5280 0.2136
vn 0.9721 0.2189 0.0841
vn 0.9596 -0.1842 0.2129
vn 0.1507 -0.9685 0.1981
vn 0.9709 0.2243 0.0844
vn 0.6431 -0.7570 0.1153
vn 0.8424 0.5375 0.0381
vn 0.9509 -0.2989 0.0805
vn 0.9574 -0.2880 0.0200
vn 0.7828 -0.6193 -0.0616
vn 0.2334 -0.9149 -0.3293
vn 0.9442 0.2941 0.1485
vn 0.5870 -0.6428 -0.4922
vn 0.7056 0.0696 -0.7052
vn 0.6311 -0.4705 -0.6167
vn 0.6442 -0.1077 -0.7573
vn 0.5111 -0.5277 -0.6785
vn 0.3767 0.4707 -0.7978
vn 0.5055 -0.2698 -0.8196
vn 0.4677 0.6103 -0.6393
vn 0.1567 -0.8226 -0.5465
vn 0.6040 0.3823 -0.6993
vn -0.0635 -0.8880 -0.4554
vn 0.1350 -0.6575 -0.7413
vn -0.3967 -0.5946 -0.6993
vn -0.3371 -0.7295 -0.5952
vn 0.2733 -0.1402 -0.9517
vn 0.2812 0.4617 -0.8413
vn 0.0619 0.5903 -0.8048
vn 0.0932 0.2286 -0.9691
vn -0.7718 0.6251 0.1165
vn -0.3598 -0.8564 -0.3703
vn 0.5737 0.3583 -0.7365
vn 0.1445 0.7354 -0.6621
vn 0.9427 0.3337 0.0029
vn 0.9918 0.1053 0.0717
vn 0.1077 0.9924 0.0596
vn 0.7445 0.6587 -0.1089
vn -0.8650 -0.0001 0.5018
vn 0.4064 0.5754 -0.7098
vn 0.5148 0.4113 -0.7522
vn 0.3943 0.6357 -0.6636
vn -0.0259 0.9983 0.0530
vn -0.3108 -0.9069 0.2844
vn 0.1390 -0.9903 -0.0073
vn -0.2924 -0.9070 -0.3031
vn -0.3463 -0.7697 -0.5363
vn -0.6589 -0.7076 -0.2550
vn -0.2607 -0.9506 -0.1686
vn -0.0587 -0.9653 -0.2543
vn -0.0542 -0.9659 -0.2533
vn -0.4599 -0.7886 -0.4082
vn 0.2669 -0.5290 0.8056
vn 0.2349 -0.9264 -0.2943
vn -0.1040 0.9907 -0.0877
vn 0.0924 0.8021 -0.5900
vn -0.1996 0.9799 -0.0062
vn -0.3763 0.8840 -0.2773
vn -0.7003 0.6913 0.1779
vn -0.7302 0.6544 -0.1964
vn -0.6968 0.6157 -0.3681
vn -0.6925 0.5618 -0.4526
vn -0.8103 0.4981 -0.3088
vn -0.0926 0.9890 0.1151
vn -0.2511 -0.7700 0.5865
vn -0.0143 0.0496 0.9987
vn 0.7001 -0.0202 -0.7137
vn 0.6875 -0.7247 0.0472
vn 0.5785 -0.0021 -0.8157
vn 0.2738 -0.2789 -0.9205
vn 0.3666 -0.0032 -0.9304
vn 0.4062 0.5755 -0.7097
vn 0.1040 0.0133 -0.9945
vn -0.6349 0.1304 -0.7615
vn -0.0713 0.8338 -0.5475
vn -0.8759 0.1406 -0.4616
vn 0.5108 -0.2189 -0.8314
vn -0.0834 0.7332 -0.6749
vn 0.1249 0.0336 0.9916
vn 0.2280 -0.9429 0.2427
vn 0.0092 -0.9934 0.1141
vn -0.5206 -0.6295 -0.5768
vn -0.6979 0.4228 -0.5780
vn -0.9599 -0.1017 -0.2612
vn -0.2906 0.9558 0.0440
vn -0.2661 0.9190 0.2910
vn -0.7341 0.6752 0.0726
vn -0.9467 0.0197 -0.3216
vn -0.9042 0.0629 -0.4225
vn 0.1935 -0.9341 0.2999
vn 0.0609 -0.9980 0.0192
vn -0.8786 -0.0483 -0.4751
vn -0.9837 0.1380 0.1149
vn -0.0920 0.9887 0.1180
usemtl Objects
s off
f 21/1/1 18/2/1 98/3/1
f 20/4/2 23/5/2 27/6/2
f 8/7/3 22/8/3 68/9/3
f 82/10/4 26/11/4 24/12/4
f 23/5/5 24/12/5 25/13/5
f 27/6/6 25/13/6 30/14/6
f 25/13/7 28/15/7 30/14/7
f 27/6/8 30/14/8 29/16/8
f 69/17/9 29/16/9 31/18/9
f 29/16/10 32/19/10 31/18/10
f 30/14/11 9/20/11 32/19/11
f 28/15/12 80/21/12 9/20/12
f 9/20/13 12/22/13 34/23/13
f 32/19/14 34/23/14 33/24/14
f 35/25/15 36/26/15 38/27/15
f 73/28/16 71/29/16 11/30/16
f 36/26/17 37/31/17 41/32/17
f 38/27/18 41/32/18 42/33/18
f 37/31/19 39/34/19 41/32/19
f 11/30/20 42/33/20 16/35/20
f 41/32/21 39/34/21 44/36/21
f 39/34/22 46/37/22 44/36/22
f 42/33/23 45/38/23 16/35/23
f 44/36/24 13/39/24 45/38/24
f 13/39/25 47/40/25 45/38/25
f 69/17/26 31/18/26 71/29/26
f 48/41/27 50/42/27 13/39/27
f 55/43/28 51/44/28 48/41/28
f 52/45/29 56/46/29 49/47/29
f 54/48/30 53/49/30 51/44/30
f 55/43/31 54/48/31 51/44/31
f 17/50/32 59/51/32 55/43/32
f 52/45/33 61/52/33 56/46/33
f 56/46/34 61/52/34 14/53/34
f 52/45/35 63/54/35 61/52/35
f 58/55/36 63/54/36 52/45/36
f 57/56/37 66/57/37 60/58/37
f 66/57/38 65/59/38 60/58/38
f 65/59/39 3/60/39 63/54/39
f 66/57/40 4/61/40 65/59/40
f 62/62/41 4/61/41 66/57/41
f 67/63/42 4/61/42 62/62/42
f 64/64/43 1/65/43 61/52/43
f 65/59/44 106/66/44 3/60/44
f 3/60/45 2/67/45 64/64/45
f 68/9/46 70/68/46 94/69/46
f 70/68/47 72/70/47 94/69/47
f 69/17/48 71/29/48 70/68/48
f 71/29/49 73/28/49 70/68/49
f 70/68/50 73/28/50 72/70/50
f 72/70/51 74/71/51 94/69/51
f 73/28/52 74/71/52 72/70/52
f 73/28/53 75/72/53 74/71/53
f 97/73/54 74/71/54 95/74/54
f 74/71/55 77/75/55 95/74/55
f 75/72/56 76/76/56 79/77/56
f 75/72/57 79/77/57 78/78/57
f 95/74/58 77/75/58 1/65/58
f 76/76/59 10/79/59 79/77/59
f 73/28/60 11/30/60 10/79/60
f 14/53/61 78/78/61 15/80/61
f 81/81/62 12/22/62 80/21/62
f 81/81/63 83/82/63 12/22/63
f 82/10/64 84/83/64 26/11/64
f 85/84/65 84/83/65 82/10/65
f 81/81/66 84/83/66 88/85/66
f 84/83/67 87/86/67 88/85/67
f 85/84/68 87/86/68 84/83/68
f 86/87/69 89/88/69 87/86/69
f 88/85/70 87/86/70 92/89/70
f 89/88/71 91/90/71 87/86/71
f 107/91/72 90/92/72 111/93/72
f 88/85/73 92/89/73 43/94/73
f 91/90/74 5/95/74 87/86/74
f 91/90/75 90/92/75 5/95/75
f 87/86/76 5/95/76 17/50/76
f 92/89/77 93/96/77 43/94/77
f 5/95/78 62/62/78 17/50/78
f 26/11/79 81/81/79 80/21/79
f 93/96/80 55/43/80 48/41/80
f 94/69/81 97/73/81 8/7/81
f 8/7/82 97/73/82 98/3/82
f 95/74/83 1/65/83 96/97/83
f 95/74/84 96/97/84 100/98/84
f 97/73/85 100/98/85 99/99/85
f 96/97/86 2/67/86 100/98/86
f 100/98/87 103/100/87 101/101/87
f 98/3/88 99/99/88 104/102/88
f 99/99/89 105/103/89 104/102/89
f 101/101/90 102/104/90 105/103/90
f 103/100/91 3/60/91 106/66/91
f 105/103/92 107/91/92 104/102/92
f 7/105/93 104/102/93 108/106/93
f 104/102/94 107/91/94 111/93/94
f 102/104/95 106/66/95 109/107/95
f 102/104/96 109/107/96 107/91/96
f 106/66/97 4/61/97 109/107/97
f 109/107/98 4/61/98 67/63/98
f 19/108/99 6/109/99 82/10/99
f 8/7/100 18/2/100 22/8/100
f 18/2/101 20/4/101 22/8/101
f 19/108/102 82/10/102 24/12/102
f 22/8/103 20/4/103 27/6/103
f 23/5/104 19/108/104 24/12/104
f 27/6/105 23/5/105 25/13/105
f 22/8/106 27/6/106 29/16/106
f 28/15/107 26/11/107 80/21/107
f 68/9/108 22/8/108 69/17/108
f 69/17/109 22/8/109 29/16/109
f 30/14/110 28/15/110 9/20/110
f 8/7/111 98/3/111 18/2/111
f 98/3/112 7/105/112 21/1/112
f 70/68/113 68/9/113 69/17/113
f 94/69/114 8/7/114 68/9/114
f 31/18/115 32/19/115 33/24/115
f 32/19/116 9/20/116 34/23/116
f 31/18/117 33/24/117 35/25/117
f 71/29/118 31/18/118 35/25/118
f 12/22/119 83/82/119 110/110/119
f 35/25/120 33/24/120 36/26/120
f 36/26/121 33/24/121 37/31/121
f 33/24/122 34/23/122 37/31/122
f 71/29/123 35/25/123 38/27/123
f 37/31/124 34/23/124 40/111/124
f 39/34/125 37/31/125 40/111/125
f 71/29/126 38/27/126 11/30/126
f 38/27/127 36/26/127 41/32/127
f 40/111/128 110/110/128 43/94/128
f 11/30/129 38/27/129 42/33/129
f 39/34/130 40/111/130 43/94/130
f 11/30/131 16/35/131 10/79/131
f 42/33/132 41/32/132 44/36/132
f 42/33/133 44/36/133 45/38/133
f 44/36/134 46/37/134 13/39/134
f 46/37/135 93/96/135 48/41/135
f 10/79/136 16/35/136 79/77/136
f 46/37/137 48/41/137 13/39/137
f 45/38/138 49/47/138 16/35/138
f 13/39/139 50/42/139 47/40/139
f 47/40/140 50/42/140 49/47/140
f 48/41/141 51/44/141 50/42/141
f 49/47/142 15/80/142 78/78/142
f 51/44/143 53/49/143 50/42/143
f 49/47/144 56/46/144 15/80/144
f 55/43/145 57/56/145 54/48/145
f 56/46/146 14/53/146 15/80/146
f 55/43/147 59/51/147 57/56/147
f 54/48/148 57/56/148 60/58/148
f 66/57/149 57/56/149 62/62/149
f 59/51/150 62/62/150 57/56/150
f 53/49/151 60/58/151 58/55/151
f 61/52/152 63/54/152 64/64/152
f 64/64/153 63/54/153 3/60/153
f 58/55/154 65/59/154 63/54/154
f 21/1/155 23/5/155 20/4/155
f 17/50/156 62/62/156 59/51/156
f 16/35/157 49/47/157 79/77/157
f 64/64/158 2/67/158 1/65/158
f 73/28/159 76/76/159 75/72/159
f 73/28/160 10/79/160 76/76/160
f 74/71/161 75/72/161 77/75/161
f 77/75/162 75/72/162 78/78/162
f 82/10/163 6/109/163 85/84/163
f 1/65/164 77/75/164 14/53/164
f 78/78/165 79/77/165 49/47/165
f 1/65/166 14/53/166 61/52/166
f 94/69/167 74/71/167 97/73/167
f 26/11/168 84/83/168 81/81/168
f 83/82/169 81/81/169 88/85/169
f 85/84/170 86/87/170 87/86/170
f 86/87/171 90/92/171 89/88/171
f 89/88/172 90/92/172 91/90/172
f 92/89/173 87/86/173 17/50/173
f 93/96/174 92/89/174 55/43/174
f 92/89/175 17/50/175 55/43/175
f 5/95/176 67/63/176 62/62/176
f 9/20/177 80/21/177 12/22/177
f 43/94/178 93/96/178 46/37/178
f 95/74/179 100/98/179 97/73/179
f 96/97/180 1/65/180 2/67/180
f 98/3/181 97/73/181 99/99/181
f 99/99/182 100/98/182 101/101/182
f 7/105/183 98/3/183 104/102/183
f 99/99/184 101/101/184 105/103/184
f 101/101/185 103/100/185 102/104/185
f 102/104/186 103/100/186 106/66/186
f 105/103/187 102/104/187 107/91/187
f 7/105/188 108/106/188 6/109/188
f 26/11/189 28/15/189 24/12/189
f 28/15/190 25/13/190 24/12/190
f 47/40/191 49/47/191 45/38/191
f 43/94/192 46/37/192 39/34/192
f 52/45/193 49/47/193 50/42/193
f 54/48/194 60/58/194 53/49/194
f 58/55/195 52/45/195 53/49/195
f 78/78/196 14/53/196 77/75/196
f 65/59/197 58/55/197 60/58/197
f 106/66/198 65/59/198 4/61/198
f 103/100/199 100/98/199 2/67/199
f 67/63/200 107/91/200 109/107/200
f 50/42/201 53/49/201 52/45/201
f 103/100/202 2/67/202 3/60/202
f 32/19/203 29/16/203 30/14/203
f 110/110/204 34/23/204 12/22/204
f 110/110/205 88/85/205 43/94/205
f 86/87/206 111/93/206 90/92/206
f 111/93/207 108/106/207 104/102/207
f 85/84/208 108/106/208 86/87/208
f 7/105/209 19/108/209 21/1/209
f 23/5/210 21/1/210 19/108/210
f 21/1/211 20/4/211 18/2/211
f 107/91/212 5/95/212 90/92/212
f 67/63/213 5/95/213 107/91/213
f 110/110/214 40/111/214 34/23/214
f 110/110/215 83/82/215 88/85/215
f 86/87/216 108/106/216 111/93/216
f 85/84/217 6/109/217 108/106/217
f 7/105/218 6/109/218 19/108/218
