# Blender v3.0.0 OBJ File: 'Winter Forrest Pack.blend'
# www.blender.org
mtllib winter-plant1.mtl
o Cube_Cube.001
v -0.060012 0.000000 -2.042912
v -0.053092 0.245581 -2.070292
v -0.060012 0.000000 -2.162937
v -0.055774 0.244938 -2.136362
v 0.060012 0.000000 -2.042912
v 0.036708 0.271596 -2.059631
v 0.060012 0.000000 -2.162937
v 0.032937 0.270692 -2.152517
v -0.083671 0.467132 -2.055412
v -0.153314 0.447148 -2.161969
v -0.090621 0.495253 -2.178722
v -0.049427 0.480762 -2.070049
v -0.320770 0.590274 -2.011119
v -0.344047 0.607041 -2.029667
v -0.330281 0.644278 -2.019915
v -0.306932 0.627710 -2.001295
v -0.226753 0.569432 -2.114712
v -0.259268 0.598167 -2.121917
v -0.240943 0.574709 -2.164597
v -0.216789 0.609696 -2.166623
v -0.240185 0.628144 -2.123382
v -0.200614 0.601792 -2.105478
v -0.332797 0.630100 -2.299108
v -0.346699 0.638870 -2.283523
v -0.333781 0.669538 -2.286191
v -0.319869 0.660998 -2.302125
v -0.367531 0.590128 -1.862305
v -0.347310 0.582631 -1.852162
v -0.367311 0.615822 -1.849601
v -0.347089 0.608530 -1.839363
v -0.459086 0.614841 -2.340583
v -0.468206 0.618746 -2.331798
v -0.465896 0.637450 -2.335105
v -0.456758 0.633693 -2.343916
v -0.000897 0.398647 -2.160373
v 0.015934 0.399262 -2.104505
v -0.073708 0.407146 -2.052712
v -0.104034 0.355968 -2.149571
v 0.040425 0.337823 -2.091176
v -0.073087 0.298551 -2.141963
v 0.026997 0.337179 -2.158388
v -0.069825 0.299322 -2.078221
v 0.027159 0.304747 -2.154276
v -0.032414 0.398652 -2.166754
v -0.035615 0.413775 -2.069344
v 0.030157 0.304689 -2.062773
v 0.103876 0.407271 -2.174810
v 0.097947 0.451923 -2.177441
v 0.120253 0.451241 -2.133990
v 0.126520 0.406716 -2.129087
v 0.213721 0.427986 -2.241703
v 0.216473 0.456313 -2.246140
v 0.230837 0.455265 -2.218482
v 0.228345 0.427104 -2.212609
v -0.087670 0.491208 -2.095979
v -0.157071 0.461938 -2.106267
v -0.091904 0.341252 -2.085629
v -0.011736 0.374173 -2.076394
v -0.114883 0.376043 -2.152397
v -0.042453 0.415313 -2.168818
v -0.036241 0.411942 -2.082715
v -0.112710 0.379785 -2.092302
v 0.001493 0.465616 -1.993261
v -0.012763 0.459634 -1.989447
v -0.009579 0.435706 -1.993270
v 0.006183 0.439043 -1.998374
v 0.011894 0.430234 -1.896591
v 0.006777 0.428277 -1.896283
v 0.007607 0.420548 -1.899526
v 0.013242 0.421696 -1.900445
v -0.012704 0.460424 -1.993896
v -0.004513 0.464180 -1.995997
v -0.078272 0.467409 -2.054860
v -0.051212 0.478020 -2.066465
v 0.225620 0.454393 -2.220167
v 0.214362 0.455296 -2.241839
v 0.117931 0.450513 -2.137887
v 0.098592 0.450901 -2.174740
v -0.033920 0.410028 -2.088518
v 0.014093 0.398653 -2.108543
v -0.039318 0.413440 -2.165117
v -0.001476 0.397811 -2.157389
v -0.364176 0.613987 -1.852358
v -0.349849 0.609701 -1.845077
v -0.213844 0.605948 -2.164047
v -0.199420 0.598930 -2.109593
v -0.328888 0.641189 -2.014412
v -0.311377 0.627993 -2.000401
v -0.106202 0.503270 -2.105336
v -0.094585 0.497790 -2.175483
v -0.093921 0.503343 -2.174816
v -0.104242 0.519661 -2.103366
v -0.310713 0.633545 -1.999733
v -0.328224 0.646742 -2.013745
v -0.196326 0.602302 -2.108782
v -0.210114 0.608720 -2.163674
v -0.349184 0.615253 -1.844410
v -0.363512 0.619540 -1.851691
v -0.000812 0.403364 -2.156722
v -0.038654 0.418992 -2.164449
v 0.014757 0.404205 -2.107875
v -0.033255 0.415580 -2.087851
v 0.118595 0.456066 -2.137220
v 0.099256 0.456453 -2.174072
v 0.215026 0.460849 -2.241171
v 0.226284 0.459946 -2.219500
v -0.050548 0.483572 -2.065798
v -0.077608 0.472961 -2.054193
v -0.003849 0.469733 -1.995330
v -0.012040 0.465977 -1.993228
vt 0.004388 0.876171
vt 0.004388 0.876171
vt 0.004388 0.876171
vt 0.004388 0.876171
vt 0.004388 0.876171
vt 0.004388 0.876171
vt 0.004388 0.876171
vt 0.004388 0.876171
vt 0.004388 0.876171
vt 0.004388 0.876171
vt 0.004388 0.876171
vt 0.004388 0.876171
vt 0.004388 0.876171
vt 0.004388 0.876171
vt 0.004388 0.876171
vt 0.004388 0.876171
vt 0.004388 0.876171
vt 0.004388 0.876171
vt 0.004388 0.876171
vt 0.004388 0.876171
vt 0.004388 0.876171
vt 0.004388 0.876171
vt 0.004388 0.876171
vt 0.004388 0.876171
vt 0.004388 0.876171
vt 0.004388 0.876171
vt 0.004388 0.876171
vt 0.004388 0.876171
vt 0.004388 0.876171
vt 0.004388 0.876171
vt 0.004388 0.876171
vt 0.004388 0.876171
vt 0.004388 0.876171
vt 0.004388 0.876171
vt 0.004388 0.876171
vt 0.004388 0.876171
vt 0.004388 0.876171
vt 0.004388 0.876171
vt 0.004388 0.876171
vt 0.004388 0.876171
vt 0.004388 0.876171
vt 0.004388 0.876171
vt 0.004388 0.876171
vt 0.004388 0.876171
vt 0.004388 0.876171
vt 0.004388 0.876171
vt 0.004388 0.876171
vt 0.004388 0.876171
vt 0.004388 0.876171
vt 0.004388 0.876171
vt 0.004388 0.876171
vt 0.004388 0.876171
vt 0.004388 0.876171
vt 0.004388 0.876171
vt 0.004388 0.876171
vt 0.004388 0.876171
vt 0.004388 0.876171
vt 0.004388 0.876171
vt 0.004388 0.876171
vt 0.004388 0.876171
vt 0.004388 0.876171
vt 0.004388 0.876171
vt 0.004388 0.876171
vt 0.004388 0.876171
vt 0.004388 0.876171
vt 0.004388 0.876171
vt 0.004388 0.876171
vt 0.004388 0.876171
vt 0.004388 0.876171
vt 0.004388 0.876171
vt 0.992638 0.541329
vt 0.992638 0.541329
vt 0.992638 0.541329
vt 0.992638 0.541329
vt 0.992638 0.541329
vt 0.992638 0.541329
vt 0.992638 0.541329
vt 0.992638 0.541329
vt 0.992638 0.541329
vt 0.992638 0.541329
vt 0.992638 0.541329
vt 0.992638 0.541329
vt 0.992638 0.541329
vt 0.992638 0.541329
vt 0.992638 0.541329
vt 0.992638 0.541329
vt 0.992638 0.541329
vt 0.992638 0.541329
vt 0.992638 0.541329
vt 0.992638 0.541329
vt 0.992638 0.541329
vt 0.992638 0.541329
vt 0.992638 0.541329
vt 0.992638 0.541329
vt 0.992638 0.541329
vt 0.992638 0.541329
vt 0.992638 0.541329
vt 0.992638 0.541329
vt 0.992638 0.541329
vt 0.992638 0.541329
vt 0.992638 0.541329
vt 0.992638 0.541329
vt 0.992638 0.541329
vt 0.992638 0.541329
vt 0.992638 0.541329
vt 0.992638 0.541329
vt 0.992638 0.541329
vt 0.992638 0.541329
vt 0.992638 0.541329
vt 0.992638 0.541329
vn -0.9999 0.0173 0.0000
vn 0.0000 0.1079 -0.9942
vn 0.9963 0.0855 0.0000
vn 0.0000 0.1108 0.9938
vn 0.0000 -1.0000 0.0000
vn 0.1984 -0.0019 -0.9801
vn 0.9173 -0.3745 0.1351
vn -0.8817 -0.4679 0.0610
vn 0.8233 0.1640 -0.5433
vn -0.1172 -0.1913 -0.9745
vn -0.2417 -0.0807 0.9670
vn -0.0909 0.0051 -0.9958
vn 0.6991 0.7149 0.0100
vn 0.5191 0.8508 -0.0821
vn -0.4007 -0.8709 -0.2845
vn -0.8135 -0.5553 0.1727
vn 0.4549 0.8542 0.2517
vn 0.6342 -0.4069 0.6574
vn -0.6631 0.3909 -0.6384
vn -0.3906 0.2069 0.8970
vn -0.5262 -0.8503 0.0091
vn 0.6784 -0.3471 -0.6475
vn -0.7152 0.4801 0.5079
vn -0.5227 -0.3742 0.7660
vn 0.2540 0.9511 0.1757
vn -0.9753 0.1046 -0.1946
vn -0.4927 -0.8562 -0.1557
vn 0.5674 0.8223 -0.0438
vn -0.6719 -0.7318 0.1137
vn -0.7019 -0.0391 -0.7112
vn -0.0551 0.8966 -0.4395
vn -0.0439 -0.8869 0.4599
vn 0.3254 -0.2258 -0.9182
vn -0.1075 -0.1976 -0.9744
vn -0.1519 0.0939 0.9839
vn -0.8820 -0.4675 0.0597
vn -0.4536 0.8821 0.1269
vn 0.9809 0.1902 -0.0417
vn -0.9519 -0.3019 0.0524
vn -0.1570 0.0961 0.9829
vn -0.1568 -0.0775 -0.9846
vn 0.1981 0.0583 -0.9784
vn 0.4347 0.4157 0.7989
vn 0.3705 0.9288 0.0096
vn 0.9805 -0.0199 -0.1957
vn 0.6007 0.1119 0.7916
vn 0.2063 0.1357 0.9690
vn -0.1286 -0.0903 -0.9876
vn 0.5261 -0.8063 -0.2703
vn 0.8783 -0.1708 -0.4466
vn -0.5004 -0.1170 -0.8579
vn 0.1337 -0.9879 -0.0782
vn -0.0116 0.9990 0.0439
vn -0.3987 0.7708 0.4968
vn -0.6225 -0.2053 0.7552
vn 0.5894 0.2540 -0.7669
vn 0.3887 0.0709 0.9186
vn 0.8421 0.5277 -0.1118
vn 0.8412 0.5392 -0.0396
vn -0.1148 -0.1900 -0.9751
vn -0.5544 -0.1606 0.8166
vn -0.8815 -0.4682 0.0610
vn 0.5221 0.4560 0.7208
vn 0.1666 -0.9681 -0.1871
vn -0.2776 0.8908 0.3598
vn 0.2479 -0.9502 0.1891
vn -0.6784 -0.2031 0.7061
vn 0.2207 -0.3571 0.9076
vn -0.9748 -0.1669 0.1483
vn 0.9827 0.1809 -0.0388
vn -0.2789 0.8917 0.3564
vn 0.6683 0.7394 -0.0814
vn 0.2051 0.9648 0.1644
vn -0.4475 0.8852 0.1274
vn 0.3792 0.9252 0.0145
vn -0.0106 0.9988 0.0471
vn -0.3054 0.8755 0.3744
vn 0.3097 -0.1499 0.9390
vn -0.7419 0.6186 0.2587
vn -0.9912 0.1096 0.0747
vn 0.0118 0.1179 -0.9930
vn 0.3493 -0.1529 0.9244
vn -0.4411 0.1589 -0.8833
vn -0.1481 -0.1005 0.9838
vn -0.4994 0.1620 -0.8511
vn 0.6326 0.0174 -0.7743
vn 0.2342 0.0883 -0.9682
vn 0.6025 -0.1659 0.7807
vn 0.9754 -0.1374 0.1723
vn -0.9722 0.1390 -0.1884
vn 0.8854 -0.0504 -0.4620
vn 0.2152 -0.9168 -0.3365
vn 0.0200 -0.9996 -0.0210
vn -0.3792 -0.9252 -0.0145
vn 0.4475 -0.8852 -0.1274
vn -0.4526 -0.8581 -0.2426
vn -0.7133 -0.6979 -0.0636
vn 0.3384 -0.1521 0.9286
vn -0.4645 -0.0507 0.8841
vn 0.8302 -0.0324 -0.5565
vn -0.2429 0.1443 -0.9593
vn 0.9646 -0.1421 0.2222
vn -0.6813 -0.0065 0.7320
vn -0.9987 0.0326 0.0402
vn -0.1846 0.0194 -0.9826
vn 0.9940 0.1010 -0.0413
vn -0.1319 0.0496 0.9900
vn 0.9668 -0.1197 0.2256
vn -0.8827 -0.4662 0.0602
vn 0.8298 0.2431 -0.5023
vn -0.1148 -0.1991 -0.9732
vn -0.1277 -0.0454 0.9908
vn -0.1611 -0.1308 -0.9782
vn 0.6655 0.7421 -0.0801
vn 0.4880 0.8718 -0.0412
vn -0.5686 -0.7357 -0.3680
vn -0.8391 -0.5372 0.0860
vn 0.4289 0.8715 0.2376
vn 0.4922 -0.5822 0.6471
vn -0.6522 0.4084 -0.6387
vn -0.3879 0.2408 0.8897
vn -0.6297 -0.7624 0.1487
vn 0.6274 -0.4691 -0.6216
vn -0.7628 0.3676 0.5320
vn -0.5229 -0.3741 0.7659
vn 0.4281 0.8716 0.2387
vn -0.9257 0.3666 -0.0929
vn -0.3032 -0.9480 -0.0962
vn -0.7018 -0.0391 -0.7113
vn -0.0247 0.8720 -0.4889
vn -0.0071 -0.9165 0.3999
vn 0.3276 -0.2036 -0.9226
vn -0.1186 -0.1930 -0.9740
vn -0.1571 0.0979 0.9827
vn -0.8874 -0.4583 0.0510
vn -0.3869 0.8972 0.2127
vn 0.9857 0.1656 -0.0322
vn -0.9557 -0.2914 0.0416
vn -0.1367 0.0668 0.9884
vn -0.1123 -0.1390 -0.9839
vn 0.0096 -0.1257 -0.9920
vn 0.2066 0.9757 -0.0730
vn 0.9468 -0.3202 -0.0312
vn 0.6042 0.1707 0.7783
vn 0.1903 0.2800 0.9410
vn -0.1300 -0.0755 -0.9886
vn 0.6540 -0.7463 -0.1235
vn 0.8740 -0.1569 -0.4599
vn -0.4972 -0.0869 -0.8633
vn 0.1286 -0.9872 -0.0946
vn -0.0175 0.9995 0.0247
vn -0.1176 0.8489 0.5154
vn 0.9769 0.2007 -0.0733
vn 0.0894 -0.4647 0.8809
vn 0.8568 0.5156 -0.0053
vn -0.1158 -0.1937 -0.9742
vn -0.6817 -0.0805 0.7272
vn -0.8826 -0.4657 0.0641
vn 0.4801 0.3645 0.7979
vn 0.1466 -0.9722 -0.1828
vn -0.2190 0.9148 0.3394
vn 0.2603 -0.9478 0.1841
vn -0.6595 -0.0759 0.7479
vn 0.1986 -0.3770 0.9047
vn -0.9759 -0.1544 0.1539
vn 0.9838 0.1743 -0.0420
vn -0.3140 0.8780 0.3614
vn 0.6661 0.7422 -0.0733
vn 0.4526 0.8581 0.2426
vn -0.3877 0.8968 0.2129
vn 0.1981 0.9769 -0.0800
vn -0.0200 0.9996 0.0210
vn -0.2152 0.9168 0.3365
vn 0.3096 -0.1499 0.9390
vn -0.5930 0.7636 0.2555
vn 0.0117 0.1179 -0.9930
vn -0.1481 -0.1005 0.9839
vn 0.2342 0.0884 -0.9682
vn -0.9722 0.1389 -0.1884
vn 0.3054 -0.8755 -0.3744
vn 0.0106 -0.9988 -0.0471
vn -0.1981 -0.9769 0.0800
vn 0.3877 -0.8968 -0.2129
vn -0.2051 -0.9648 -0.1644
vn -0.6654 -0.7422 0.0806
vn -0.2429 0.1444 -0.9592
usemtl Objects
s off
f 1/1/1 4/2/1 3/3/1
f 4/2/2 7/4/2 3/3/2
f 7/4/3 6/5/3 5/6/3
f 5/6/4 2/7/4 1/1/4
f 7/4/5 1/1/5 3/3/5
f 35/8/6 44/9/6 60/10/6
f 16/11/7 28/12/7 13/13/7
f 38/14/8 62/15/8 59/16/8
f 12/17/9 66/18/9 45/19/9
f 44/9/10 59/16/10 60/10/10
f 56/20/11 22/21/11 17/22/11
f 11/23/12 19/24/12 20/25/12
f 11/23/13 22/21/13 55/26/13
f 20/25/14 25/27/14 21/28/14
f 18/29/15 13/13/15 14/30/15
f 10/31/16 17/22/16 19/24/16
f 21/28/17 16/11/17 22/21/17
f 17/22/18 16/11/18 13/13/18
f 18/29/19 15/32/19 21/28/19
f 24/33/20 33/34/20 32/35/20
f 19/24/21 24/33/21 23/36/21
f 20/25/22 23/36/22 26/37/22
f 21/28/23 24/33/23 18/29/23
f 27/38/24 30/39/24 29/40/24
f 16/11/25 29/40/25 30/39/25
f 15/32/26 27/38/26 29/40/26
f 13/13/27 27/38/27 14/30/27
f 22/21/28 20/25/28 21/28/28
f 19/24/29 17/22/29 18/29/29
f 32/35/30 34/41/30 31/42/30
f 25/27/31 34/41/31 33/34/31
f 24/33/32 31/42/32 23/36/32
f 23/36/33 34/41/33 26/37/33
f 40/43/34 44/9/34 43/44/34
f 42/45/35 58/46/35 57/47/35
f 40/43/36 57/47/36 38/14/36
f 36/48/37 48/49/37 35/8/37
f 8/50/38 46/51/38 6/5/38
f 4/2/39 42/45/39 40/43/39
f 2/7/40 46/51/40 42/45/40
f 4/2/41 43/44/41 8/50/41
f 41/52/42 44/9/42 35/8/42
f 61/53/43 58/46/43 36/48/43
f 61/53/44 35/8/44 60/10/44
f 39/54/45 43/44/45 41/52/45
f 49/55/46 54/56/46 53/57/46
f 36/48/47 50/58/47 49/55/47
f 35/8/48 47/59/48 41/52/48
f 39/54/49 47/59/49 50/58/49
f 51/60/50 53/57/50 54/56/50
f 48/49/51 51/60/51 47/59/51
f 47/59/52 54/56/52 50/58/52
f 48/49/53 53/57/53 52/61/53
f 9/62/54 55/26/54 56/20/54
f 37/63/55 62/15/55 57/47/55
f 12/17/56 61/53/56 55/26/56
f 37/63/57 58/46/57 45/19/57
f 61/53/58 45/19/58 58/46/58
f 60/10/59 55/26/59 61/53/59
f 60/10/60 10/31/60 11/23/60
f 62/15/61 9/62/61 56/20/61
f 62/15/62 10/31/62 59/16/62
f 39/54/63 58/46/63 46/51/63
f 65/64/64 70/65/64 69/66/64
f 12/17/65 64/67/65 63/68/65
f 45/19/66 65/64/66 37/63/66
f 9/62/67 65/64/67 64/67/67
f 70/65/68 68/69/68 69/66/68
f 64/67/69 69/66/69 68/69/69
f 63/68/70 70/65/70 66/18/70
f 64/67/71 67/70/71 63/68/71
f 92/71/72 96/72/72 95/73/72
f 93/74/73 98/75/73 97/76/73
f 101/77/74 104/78/74 99/79/74
f 102/80/75 99/79/75 100/81/75
f 104/78/76 106/82/76 105/83/76
f 107/84/77 110/85/77 109/86/77
f 110/85/78 72/87/78 109/86/78
f 96/72/79 86/88/79 95/73/79
f 100/81/80 79/89/80 102/80/80
f 91/90/81 85/91/81 96/72/81
f 79/89/82 101/77/82 102/80/82
f 74/92/83 108/93/83 107/84/83
f 86/88/84 92/71/84 95/73/84
f 76/94/85 104/78/85 105/83/85
f 93/74/86 87/95/86 94/96/86
f 99/79/87 81/97/87 100/81/87
f 103/98/88 75/99/88 106/82/88
f 89/100/89 91/90/89 92/71/89
f 87/95/90 98/75/90 94/96/90
f 75/99/91 105/83/91 106/82/91
f 74/92/92 71/101/92 73/102/92
f 78/103/93 75/99/93 77/104/93
f 82/105/94 79/89/94 81/97/94
f 78/103/95 80/106/95 82/105/95
f 88/107/96 83/108/96 87/95/96
f 86/88/97 90/109/97 89/100/97
f 101/77/98 77/104/98 103/98/98
f 83/108/99 97/76/99 98/75/99
f 72/87/100 107/84/100 109/86/100
f 78/103/101 99/79/101 104/78/101
f 97/76/102 88/107/102 93/74/102
f 108/93/103 71/101/103 110/85/103
f 1/1/104 2/7/104 4/2/104
f 4/2/105 8/50/105 7/4/105
f 7/4/106 8/50/106 6/5/106
f 5/6/107 6/5/107 2/7/107
f 7/4/5 5/6/5 1/1/5
f 16/11/108 30/39/108 28/12/108
f 38/14/109 57/47/109 62/15/109
f 12/17/110 63/68/110 66/18/110
f 44/9/111 38/14/111 59/16/111
f 56/20/112 55/26/112 22/21/112
f 11/23/113 10/31/113 19/24/113
f 11/23/114 20/25/114 22/21/114
f 20/25/115 26/37/115 25/27/115
f 18/29/116 17/22/116 13/13/116
f 10/31/117 56/20/117 17/22/117
f 21/28/118 15/32/118 16/11/118
f 17/22/119 22/21/119 16/11/119
f 18/29/120 14/30/120 15/32/120
f 24/33/121 25/27/121 33/34/121
f 19/24/122 18/29/122 24/33/122
f 20/25/123 19/24/123 23/36/123
f 21/28/124 25/27/124 24/33/124
f 27/38/125 28/12/125 30/39/125
f 16/11/126 15/32/126 29/40/126
f 15/32/127 14/30/127 27/38/127
f 13/13/128 28/12/128 27/38/128
f 32/35/129 33/34/129 34/41/129
f 25/27/130 26/37/130 34/41/130
f 24/33/131 32/35/131 31/42/131
f 23/36/132 31/42/132 34/41/132
f 40/43/133 38/14/133 44/9/133
f 42/45/134 46/51/134 58/46/134
f 40/43/135 42/45/135 57/47/135
f 36/48/136 49/55/136 48/49/136
f 8/50/137 43/44/137 46/51/137
f 4/2/138 2/7/138 42/45/138
f 2/7/139 6/5/139 46/51/139
f 4/2/140 40/43/140 43/44/140
f 41/52/141 43/44/141 44/9/141
f 61/53/142 36/48/142 35/8/142
f 39/54/143 46/51/143 43/44/143
f 49/55/144 50/58/144 54/56/144
f 36/48/145 39/54/145 50/58/145
f 35/8/146 48/49/146 47/59/146
f 39/54/147 41/52/147 47/59/147
f 51/60/148 52/61/148 53/57/148
f 48/49/149 52/61/149 51/60/149
f 47/59/150 51/60/150 54/56/150
f 48/49/151 49/55/151 53/57/151
f 9/62/152 12/17/152 55/26/152
f 12/17/153 45/19/153 61/53/153
f 37/63/154 57/47/154 58/46/154
f 60/10/155 11/23/155 55/26/155
f 60/10/156 59/16/156 10/31/156
f 62/15/157 37/63/157 9/62/157
f 62/15/158 56/20/158 10/31/158
f 39/54/159 36/48/159 58/46/159
f 65/64/160 66/18/160 70/65/160
f 12/17/161 9/62/161 64/67/161
f 45/19/162 66/18/162 65/64/162
f 9/62/163 37/63/163 65/64/163
f 70/65/164 67/70/164 68/69/164
f 64/67/165 65/64/165 69/66/165
f 63/68/166 67/70/166 70/65/166
f 64/67/167 68/69/167 67/70/167
f 92/71/168 91/90/168 96/72/168
f 93/74/169 94/96/169 98/75/169
f 101/77/170 103/98/170 104/78/170
f 102/80/171 101/77/171 99/79/171
f 104/78/172 103/98/172 106/82/172
f 107/84/173 108/93/173 110/85/173
f 110/85/174 71/101/174 72/87/174
f 96/72/175 85/91/175 86/88/175
f 100/81/80 81/97/80 79/89/80
f 91/90/176 90/109/176 85/91/176
f 79/89/82 80/106/82 101/77/82
f 74/92/83 73/102/83 108/93/83
f 86/88/177 89/100/177 92/71/177
f 76/94/85 78/103/85 104/78/85
f 93/74/86 88/107/86 87/95/86
f 99/79/178 82/105/178 81/97/178
f 103/98/88 77/104/88 75/99/88
f 89/100/89 90/109/89 91/90/89
f 87/95/179 83/108/179 98/75/179
f 75/99/91 76/94/91 105/83/91
f 74/92/180 72/87/180 71/101/180
f 78/103/181 76/94/181 75/99/181
f 82/105/182 80/106/182 79/89/182
f 78/103/183 77/104/183 80/106/183
f 88/107/184 84/110/184 83/108/184
f 86/88/185 85/91/185 90/109/185
f 101/77/98 80/106/98 77/104/98
f 83/108/99 84/110/99 97/76/99
f 72/87/100 74/92/100 107/84/100
f 78/103/186 82/105/186 99/79/186
f 97/76/102 84/110/102 88/107/102
f 108/93/103 73/102/103 71/101/103
