# Blender v3.0.0 OBJ File: 'Winter Forrest Pack.blend'
# www.blender.org
mtllib winter-rock4.mtl
o Cube.011_Cube.013
v -8.876421 -0.020042 -4.768597
v -8.775672 1.951761 -3.817402
v -9.133341 0.121165 -7.210571
v -9.043081 0.003695 -7.186187
v -7.855907 0.122006 -4.136756
v -8.864614 1.194458 -4.111660
v -9.194496 1.458723 -6.786585
v -9.291210 1.393147 -6.556580
v -8.618703 0.846906 -5.705560
v -8.811397 1.927869 -5.380202
v -9.039011 1.423442 -5.206832
v -7.660290 0.984729 -4.703894
v -7.538741 0.321113 -4.742707
v -8.953164 1.080413 -6.143869
v -8.850535 1.213931 -5.849965
v -9.269133 1.585983 -6.175540
v -9.161366 1.758188 -5.037016
v -9.059720 2.057804 -4.455799
v -7.628966 2.179668 -5.092767
v -7.285142 0.858945 -6.377051
v -8.685048 1.628518 -6.818291
v -8.344066 1.531343 -6.912204
v -7.406711 1.698070 -4.992944
v -7.340672 2.087785 -4.399700
v -7.312716 1.931461 -4.215365
v -7.428281 1.908431 -3.985183
v -7.683661 2.002422 -3.817240
v -8.215448 2.206231 -3.739965
v -8.268976 1.908177 -3.725802
v -7.946218 0.074585 -4.253423
v -8.366724 -0.064644 -4.438322
v -8.525593 -0.005821 -4.081064
v -8.165745 -0.007922 -4.105824
v -7.482018 2.183217 -4.225633
v -7.969237 2.322260 -3.995843
v -8.963311 2.019777 -4.103821
v -8.690241 2.156759 -3.958126
v -8.866932 -0.014470 -4.509373
v -8.830108 0.122918 -4.176672
v -8.674235 -0.000436 -4.160367
v -8.177952 1.254252 -4.245181
v -8.359085 0.718871 -3.885668
v -8.487034 1.237794 -4.096353
v -7.534667 0.133590 -4.980642
v -7.711183 0.106775 -4.420763
v -7.596261 0.368926 -4.081637
v -7.763361 1.095162 -4.407591
v -9.229652 0.513834 -7.144135
v -8.785801 -0.028550 -7.361919
v -9.042647 0.899244 -7.196008
v -8.333593 -0.049909 -7.333118
v -8.060906 0.816477 -7.004632
v -7.761117 0.063668 -7.182541
v -7.538734 0.998575 -6.720846
v -7.189793 0.229123 -6.669498
v -7.157048 0.466811 -6.592886
v -7.054575 0.534255 -6.065487
v -7.410911 0.314501 -5.177997
v -7.492273 0.748404 -5.157684
v -9.248636 0.238102 -7.028850
v -8.952705 0.545989 -6.269628
v -9.385311 0.670233 -6.918657
v -9.264225 0.566046 -6.585665
v -9.226526 1.073688 -6.488310
v -9.202840 1.190248 -7.146671
v -8.757190 0.767410 -6.033852
v -8.856870 0.967674 -6.051188
v -8.560111 0.780737 -5.502140
v -8.781228 1.125173 -5.623934
v -8.968566 0.241730 -4.847736
v -8.945458 0.890555 -5.017457
v -9.127202 1.714572 -5.354044
v -9.034304 1.696249 -6.282264
v -8.754930 1.759649 -6.355013
v -8.407311 2.007076 -5.568338
v -8.893076 2.204651 -4.711364
v -8.239878 2.350304 -5.044304
v -8.534536 -0.065373 -7.277083
v -8.073187 -0.064985 -6.954398
v -7.458275 0.005192 -6.706352
v -8.456195 -0.064782 -6.866183
v -7.915458 -0.005159 -6.629609
v -7.386839 0.339777 -6.086536
v -8.316390 0.625222 -6.136175
v -7.083704 0.319440 -6.244474
v -7.296488 0.374574 -5.618549
v -7.245368 0.548335 -5.383588
v -8.624453 0.607316 -5.210295
v -7.409404 0.334725 -5.371379
v -8.702871 -0.036639 -4.921056
v -7.627432 0.129765 -5.103612
v -8.572030 -0.064293 -4.732116
v -7.756198 1.499906 -6.383492
v -7.521792 1.405209 -6.254943
v -7.540363 1.785783 -5.547838
v -7.411926 1.710157 -5.446768
v -7.276168 1.207387 -5.438734
v -7.178145 0.543374 -5.623845
v -7.191177 0.949211 -5.679122
v -8.176793 1.704321 -6.409661
v -7.924312 2.262162 -5.069338
v -7.980838 1.898217 -5.558253
vt 0.620564 0.661220
vt 0.620564 0.661220
vt 0.620564 0.661220
vt 0.620564 0.661220
vt 0.620564 0.661220
vt 0.620564 0.661220
vt 0.620564 0.661220
vt 0.620564 0.661220
vt 0.620564 0.661220
vt 0.620564 0.661220
vt 0.620564 0.661220
vt 0.620564 0.661220
vt 0.620564 0.661220
vt 0.620564 0.661220
vt 0.620564 0.661220
vt 0.620564 0.661220
vt 0.620564 0.661220
vt 0.620564 0.661220
vt 0.620564 0.661220
vt 0.620564 0.661220
vt 0.620564 0.661220
vt 0.620564 0.661220
vt 0.620564 0.661220
vt 0.620564 0.661220
vt 0.620564 0.661220
vt 0.620564 0.661220
vt 0.620564 0.661220
vt 0.620564 0.661220
vt 0.620564 0.661220
vt 0.620564 0.661220
vt 0.620564 0.661220
vt 0.620564 0.661220
vt 0.620564 0.661220
vt 0.620564 0.661220
vt 0.620564 0.661220
vt 0.620564 0.661220
vt 0.620564 0.661220
vt 0.620564 0.661220
vt 0.620564 0.661220
vt 0.620564 0.661220
vt 0.620564 0.661220
vt 0.620564 0.661220
vt 0.620564 0.661220
vt 0.620564 0.661220
vt 0.620564 0.661220
vt 0.620564 0.661220
vt 0.620564 0.661220
vt 0.620564 0.661220
vt 0.620564 0.661220
vt 0.620564 0.661220
vt 0.620564 0.661220
vt 0.620564 0.661220
vt 0.620564 0.661220
vt 0.620564 0.661220
vt 0.620564 0.661220
vt 0.620564 0.661220
vt 0.620564 0.661220
vt 0.620564 0.661220
vt 0.620564 0.661220
vt 0.620564 0.661220
vt 0.620564 0.661220
vt 0.620564 0.661220
vt 0.620564 0.661220
vt 0.620564 0.661220
vt 0.620564 0.661220
vt 0.620564 0.661220
vt 0.620564 0.661220
vt 0.620564 0.661220
vt 0.620564 0.661220
vt 0.620564 0.661220
vt 0.620564 0.661220
vt 0.620564 0.661220
vt 0.620564 0.661220
vt 0.620564 0.661220
vt 0.620564 0.661220
vt 0.620564 0.661220
vt 0.620564 0.661220
vt 0.620564 0.661220
vt 0.620564 0.661220
vt 0.620564 0.661220
vt 0.620564 0.661220
vt 0.620564 0.661220
vt 0.620564 0.661220
vt 0.620564 0.661220
vt 0.620564 0.661220
vt 0.620564 0.661220
vt 0.620564 0.661220
vt 0.620564 0.661220
vt 0.620564 0.661220
vt 0.620564 0.661220
vt 0.620564 0.661220
vt 0.620564 0.661220
vt 0.620564 0.661220
vt 0.620564 0.661220
vt 0.620564 0.661220
vt 0.620564 0.661220
vt 0.620564 0.661220
vt 0.620564 0.661220
vt 0.620564 0.661220
vt 0.620564 0.661220
vt 0.620564 0.661220
vt 0.620564 0.661220
vn -0.0361 0.6262 -0.7789
vn 0.2039 0.2045 -0.9574
vn 0.1138 -0.5489 0.8281
vn -0.1469 -0.9888 0.0266
vn -0.1137 -0.9882 0.1025
vn 0.3291 -0.9435 -0.0380
vn 0.3917 -0.9175 0.0697
vn 0.2656 0.9631 -0.0428
vn -0.2189 0.9723 0.0825
vn 0.3531 0.6763 0.6465
vn -0.9573 -0.1520 0.2458
vn -0.5327 0.8133 0.2338
vn -0.9463 -0.3206 0.0415
vn -0.9723 -0.1576 0.1727
vn -0.4340 -0.4449 0.7833
vn -0.4957 -0.1181 0.8604
vn 0.1943 -0.2367 0.9520
vn 0.0644 -0.2736 0.9597
vn 0.3739 0.4266 0.8236
vn -0.3797 0.0600 -0.9232
vn 0.2047 0.2269 -0.9521
vn 0.6344 0.1566 -0.7570
vn 0.2565 -0.9260 -0.2769
vn 0.9805 -0.0768 -0.1807
vn 0.6402 -0.7682 0.0034
vn 0.9612 0.0673 0.2675
vn 0.7151 0.1017 0.6915
vn -0.5397 -0.6857 0.4884
vn -0.9394 0.0040 0.3428
vn -0.9027 -0.0930 0.4202
vn -0.8127 0.0300 -0.5819
vn -0.6210 -0.2446 0.7447
vn -0.7698 -0.1468 0.6212
vn -0.7165 -0.5459 0.4344
vn -0.6440 -0.5869 -0.4907
vn -0.8637 -0.4038 0.3017
vn 0.3935 -0.2457 -0.8859
vn -0.9616 -0.1921 0.1962
vn -0.6034 -0.7877 -0.1243
vn -0.7897 0.5906 -0.1663
vn -0.9468 -0.3164 -0.0585
vn 0.4182 0.8070 -0.4170
vn -0.1382 -0.9902 -0.0206
vn 0.2432 -0.9059 -0.3467
vn -0.3645 -0.7852 0.5005
vn 0.0464 -0.9886 0.1431
vn -0.0791 -0.6451 0.7600
vn 0.0978 -0.8804 0.4640
vn 0.1767 -0.8745 0.4517
vn -0.2929 -0.9477 0.1270
vn 0.5251 -0.7653 -0.3723
vn -0.0932 -0.3985 -0.9124
vn -0.5277 -0.2937 -0.7970
vn 0.1699 -0.9806 -0.0977
vn -0.6216 -0.4189 -0.6619
vn 0.3865 0.2672 -0.8827
vn 0.5437 0.6180 -0.5678
vn 0.5552 0.6165 -0.5583
vn 0.6782 0.6158 -0.4010
vn -0.2919 0.7700 -0.5673
vn 0.1611 0.2505 -0.9546
vn 0.9914 0.0266 -0.1278
vn 0.4831 0.8714 -0.0854
vn 0.7751 0.5350 0.3361
vn 0.7431 0.5170 0.4248
vn 0.8031 -0.4782 0.3554
vn 0.5825 0.5968 0.5518
vn 0.3168 -0.5367 0.7821
vn 0.1512 0.0198 0.9883
vn 0.2165 -0.5885 0.7789
vn 0.3885 -0.5393 0.7471
vn -0.3785 0.6259 0.6819
vn -0.2060 0.9505 0.2328
vn -0.1102 -0.9910 0.0758
vn 0.2456 -0.9559 0.1611
vn -0.0991 -0.9880 0.1186
vn 0.0056 -0.9863 0.1649
vn 0.2605 -0.9478 0.1836
vn -0.1643 0.9806 0.1066
vn 0.2536 0.9662 -0.0469
vn 0.4562 0.7082 0.5388
vn -0.9642 -0.1176 0.2376
vn -0.8431 -0.1058 0.5272
vn -0.5889 0.6096 0.5306
vn -0.4768 0.8597 0.1831
vn -0.3248 -0.0677 0.9434
vn 0.4700 0.4492 0.7598
vn 0.3999 0.4138 0.8178
vn -0.0788 0.3583 0.9303
vn 0.9818 0.1756 0.0727
vn 0.6064 -0.7152 0.3474
vn 0.9285 0.3072 0.2085
vn -0.2817 0.0076 -0.9595
vn -0.5205 -0.5376 -0.6634
vn 0.0790 0.6282 -0.7740
vn 0.1410 0.2805 -0.9494
vn -0.0227 -0.9399 -0.3407
vn 0.5016 0.3831 -0.7757
vn 0.4460 0.1062 -0.8887
vn 0.7898 0.4729 -0.3905
vn 0.9624 0.0846 -0.2582
vn 0.7116 0.0915 0.6966
vn 0.8891 -0.1548 0.4308
vn 0.9063 -0.3243 0.2711
vn 0.8984 -0.1524 0.4120
vn -0.7795 -0.6189 -0.0963
vn -0.8771 -0.1621 -0.4522
vn -0.8548 -0.1244 -0.5038
vn -0.7812 -0.0611 0.6212
vn -0.9463 0.2346 -0.2224
vn -0.7079 -0.1624 0.6874
vn -0.8511 -0.5194 0.0762
vn -0.6887 -0.3471 -0.6366
vn -0.8697 -0.4408 -0.2223
vn -0.7171 -0.6949 0.0537
vn -0.9235 -0.1609 -0.3483
vn -0.8860 0.3814 -0.2638
vn -0.7119 0.6950 -0.1012
vn -0.7619 -0.4468 0.4690
vn -0.8181 -0.4927 0.2967
vn -0.7828 -0.0256 0.6218
vn -0.5396 0.7526 -0.3774
vn -0.7847 0.5964 -0.1690
vn -0.3175 0.8928 -0.3196
vn 0.1596 0.9159 -0.3684
vn 0.0728 -0.9972 -0.0140
vn -0.1299 -0.9912 0.0262
vn 0.0405 -0.9832 0.1779
vn -0.4716 -0.7378 0.4830
vn -0.1882 -0.7603 0.6218
vn -0.2482 -0.6900 0.6799
vn -0.0615 -0.7016 0.7099
vn -0.2960 -0.9178 0.2647
vn -0.0257 -0.9965 0.0791
vn -0.4195 -0.8918 -0.1693
vn -0.3170 -0.9029 -0.2904
vn -0.2236 -0.9215 0.3175
vn 0.1126 -0.9690 -0.2198
vn 0.1578 -0.9812 -0.1114
vn 0.2520 -0.9672 0.0331
vn -0.1379 -0.9892 -0.0493
vn 0.7992 0.4382 -0.4115
vn 0.5217 0.7569 -0.3937
vn 0.8800 0.4275 -0.2070
vn 0.8990 0.4024 -0.1731
vn 0.8745 0.4519 -0.1762
vn 0.9654 0.2606 -0.0042
vn 0.9079 0.4191 0.0007
vn 0.8832 0.3408 -0.3222
vn 0.7204 -0.5295 0.4479
vn 0.9406 -0.3392 -0.0119
vn -0.6017 -0.7126 0.3609
vn -0.9631 -0.0908 0.2535
vn 0.0984 -0.3143 0.9442
vn 0.7643 -0.6091 0.2118
vn 0.9909 -0.0967 0.0932
vn 0.6041 -0.6480 -0.4638
vn -0.3749 0.0645 -0.9248
vn -0.9115 -0.3453 0.2234
vn -0.9594 -0.1633 0.2300
vn -0.6176 -0.1784 -0.7660
vn -0.5255 0.7710 -0.3597
vn -0.2848 0.9102 -0.3006
vn 0.2381 0.8985 -0.3689
vn -0.0002 -1.0000 0.0015
vn -0.2519 -0.8066 -0.5348
vn -0.2428 -0.6647 -0.7065
vn 0.7730 -0.5788 0.2598
vn 0.0038 -0.3626 0.9319
vn -0.1709 0.0774 0.9822
vn 0.9500 0.1582 0.2693
vn -0.9799 -0.0434 0.1945
vn -0.8280 -0.3419 0.4444
vn 0.7902 -0.6101 -0.0576
vn 0.7993 -0.5530 0.2351
vn 0.6691 0.1691 -0.7237
vn -0.2618 0.9484 -0.1788
vn 0.0673 0.9626 -0.2623
vn 0.2442 0.9318 -0.2684
vn 0.2084 0.7592 -0.6166
vn 0.1704 0.7809 -0.6010
vn -0.3614 0.8287 -0.4273
vn -0.5623 0.8237 -0.0725
vn 0.6320 -0.7712 -0.0757
vn 0.8832 0.4119 -0.2243
vn 0.4326 0.8524 -0.2937
vn -0.1963 -0.4247 0.8838
vn 0.9471 0.1647 0.2756
vn 0.8611 -0.3893 0.3270
vn 0.9119 0.3970 -0.1039
vn -0.2688 0.9464 -0.1789
vn 0.0598 0.9444 -0.3234
vn 0.2140 0.7844 -0.5821
vn -0.3862 0.8347 -0.3926
vn -0.4473 0.8922 -0.0624
usemtl Objects
s off
f 21/1/1 22/2/1 65/3/1
f 22/2/2 52/4/2 50/5/2
f 27/6/3 41/7/3 47/8/3
f 92/9/4 38/10/4 1/11/4
f 31/12/5 40/13/5 38/10/5
f 30/14/6 33/15/6 31/12/6
f 33/15/7 30/14/7 5/16/7
f 19/17/8 101/18/8 35/19/8
f 77/20/9 37/21/9 35/19/9
f 35/19/10 28/22/10 27/6/10
f 36/23/11 18/24/11 17/25/11
f 36/23/12 37/21/12 18/24/12
f 1/11/13 38/10/13 70/26/13
f 38/10/14 39/27/14 70/26/14
f 40/13/15 32/28/15 39/27/15
f 32/28/16 42/29/16 6/30/16
f 5/16/17 42/29/17 33/15/17
f 42/29/18 32/28/18 33/15/18
f 43/31/19 42/29/19 41/7/19
f 48/32/20 50/5/20 49/33/20
f 50/5/21 52/4/21 49/33/21
f 56/34/22 55/35/22 53/36/22
f 53/36/23 80/37/23 51/38/23
f 56/34/24 57/39/24 55/35/24
f 55/35/25 85/40/25 80/37/25
f 87/41/26 99/42/26 97/43/26
f 87/41/27 59/44/27 58/45/27
f 61/46/28 63/47/28 60/48/28
f 63/47/29 64/49/29 62/50/29
f 64/49/30 8/51/30 62/50/30
f 62/50/31 65/3/31 48/32/31
f 66/52/32 67/53/32 61/46/32
f 67/53/33 14/54/33 61/46/33
f 9/55/34 69/56/34 66/52/34
f 88/57/35 69/56/35 68/58/35
f 69/56/36 67/53/36 66/52/36
f 71/59/37 70/26/37 11/60/37
f 11/60/38 72/61/38 16/62/38
f 69/56/39 16/62/39 15/63/39
f 18/24/40 72/61/40 17/25/40
f 17/25/41 72/61/41 11/60/41
f 22/2/42 100/64/42 93/65/42
f 49/33/43 78/66/43 4/67/43
f 80/37/44 79/68/44 78/66/44
f 4/67/45 81/69/45 61/46/45
f 80/37/46 82/70/46 81/69/46
f 82/70/47 84/71/47 61/46/47
f 80/37/48 83/72/48 82/70/48
f 85/40/49 83/72/49 80/37/49
f 83/72/50 86/73/50 68/58/50
f 91/74/51 58/45/51 44/75/51
f 88/57/52 91/74/52 90/76/52
f 90/76/53 70/26/53 88/57/53
f 91/74/54 44/75/54 31/12/54
f 90/76/55 1/11/55 70/26/55
f 52/4/56 22/2/56 54/77/56
f 22/2/57 93/65/57 54/77/57
f 93/65/58 94/78/58 54/77/58
f 19/17/59 96/79/59 95/80/59
f 7/81/60 21/1/60 65/3/60
f 50/5/61 65/3/61 22/2/61
f 24/82/62 25/83/62 23/84/62
f 24/82/63 19/17/63 34/85/63
f 25/83/64 24/82/64 34/85/64
f 25/83/65 34/85/65 26/86/65
f 12/87/66 25/83/66 26/86/66
f 34/85/67 27/6/67 26/86/67
f 47/8/68 26/86/68 27/6/68
f 27/6/69 28/22/69 29/88/69
f 27/6/70 29/88/70 41/7/70
f 41/7/71 29/88/71 43/31/71
f 37/21/72 2/89/72 28/22/72
f 35/19/73 37/21/73 28/22/73
f 92/9/74 31/12/74 38/10/74
f 31/12/75 45/90/75 30/14/75
f 31/12/76 32/28/76 40/13/76
f 32/28/77 31/12/77 33/15/77
f 30/14/78 45/90/78 5/16/78
f 77/20/79 76/91/79 37/21/79
f 34/85/80 19/17/80 35/19/80
f 35/19/81 27/6/81 34/85/81
f 17/25/82 6/30/82 36/23/82
f 6/30/83 2/89/83 36/23/83
f 2/89/84 37/21/84 36/23/84
f 18/24/85 37/21/85 76/91/85
f 39/27/86 32/28/86 6/30/86
f 46/92/87 47/8/87 41/7/87
f 42/29/88 46/92/88 41/7/88
f 43/31/89 6/30/89 42/29/89
f 13/93/90 12/87/90 46/92/90
f 5/16/91 45/90/91 46/92/91
f 12/87/92 47/8/92 46/92/92
f 48/32/93 65/3/93 50/5/93
f 4/67/94 3/94/94 49/33/94
f 51/38/95 49/33/95 53/36/95
f 49/33/96 52/4/96 53/36/96
f 51/38/97 78/66/97 49/33/97
f 52/4/98 56/34/98 53/36/98
f 52/4/99 54/77/99 56/34/99
f 54/77/100 20/95/100 56/34/100
f 55/35/101 57/39/101 85/40/101
f 97/43/102 59/44/102 87/41/102
f 97/43/103 23/84/103 59/44/103
f 44/75/104 58/45/104 13/93/104
f 59/44/105 23/84/105 12/87/105
f 4/67/106 60/48/106 3/94/106
f 3/94/107 60/48/107 62/50/107
f 3/94/108 62/50/108 48/32/108
f 64/49/109 63/47/109 14/54/109
f 62/50/110 8/51/110 65/3/110
f 61/46/111 14/54/111 63/47/111
f 9/55/112 68/58/112 69/56/112
f 88/57/113 71/59/113 11/60/113
f 69/56/114 88/57/114 11/60/114
f 11/60/115 16/62/115 69/56/115
f 11/60/116 70/26/116 17/25/116
f 8/51/117 7/81/117 65/3/117
f 8/51/118 73/96/118 7/81/118
f 15/63/119 16/62/119 14/54/119
f 8/51/120 14/54/120 16/62/120
f 64/49/121 14/54/121 8/51/121
f 72/61/122 76/91/122 10/97/122
f 72/61/123 18/24/123 76/91/123
f 21/1/124 7/81/124 73/96/124
f 22/2/125 21/1/125 100/64/125
f 51/38/126 80/37/126 78/66/126
f 78/66/127 81/69/127 4/67/127
f 80/37/128 81/69/128 79/68/128
f 60/48/129 4/67/129 61/46/129
f 81/69/130 82/70/130 61/46/130
f 82/70/131 83/72/131 84/71/131
f 61/46/132 84/71/132 66/52/132
f 84/71/133 83/72/133 9/55/133
f 83/72/134 85/40/134 86/73/134
f 9/55/135 83/72/135 68/58/135
f 89/98/136 68/58/136 86/73/136
f 66/52/137 84/71/137 9/55/137
f 92/9/138 90/76/138 91/74/138
f 31/12/139 92/9/139 91/74/139
f 31/12/140 44/75/140 45/90/140
f 90/76/141 92/9/141 1/11/141
f 54/77/142 94/78/142 20/95/142
f 93/65/143 95/80/143 94/78/143
f 94/78/144 95/80/144 20/95/144
f 20/95/145 95/80/145 99/42/145
f 57/39/146 20/95/146 99/42/146
f 96/79/147 23/84/147 97/43/147
f 96/79/148 19/17/148 23/84/148
f 23/84/149 19/17/149 24/82/149
f 47/8/150 12/87/150 26/86/150
f 12/87/151 23/84/151 25/83/151
f 40/13/152 39/27/152 38/10/152
f 6/30/153 17/25/153 70/26/153
f 42/29/154 5/16/154 46/92/154
f 46/92/155 45/90/155 44/75/155
f 46/92/156 44/75/156 13/93/156
f 55/35/157 80/37/157 53/36/157
f 48/32/158 49/33/158 3/94/158
f 62/50/159 60/48/159 63/47/159
f 69/56/160 15/63/160 67/53/160
f 70/26/161 71/59/161 88/57/161
f 73/96/162 8/51/162 16/62/162
f 73/96/163 74/99/163 21/1/163
f 93/65/164 102/100/164 95/80/164
f 79/68/165 81/69/165 78/66/165
f 89/98/166 88/57/166 68/58/166
f 89/98/167 91/74/167 88/57/167
f 87/41/168 89/98/168 86/73/168
f 43/31/169 2/89/169 6/30/169
f 29/88/170 28/22/170 2/89/170
f 13/93/171 59/44/171 12/87/171
f 39/27/172 6/30/172 70/26/172
f 67/53/173 15/63/173 14/54/173
f 58/45/174 89/98/174 87/41/174
f 86/73/175 98/101/175 87/41/175
f 86/73/175 57/39/175 98/101/175
f 99/42/26 98/101/26 57/39/26
f 97/43/176 95/80/176 96/79/176
f 10/97/177 74/99/177 73/96/177
f 74/99/178 100/64/178 21/1/178
f 100/64/179 75/102/179 102/100/179
f 102/100/180 19/17/180 95/80/180
f 35/19/8 101/18/8 77/20/8
f 102/100/181 77/20/181 101/18/181
f 10/97/182 77/20/182 75/102/182
f 73/96/183 72/61/183 10/97/183
f 87/41/26 98/101/26 99/42/26
f 91/74/184 89/98/184 58/45/184
f 57/39/185 56/34/185 20/95/185
f 93/65/186 100/64/186 102/100/186
f 43/31/187 29/88/187 2/89/187
f 13/93/188 58/45/188 59/44/188
f 86/73/189 85/40/189 57/39/189
f 97/43/190 99/42/190 95/80/190
f 10/97/191 75/102/191 74/99/191
f 100/64/192 74/99/192 75/102/192
f 102/100/181 101/18/181 19/17/181
f 102/100/193 75/102/193 77/20/193
f 10/97/194 76/91/194 77/20/194
f 73/96/195 16/62/195 72/61/195
